%TF.GenerationSoftware,KiCad,Pcbnew,8.0.6-8.0.6-0~ubuntu20.04.1*%
%TF.CreationDate,2024-11-02T17:00:05-04:00*%
%TF.ProjectId,final_coil_Z_testing_size,66696e61-6c5f-4636-9f69-6c5f5a5f7465,rev?*%
%TF.SameCoordinates,Original*%
%TF.FileFunction,Copper,L1,Top*%
%TF.FilePolarity,Positive*%
%FSLAX46Y46*%
G04 Gerber Fmt 4.6, Leading zero omitted, Abs format (unit mm)*
G04 Created by KiCad (PCBNEW 8.0.6-8.0.6-0~ubuntu20.04.1) date 2024-11-02 17:00:05*
%MOMM*%
%LPD*%
G01*
G04 APERTURE LIST*
%ADD10C,0.100000*%
%ADD11C,0.150000*%
%ADD12C,0.300000*%
%ADD13C,0.400000*%
%ADD14C,0.500000*%
%TA.AperFunction,NonConductor*%
%ADD15C,0.500000*%
%TD*%
%TA.AperFunction,ViaPad*%
%ADD16C,0.600000*%
%TD*%
%TA.AperFunction,Conductor*%
%ADD17C,1.000000*%
%TD*%
G04 APERTURE END LIST*
D10*
D11*
X1099000000Y-153000000D02*
X1207000000Y-153000000D01*
X1207000000Y-185000000D01*
X1099000000Y-185000000D01*
X1099000000Y-153000000D01*
D10*
D11*
X10000000Y-10000000D02*
X1209000000Y-10000000D01*
X1209000000Y-187000000D01*
X10000000Y-187000000D01*
X10000000Y-10000000D01*
D10*
D11*
X12000000Y-12000000D02*
X1207000000Y-12000000D01*
X1207000000Y-185000000D01*
X12000000Y-185000000D01*
X12000000Y-12000000D01*
D10*
D11*
X60000000Y-12000000D02*
X60000000Y-10000000D01*
D10*
D11*
X110000000Y-12000000D02*
X110000000Y-10000000D01*
D10*
D11*
X160000000Y-12000000D02*
X160000000Y-10000000D01*
D10*
D11*
X210000000Y-12000000D02*
X210000000Y-10000000D01*
D10*
D11*
X260000000Y-12000000D02*
X260000000Y-10000000D01*
D10*
D11*
X310000000Y-12000000D02*
X310000000Y-10000000D01*
D10*
D11*
X360000000Y-12000000D02*
X360000000Y-10000000D01*
D10*
D11*
X410000000Y-12000000D02*
X410000000Y-10000000D01*
D10*
D11*
X460000000Y-12000000D02*
X460000000Y-10000000D01*
D10*
D11*
X510000000Y-12000000D02*
X510000000Y-10000000D01*
D10*
D11*
X560000000Y-12000000D02*
X560000000Y-10000000D01*
D10*
D11*
X610000000Y-12000000D02*
X610000000Y-10000000D01*
D10*
D11*
X660000000Y-12000000D02*
X660000000Y-10000000D01*
D10*
D11*
X710000000Y-12000000D02*
X710000000Y-10000000D01*
D10*
D11*
X760000000Y-12000000D02*
X760000000Y-10000000D01*
D10*
D11*
X810000000Y-12000000D02*
X810000000Y-10000000D01*
D10*
D11*
X860000000Y-12000000D02*
X860000000Y-10000000D01*
D10*
D11*
X910000000Y-12000000D02*
X910000000Y-10000000D01*
D10*
D11*
X960000000Y-12000000D02*
X960000000Y-10000000D01*
D10*
D11*
X1010000000Y-12000000D02*
X1010000000Y-10000000D01*
D10*
D11*
X1060000000Y-12000000D02*
X1060000000Y-10000000D01*
D10*
D11*
X1110000000Y-12000000D02*
X1110000000Y-10000000D01*
D10*
D11*
X1160000000Y-12000000D02*
X1160000000Y-10000000D01*
D10*
D11*
X36089160Y-11593604D02*
X35346303Y-11593604D01*
X35717731Y-11593604D02*
X35717731Y-10293604D01*
X35717731Y-10293604D02*
X35593922Y-10479319D01*
X35593922Y-10479319D02*
X35470112Y-10603128D01*
X35470112Y-10603128D02*
X35346303Y-10665033D01*
D10*
D11*
X85346303Y-10417414D02*
X85408207Y-10355509D01*
X85408207Y-10355509D02*
X85532017Y-10293604D01*
X85532017Y-10293604D02*
X85841541Y-10293604D01*
X85841541Y-10293604D02*
X85965350Y-10355509D01*
X85965350Y-10355509D02*
X86027255Y-10417414D01*
X86027255Y-10417414D02*
X86089160Y-10541223D01*
X86089160Y-10541223D02*
X86089160Y-10665033D01*
X86089160Y-10665033D02*
X86027255Y-10850747D01*
X86027255Y-10850747D02*
X85284398Y-11593604D01*
X85284398Y-11593604D02*
X86089160Y-11593604D01*
D10*
D11*
X135284398Y-10293604D02*
X136089160Y-10293604D01*
X136089160Y-10293604D02*
X135655826Y-10788842D01*
X135655826Y-10788842D02*
X135841541Y-10788842D01*
X135841541Y-10788842D02*
X135965350Y-10850747D01*
X135965350Y-10850747D02*
X136027255Y-10912652D01*
X136027255Y-10912652D02*
X136089160Y-11036461D01*
X136089160Y-11036461D02*
X136089160Y-11345985D01*
X136089160Y-11345985D02*
X136027255Y-11469795D01*
X136027255Y-11469795D02*
X135965350Y-11531700D01*
X135965350Y-11531700D02*
X135841541Y-11593604D01*
X135841541Y-11593604D02*
X135470112Y-11593604D01*
X135470112Y-11593604D02*
X135346303Y-11531700D01*
X135346303Y-11531700D02*
X135284398Y-11469795D01*
D10*
D11*
X185965350Y-10726938D02*
X185965350Y-11593604D01*
X185655826Y-10231700D02*
X185346303Y-11160271D01*
X185346303Y-11160271D02*
X186151064Y-11160271D01*
D10*
D11*
X236027255Y-10293604D02*
X235408207Y-10293604D01*
X235408207Y-10293604D02*
X235346303Y-10912652D01*
X235346303Y-10912652D02*
X235408207Y-10850747D01*
X235408207Y-10850747D02*
X235532017Y-10788842D01*
X235532017Y-10788842D02*
X235841541Y-10788842D01*
X235841541Y-10788842D02*
X235965350Y-10850747D01*
X235965350Y-10850747D02*
X236027255Y-10912652D01*
X236027255Y-10912652D02*
X236089160Y-11036461D01*
X236089160Y-11036461D02*
X236089160Y-11345985D01*
X236089160Y-11345985D02*
X236027255Y-11469795D01*
X236027255Y-11469795D02*
X235965350Y-11531700D01*
X235965350Y-11531700D02*
X235841541Y-11593604D01*
X235841541Y-11593604D02*
X235532017Y-11593604D01*
X235532017Y-11593604D02*
X235408207Y-11531700D01*
X235408207Y-11531700D02*
X235346303Y-11469795D01*
D10*
D11*
X285965350Y-10293604D02*
X285717731Y-10293604D01*
X285717731Y-10293604D02*
X285593922Y-10355509D01*
X285593922Y-10355509D02*
X285532017Y-10417414D01*
X285532017Y-10417414D02*
X285408207Y-10603128D01*
X285408207Y-10603128D02*
X285346303Y-10850747D01*
X285346303Y-10850747D02*
X285346303Y-11345985D01*
X285346303Y-11345985D02*
X285408207Y-11469795D01*
X285408207Y-11469795D02*
X285470112Y-11531700D01*
X285470112Y-11531700D02*
X285593922Y-11593604D01*
X285593922Y-11593604D02*
X285841541Y-11593604D01*
X285841541Y-11593604D02*
X285965350Y-11531700D01*
X285965350Y-11531700D02*
X286027255Y-11469795D01*
X286027255Y-11469795D02*
X286089160Y-11345985D01*
X286089160Y-11345985D02*
X286089160Y-11036461D01*
X286089160Y-11036461D02*
X286027255Y-10912652D01*
X286027255Y-10912652D02*
X285965350Y-10850747D01*
X285965350Y-10850747D02*
X285841541Y-10788842D01*
X285841541Y-10788842D02*
X285593922Y-10788842D01*
X285593922Y-10788842D02*
X285470112Y-10850747D01*
X285470112Y-10850747D02*
X285408207Y-10912652D01*
X285408207Y-10912652D02*
X285346303Y-11036461D01*
D10*
D11*
X335284398Y-10293604D02*
X336151064Y-10293604D01*
X336151064Y-10293604D02*
X335593922Y-11593604D01*
D10*
D11*
X385593922Y-10850747D02*
X385470112Y-10788842D01*
X385470112Y-10788842D02*
X385408207Y-10726938D01*
X385408207Y-10726938D02*
X385346303Y-10603128D01*
X385346303Y-10603128D02*
X385346303Y-10541223D01*
X385346303Y-10541223D02*
X385408207Y-10417414D01*
X385408207Y-10417414D02*
X385470112Y-10355509D01*
X385470112Y-10355509D02*
X385593922Y-10293604D01*
X385593922Y-10293604D02*
X385841541Y-10293604D01*
X385841541Y-10293604D02*
X385965350Y-10355509D01*
X385965350Y-10355509D02*
X386027255Y-10417414D01*
X386027255Y-10417414D02*
X386089160Y-10541223D01*
X386089160Y-10541223D02*
X386089160Y-10603128D01*
X386089160Y-10603128D02*
X386027255Y-10726938D01*
X386027255Y-10726938D02*
X385965350Y-10788842D01*
X385965350Y-10788842D02*
X385841541Y-10850747D01*
X385841541Y-10850747D02*
X385593922Y-10850747D01*
X385593922Y-10850747D02*
X385470112Y-10912652D01*
X385470112Y-10912652D02*
X385408207Y-10974557D01*
X385408207Y-10974557D02*
X385346303Y-11098366D01*
X385346303Y-11098366D02*
X385346303Y-11345985D01*
X385346303Y-11345985D02*
X385408207Y-11469795D01*
X385408207Y-11469795D02*
X385470112Y-11531700D01*
X385470112Y-11531700D02*
X385593922Y-11593604D01*
X385593922Y-11593604D02*
X385841541Y-11593604D01*
X385841541Y-11593604D02*
X385965350Y-11531700D01*
X385965350Y-11531700D02*
X386027255Y-11469795D01*
X386027255Y-11469795D02*
X386089160Y-11345985D01*
X386089160Y-11345985D02*
X386089160Y-11098366D01*
X386089160Y-11098366D02*
X386027255Y-10974557D01*
X386027255Y-10974557D02*
X385965350Y-10912652D01*
X385965350Y-10912652D02*
X385841541Y-10850747D01*
D10*
D11*
X435470112Y-11593604D02*
X435717731Y-11593604D01*
X435717731Y-11593604D02*
X435841541Y-11531700D01*
X435841541Y-11531700D02*
X435903445Y-11469795D01*
X435903445Y-11469795D02*
X436027255Y-11284080D01*
X436027255Y-11284080D02*
X436089160Y-11036461D01*
X436089160Y-11036461D02*
X436089160Y-10541223D01*
X436089160Y-10541223D02*
X436027255Y-10417414D01*
X436027255Y-10417414D02*
X435965350Y-10355509D01*
X435965350Y-10355509D02*
X435841541Y-10293604D01*
X435841541Y-10293604D02*
X435593922Y-10293604D01*
X435593922Y-10293604D02*
X435470112Y-10355509D01*
X435470112Y-10355509D02*
X435408207Y-10417414D01*
X435408207Y-10417414D02*
X435346303Y-10541223D01*
X435346303Y-10541223D02*
X435346303Y-10850747D01*
X435346303Y-10850747D02*
X435408207Y-10974557D01*
X435408207Y-10974557D02*
X435470112Y-11036461D01*
X435470112Y-11036461D02*
X435593922Y-11098366D01*
X435593922Y-11098366D02*
X435841541Y-11098366D01*
X435841541Y-11098366D02*
X435965350Y-11036461D01*
X435965350Y-11036461D02*
X436027255Y-10974557D01*
X436027255Y-10974557D02*
X436089160Y-10850747D01*
D10*
D11*
X486089160Y-11593604D02*
X485346303Y-11593604D01*
X485717731Y-11593604D02*
X485717731Y-10293604D01*
X485717731Y-10293604D02*
X485593922Y-10479319D01*
X485593922Y-10479319D02*
X485470112Y-10603128D01*
X485470112Y-10603128D02*
X485346303Y-10665033D01*
X486893921Y-10293604D02*
X487017731Y-10293604D01*
X487017731Y-10293604D02*
X487141540Y-10355509D01*
X487141540Y-10355509D02*
X487203445Y-10417414D01*
X487203445Y-10417414D02*
X487265350Y-10541223D01*
X487265350Y-10541223D02*
X487327255Y-10788842D01*
X487327255Y-10788842D02*
X487327255Y-11098366D01*
X487327255Y-11098366D02*
X487265350Y-11345985D01*
X487265350Y-11345985D02*
X487203445Y-11469795D01*
X487203445Y-11469795D02*
X487141540Y-11531700D01*
X487141540Y-11531700D02*
X487017731Y-11593604D01*
X487017731Y-11593604D02*
X486893921Y-11593604D01*
X486893921Y-11593604D02*
X486770112Y-11531700D01*
X486770112Y-11531700D02*
X486708207Y-11469795D01*
X486708207Y-11469795D02*
X486646302Y-11345985D01*
X486646302Y-11345985D02*
X486584398Y-11098366D01*
X486584398Y-11098366D02*
X486584398Y-10788842D01*
X486584398Y-10788842D02*
X486646302Y-10541223D01*
X486646302Y-10541223D02*
X486708207Y-10417414D01*
X486708207Y-10417414D02*
X486770112Y-10355509D01*
X486770112Y-10355509D02*
X486893921Y-10293604D01*
D10*
D11*
X536089160Y-11593604D02*
X535346303Y-11593604D01*
X535717731Y-11593604D02*
X535717731Y-10293604D01*
X535717731Y-10293604D02*
X535593922Y-10479319D01*
X535593922Y-10479319D02*
X535470112Y-10603128D01*
X535470112Y-10603128D02*
X535346303Y-10665033D01*
X537327255Y-11593604D02*
X536584398Y-11593604D01*
X536955826Y-11593604D02*
X536955826Y-10293604D01*
X536955826Y-10293604D02*
X536832017Y-10479319D01*
X536832017Y-10479319D02*
X536708207Y-10603128D01*
X536708207Y-10603128D02*
X536584398Y-10665033D01*
D10*
D11*
X586089160Y-11593604D02*
X585346303Y-11593604D01*
X585717731Y-11593604D02*
X585717731Y-10293604D01*
X585717731Y-10293604D02*
X585593922Y-10479319D01*
X585593922Y-10479319D02*
X585470112Y-10603128D01*
X585470112Y-10603128D02*
X585346303Y-10665033D01*
X586584398Y-10417414D02*
X586646302Y-10355509D01*
X586646302Y-10355509D02*
X586770112Y-10293604D01*
X586770112Y-10293604D02*
X587079636Y-10293604D01*
X587079636Y-10293604D02*
X587203445Y-10355509D01*
X587203445Y-10355509D02*
X587265350Y-10417414D01*
X587265350Y-10417414D02*
X587327255Y-10541223D01*
X587327255Y-10541223D02*
X587327255Y-10665033D01*
X587327255Y-10665033D02*
X587265350Y-10850747D01*
X587265350Y-10850747D02*
X586522493Y-11593604D01*
X586522493Y-11593604D02*
X587327255Y-11593604D01*
D10*
D11*
X636089160Y-11593604D02*
X635346303Y-11593604D01*
X635717731Y-11593604D02*
X635717731Y-10293604D01*
X635717731Y-10293604D02*
X635593922Y-10479319D01*
X635593922Y-10479319D02*
X635470112Y-10603128D01*
X635470112Y-10603128D02*
X635346303Y-10665033D01*
X636522493Y-10293604D02*
X637327255Y-10293604D01*
X637327255Y-10293604D02*
X636893921Y-10788842D01*
X636893921Y-10788842D02*
X637079636Y-10788842D01*
X637079636Y-10788842D02*
X637203445Y-10850747D01*
X637203445Y-10850747D02*
X637265350Y-10912652D01*
X637265350Y-10912652D02*
X637327255Y-11036461D01*
X637327255Y-11036461D02*
X637327255Y-11345985D01*
X637327255Y-11345985D02*
X637265350Y-11469795D01*
X637265350Y-11469795D02*
X637203445Y-11531700D01*
X637203445Y-11531700D02*
X637079636Y-11593604D01*
X637079636Y-11593604D02*
X636708207Y-11593604D01*
X636708207Y-11593604D02*
X636584398Y-11531700D01*
X636584398Y-11531700D02*
X636522493Y-11469795D01*
D10*
D11*
X686089160Y-11593604D02*
X685346303Y-11593604D01*
X685717731Y-11593604D02*
X685717731Y-10293604D01*
X685717731Y-10293604D02*
X685593922Y-10479319D01*
X685593922Y-10479319D02*
X685470112Y-10603128D01*
X685470112Y-10603128D02*
X685346303Y-10665033D01*
X687203445Y-10726938D02*
X687203445Y-11593604D01*
X686893921Y-10231700D02*
X686584398Y-11160271D01*
X686584398Y-11160271D02*
X687389159Y-11160271D01*
D10*
D11*
X736089160Y-11593604D02*
X735346303Y-11593604D01*
X735717731Y-11593604D02*
X735717731Y-10293604D01*
X735717731Y-10293604D02*
X735593922Y-10479319D01*
X735593922Y-10479319D02*
X735470112Y-10603128D01*
X735470112Y-10603128D02*
X735346303Y-10665033D01*
X737265350Y-10293604D02*
X736646302Y-10293604D01*
X736646302Y-10293604D02*
X736584398Y-10912652D01*
X736584398Y-10912652D02*
X736646302Y-10850747D01*
X736646302Y-10850747D02*
X736770112Y-10788842D01*
X736770112Y-10788842D02*
X737079636Y-10788842D01*
X737079636Y-10788842D02*
X737203445Y-10850747D01*
X737203445Y-10850747D02*
X737265350Y-10912652D01*
X737265350Y-10912652D02*
X737327255Y-11036461D01*
X737327255Y-11036461D02*
X737327255Y-11345985D01*
X737327255Y-11345985D02*
X737265350Y-11469795D01*
X737265350Y-11469795D02*
X737203445Y-11531700D01*
X737203445Y-11531700D02*
X737079636Y-11593604D01*
X737079636Y-11593604D02*
X736770112Y-11593604D01*
X736770112Y-11593604D02*
X736646302Y-11531700D01*
X736646302Y-11531700D02*
X736584398Y-11469795D01*
D10*
D11*
X786089160Y-11593604D02*
X785346303Y-11593604D01*
X785717731Y-11593604D02*
X785717731Y-10293604D01*
X785717731Y-10293604D02*
X785593922Y-10479319D01*
X785593922Y-10479319D02*
X785470112Y-10603128D01*
X785470112Y-10603128D02*
X785346303Y-10665033D01*
X787203445Y-10293604D02*
X786955826Y-10293604D01*
X786955826Y-10293604D02*
X786832017Y-10355509D01*
X786832017Y-10355509D02*
X786770112Y-10417414D01*
X786770112Y-10417414D02*
X786646302Y-10603128D01*
X786646302Y-10603128D02*
X786584398Y-10850747D01*
X786584398Y-10850747D02*
X786584398Y-11345985D01*
X786584398Y-11345985D02*
X786646302Y-11469795D01*
X786646302Y-11469795D02*
X786708207Y-11531700D01*
X786708207Y-11531700D02*
X786832017Y-11593604D01*
X786832017Y-11593604D02*
X787079636Y-11593604D01*
X787079636Y-11593604D02*
X787203445Y-11531700D01*
X787203445Y-11531700D02*
X787265350Y-11469795D01*
X787265350Y-11469795D02*
X787327255Y-11345985D01*
X787327255Y-11345985D02*
X787327255Y-11036461D01*
X787327255Y-11036461D02*
X787265350Y-10912652D01*
X787265350Y-10912652D02*
X787203445Y-10850747D01*
X787203445Y-10850747D02*
X787079636Y-10788842D01*
X787079636Y-10788842D02*
X786832017Y-10788842D01*
X786832017Y-10788842D02*
X786708207Y-10850747D01*
X786708207Y-10850747D02*
X786646302Y-10912652D01*
X786646302Y-10912652D02*
X786584398Y-11036461D01*
D10*
D11*
X836089160Y-11593604D02*
X835346303Y-11593604D01*
X835717731Y-11593604D02*
X835717731Y-10293604D01*
X835717731Y-10293604D02*
X835593922Y-10479319D01*
X835593922Y-10479319D02*
X835470112Y-10603128D01*
X835470112Y-10603128D02*
X835346303Y-10665033D01*
X836522493Y-10293604D02*
X837389159Y-10293604D01*
X837389159Y-10293604D02*
X836832017Y-11593604D01*
D10*
D11*
X886089160Y-11593604D02*
X885346303Y-11593604D01*
X885717731Y-11593604D02*
X885717731Y-10293604D01*
X885717731Y-10293604D02*
X885593922Y-10479319D01*
X885593922Y-10479319D02*
X885470112Y-10603128D01*
X885470112Y-10603128D02*
X885346303Y-10665033D01*
X886832017Y-10850747D02*
X886708207Y-10788842D01*
X886708207Y-10788842D02*
X886646302Y-10726938D01*
X886646302Y-10726938D02*
X886584398Y-10603128D01*
X886584398Y-10603128D02*
X886584398Y-10541223D01*
X886584398Y-10541223D02*
X886646302Y-10417414D01*
X886646302Y-10417414D02*
X886708207Y-10355509D01*
X886708207Y-10355509D02*
X886832017Y-10293604D01*
X886832017Y-10293604D02*
X887079636Y-10293604D01*
X887079636Y-10293604D02*
X887203445Y-10355509D01*
X887203445Y-10355509D02*
X887265350Y-10417414D01*
X887265350Y-10417414D02*
X887327255Y-10541223D01*
X887327255Y-10541223D02*
X887327255Y-10603128D01*
X887327255Y-10603128D02*
X887265350Y-10726938D01*
X887265350Y-10726938D02*
X887203445Y-10788842D01*
X887203445Y-10788842D02*
X887079636Y-10850747D01*
X887079636Y-10850747D02*
X886832017Y-10850747D01*
X886832017Y-10850747D02*
X886708207Y-10912652D01*
X886708207Y-10912652D02*
X886646302Y-10974557D01*
X886646302Y-10974557D02*
X886584398Y-11098366D01*
X886584398Y-11098366D02*
X886584398Y-11345985D01*
X886584398Y-11345985D02*
X886646302Y-11469795D01*
X886646302Y-11469795D02*
X886708207Y-11531700D01*
X886708207Y-11531700D02*
X886832017Y-11593604D01*
X886832017Y-11593604D02*
X887079636Y-11593604D01*
X887079636Y-11593604D02*
X887203445Y-11531700D01*
X887203445Y-11531700D02*
X887265350Y-11469795D01*
X887265350Y-11469795D02*
X887327255Y-11345985D01*
X887327255Y-11345985D02*
X887327255Y-11098366D01*
X887327255Y-11098366D02*
X887265350Y-10974557D01*
X887265350Y-10974557D02*
X887203445Y-10912652D01*
X887203445Y-10912652D02*
X887079636Y-10850747D01*
D10*
D11*
X936089160Y-11593604D02*
X935346303Y-11593604D01*
X935717731Y-11593604D02*
X935717731Y-10293604D01*
X935717731Y-10293604D02*
X935593922Y-10479319D01*
X935593922Y-10479319D02*
X935470112Y-10603128D01*
X935470112Y-10603128D02*
X935346303Y-10665033D01*
X936708207Y-11593604D02*
X936955826Y-11593604D01*
X936955826Y-11593604D02*
X937079636Y-11531700D01*
X937079636Y-11531700D02*
X937141540Y-11469795D01*
X937141540Y-11469795D02*
X937265350Y-11284080D01*
X937265350Y-11284080D02*
X937327255Y-11036461D01*
X937327255Y-11036461D02*
X937327255Y-10541223D01*
X937327255Y-10541223D02*
X937265350Y-10417414D01*
X937265350Y-10417414D02*
X937203445Y-10355509D01*
X937203445Y-10355509D02*
X937079636Y-10293604D01*
X937079636Y-10293604D02*
X936832017Y-10293604D01*
X936832017Y-10293604D02*
X936708207Y-10355509D01*
X936708207Y-10355509D02*
X936646302Y-10417414D01*
X936646302Y-10417414D02*
X936584398Y-10541223D01*
X936584398Y-10541223D02*
X936584398Y-10850747D01*
X936584398Y-10850747D02*
X936646302Y-10974557D01*
X936646302Y-10974557D02*
X936708207Y-11036461D01*
X936708207Y-11036461D02*
X936832017Y-11098366D01*
X936832017Y-11098366D02*
X937079636Y-11098366D01*
X937079636Y-11098366D02*
X937203445Y-11036461D01*
X937203445Y-11036461D02*
X937265350Y-10974557D01*
X937265350Y-10974557D02*
X937327255Y-10850747D01*
D10*
D11*
X985346303Y-10417414D02*
X985408207Y-10355509D01*
X985408207Y-10355509D02*
X985532017Y-10293604D01*
X985532017Y-10293604D02*
X985841541Y-10293604D01*
X985841541Y-10293604D02*
X985965350Y-10355509D01*
X985965350Y-10355509D02*
X986027255Y-10417414D01*
X986027255Y-10417414D02*
X986089160Y-10541223D01*
X986089160Y-10541223D02*
X986089160Y-10665033D01*
X986089160Y-10665033D02*
X986027255Y-10850747D01*
X986027255Y-10850747D02*
X985284398Y-11593604D01*
X985284398Y-11593604D02*
X986089160Y-11593604D01*
X986893921Y-10293604D02*
X987017731Y-10293604D01*
X987017731Y-10293604D02*
X987141540Y-10355509D01*
X987141540Y-10355509D02*
X987203445Y-10417414D01*
X987203445Y-10417414D02*
X987265350Y-10541223D01*
X987265350Y-10541223D02*
X987327255Y-10788842D01*
X987327255Y-10788842D02*
X987327255Y-11098366D01*
X987327255Y-11098366D02*
X987265350Y-11345985D01*
X987265350Y-11345985D02*
X987203445Y-11469795D01*
X987203445Y-11469795D02*
X987141540Y-11531700D01*
X987141540Y-11531700D02*
X987017731Y-11593604D01*
X987017731Y-11593604D02*
X986893921Y-11593604D01*
X986893921Y-11593604D02*
X986770112Y-11531700D01*
X986770112Y-11531700D02*
X986708207Y-11469795D01*
X986708207Y-11469795D02*
X986646302Y-11345985D01*
X986646302Y-11345985D02*
X986584398Y-11098366D01*
X986584398Y-11098366D02*
X986584398Y-10788842D01*
X986584398Y-10788842D02*
X986646302Y-10541223D01*
X986646302Y-10541223D02*
X986708207Y-10417414D01*
X986708207Y-10417414D02*
X986770112Y-10355509D01*
X986770112Y-10355509D02*
X986893921Y-10293604D01*
D10*
D11*
X1035346303Y-10417414D02*
X1035408207Y-10355509D01*
X1035408207Y-10355509D02*
X1035532017Y-10293604D01*
X1035532017Y-10293604D02*
X1035841541Y-10293604D01*
X1035841541Y-10293604D02*
X1035965350Y-10355509D01*
X1035965350Y-10355509D02*
X1036027255Y-10417414D01*
X1036027255Y-10417414D02*
X1036089160Y-10541223D01*
X1036089160Y-10541223D02*
X1036089160Y-10665033D01*
X1036089160Y-10665033D02*
X1036027255Y-10850747D01*
X1036027255Y-10850747D02*
X1035284398Y-11593604D01*
X1035284398Y-11593604D02*
X1036089160Y-11593604D01*
X1037327255Y-11593604D02*
X1036584398Y-11593604D01*
X1036955826Y-11593604D02*
X1036955826Y-10293604D01*
X1036955826Y-10293604D02*
X1036832017Y-10479319D01*
X1036832017Y-10479319D02*
X1036708207Y-10603128D01*
X1036708207Y-10603128D02*
X1036584398Y-10665033D01*
D10*
D11*
X1085346303Y-10417414D02*
X1085408207Y-10355509D01*
X1085408207Y-10355509D02*
X1085532017Y-10293604D01*
X1085532017Y-10293604D02*
X1085841541Y-10293604D01*
X1085841541Y-10293604D02*
X1085965350Y-10355509D01*
X1085965350Y-10355509D02*
X1086027255Y-10417414D01*
X1086027255Y-10417414D02*
X1086089160Y-10541223D01*
X1086089160Y-10541223D02*
X1086089160Y-10665033D01*
X1086089160Y-10665033D02*
X1086027255Y-10850747D01*
X1086027255Y-10850747D02*
X1085284398Y-11593604D01*
X1085284398Y-11593604D02*
X1086089160Y-11593604D01*
X1086584398Y-10417414D02*
X1086646302Y-10355509D01*
X1086646302Y-10355509D02*
X1086770112Y-10293604D01*
X1086770112Y-10293604D02*
X1087079636Y-10293604D01*
X1087079636Y-10293604D02*
X1087203445Y-10355509D01*
X1087203445Y-10355509D02*
X1087265350Y-10417414D01*
X1087265350Y-10417414D02*
X1087327255Y-10541223D01*
X1087327255Y-10541223D02*
X1087327255Y-10665033D01*
X1087327255Y-10665033D02*
X1087265350Y-10850747D01*
X1087265350Y-10850747D02*
X1086522493Y-11593604D01*
X1086522493Y-11593604D02*
X1087327255Y-11593604D01*
D10*
D11*
X1135346303Y-10417414D02*
X1135408207Y-10355509D01*
X1135408207Y-10355509D02*
X1135532017Y-10293604D01*
X1135532017Y-10293604D02*
X1135841541Y-10293604D01*
X1135841541Y-10293604D02*
X1135965350Y-10355509D01*
X1135965350Y-10355509D02*
X1136027255Y-10417414D01*
X1136027255Y-10417414D02*
X1136089160Y-10541223D01*
X1136089160Y-10541223D02*
X1136089160Y-10665033D01*
X1136089160Y-10665033D02*
X1136027255Y-10850747D01*
X1136027255Y-10850747D02*
X1135284398Y-11593604D01*
X1135284398Y-11593604D02*
X1136089160Y-11593604D01*
X1136522493Y-10293604D02*
X1137327255Y-10293604D01*
X1137327255Y-10293604D02*
X1136893921Y-10788842D01*
X1136893921Y-10788842D02*
X1137079636Y-10788842D01*
X1137079636Y-10788842D02*
X1137203445Y-10850747D01*
X1137203445Y-10850747D02*
X1137265350Y-10912652D01*
X1137265350Y-10912652D02*
X1137327255Y-11036461D01*
X1137327255Y-11036461D02*
X1137327255Y-11345985D01*
X1137327255Y-11345985D02*
X1137265350Y-11469795D01*
X1137265350Y-11469795D02*
X1137203445Y-11531700D01*
X1137203445Y-11531700D02*
X1137079636Y-11593604D01*
X1137079636Y-11593604D02*
X1136708207Y-11593604D01*
X1136708207Y-11593604D02*
X1136584398Y-11531700D01*
X1136584398Y-11531700D02*
X1136522493Y-11469795D01*
D10*
D11*
X1185346303Y-10417414D02*
X1185408207Y-10355509D01*
X1185408207Y-10355509D02*
X1185532017Y-10293604D01*
X1185532017Y-10293604D02*
X1185841541Y-10293604D01*
X1185841541Y-10293604D02*
X1185965350Y-10355509D01*
X1185965350Y-10355509D02*
X1186027255Y-10417414D01*
X1186027255Y-10417414D02*
X1186089160Y-10541223D01*
X1186089160Y-10541223D02*
X1186089160Y-10665033D01*
X1186089160Y-10665033D02*
X1186027255Y-10850747D01*
X1186027255Y-10850747D02*
X1185284398Y-11593604D01*
X1185284398Y-11593604D02*
X1186089160Y-11593604D01*
X1187203445Y-10726938D02*
X1187203445Y-11593604D01*
X1186893921Y-10231700D02*
X1186584398Y-11160271D01*
X1186584398Y-11160271D02*
X1187389159Y-11160271D01*
D10*
D11*
X60000000Y-185000000D02*
X60000000Y-187000000D01*
D10*
D11*
X110000000Y-185000000D02*
X110000000Y-187000000D01*
D10*
D11*
X160000000Y-185000000D02*
X160000000Y-187000000D01*
D10*
D11*
X210000000Y-185000000D02*
X210000000Y-187000000D01*
D10*
D11*
X260000000Y-185000000D02*
X260000000Y-187000000D01*
D10*
D11*
X310000000Y-185000000D02*
X310000000Y-187000000D01*
D10*
D11*
X360000000Y-185000000D02*
X360000000Y-187000000D01*
D10*
D11*
X410000000Y-185000000D02*
X410000000Y-187000000D01*
D10*
D11*
X460000000Y-185000000D02*
X460000000Y-187000000D01*
D10*
D11*
X510000000Y-185000000D02*
X510000000Y-187000000D01*
D10*
D11*
X560000000Y-185000000D02*
X560000000Y-187000000D01*
D10*
D11*
X610000000Y-185000000D02*
X610000000Y-187000000D01*
D10*
D11*
X660000000Y-185000000D02*
X660000000Y-187000000D01*
D10*
D11*
X710000000Y-185000000D02*
X710000000Y-187000000D01*
D10*
D11*
X760000000Y-185000000D02*
X760000000Y-187000000D01*
D10*
D11*
X810000000Y-185000000D02*
X810000000Y-187000000D01*
D10*
D11*
X860000000Y-185000000D02*
X860000000Y-187000000D01*
D10*
D11*
X910000000Y-185000000D02*
X910000000Y-187000000D01*
D10*
D11*
X960000000Y-185000000D02*
X960000000Y-187000000D01*
D10*
D11*
X1010000000Y-185000000D02*
X1010000000Y-187000000D01*
D10*
D11*
X1060000000Y-185000000D02*
X1060000000Y-187000000D01*
D10*
D11*
X1110000000Y-185000000D02*
X1110000000Y-187000000D01*
D10*
D11*
X1160000000Y-185000000D02*
X1160000000Y-187000000D01*
D10*
D11*
X36089160Y-186593604D02*
X35346303Y-186593604D01*
X35717731Y-186593604D02*
X35717731Y-185293604D01*
X35717731Y-185293604D02*
X35593922Y-185479319D01*
X35593922Y-185479319D02*
X35470112Y-185603128D01*
X35470112Y-185603128D02*
X35346303Y-185665033D01*
D10*
D11*
X85346303Y-185417414D02*
X85408207Y-185355509D01*
X85408207Y-185355509D02*
X85532017Y-185293604D01*
X85532017Y-185293604D02*
X85841541Y-185293604D01*
X85841541Y-185293604D02*
X85965350Y-185355509D01*
X85965350Y-185355509D02*
X86027255Y-185417414D01*
X86027255Y-185417414D02*
X86089160Y-185541223D01*
X86089160Y-185541223D02*
X86089160Y-185665033D01*
X86089160Y-185665033D02*
X86027255Y-185850747D01*
X86027255Y-185850747D02*
X85284398Y-186593604D01*
X85284398Y-186593604D02*
X86089160Y-186593604D01*
D10*
D11*
X135284398Y-185293604D02*
X136089160Y-185293604D01*
X136089160Y-185293604D02*
X135655826Y-185788842D01*
X135655826Y-185788842D02*
X135841541Y-185788842D01*
X135841541Y-185788842D02*
X135965350Y-185850747D01*
X135965350Y-185850747D02*
X136027255Y-185912652D01*
X136027255Y-185912652D02*
X136089160Y-186036461D01*
X136089160Y-186036461D02*
X136089160Y-186345985D01*
X136089160Y-186345985D02*
X136027255Y-186469795D01*
X136027255Y-186469795D02*
X135965350Y-186531700D01*
X135965350Y-186531700D02*
X135841541Y-186593604D01*
X135841541Y-186593604D02*
X135470112Y-186593604D01*
X135470112Y-186593604D02*
X135346303Y-186531700D01*
X135346303Y-186531700D02*
X135284398Y-186469795D01*
D10*
D11*
X185965350Y-185726938D02*
X185965350Y-186593604D01*
X185655826Y-185231700D02*
X185346303Y-186160271D01*
X185346303Y-186160271D02*
X186151064Y-186160271D01*
D10*
D11*
X236027255Y-185293604D02*
X235408207Y-185293604D01*
X235408207Y-185293604D02*
X235346303Y-185912652D01*
X235346303Y-185912652D02*
X235408207Y-185850747D01*
X235408207Y-185850747D02*
X235532017Y-185788842D01*
X235532017Y-185788842D02*
X235841541Y-185788842D01*
X235841541Y-185788842D02*
X235965350Y-185850747D01*
X235965350Y-185850747D02*
X236027255Y-185912652D01*
X236027255Y-185912652D02*
X236089160Y-186036461D01*
X236089160Y-186036461D02*
X236089160Y-186345985D01*
X236089160Y-186345985D02*
X236027255Y-186469795D01*
X236027255Y-186469795D02*
X235965350Y-186531700D01*
X235965350Y-186531700D02*
X235841541Y-186593604D01*
X235841541Y-186593604D02*
X235532017Y-186593604D01*
X235532017Y-186593604D02*
X235408207Y-186531700D01*
X235408207Y-186531700D02*
X235346303Y-186469795D01*
D10*
D11*
X285965350Y-185293604D02*
X285717731Y-185293604D01*
X285717731Y-185293604D02*
X285593922Y-185355509D01*
X285593922Y-185355509D02*
X285532017Y-185417414D01*
X285532017Y-185417414D02*
X285408207Y-185603128D01*
X285408207Y-185603128D02*
X285346303Y-185850747D01*
X285346303Y-185850747D02*
X285346303Y-186345985D01*
X285346303Y-186345985D02*
X285408207Y-186469795D01*
X285408207Y-186469795D02*
X285470112Y-186531700D01*
X285470112Y-186531700D02*
X285593922Y-186593604D01*
X285593922Y-186593604D02*
X285841541Y-186593604D01*
X285841541Y-186593604D02*
X285965350Y-186531700D01*
X285965350Y-186531700D02*
X286027255Y-186469795D01*
X286027255Y-186469795D02*
X286089160Y-186345985D01*
X286089160Y-186345985D02*
X286089160Y-186036461D01*
X286089160Y-186036461D02*
X286027255Y-185912652D01*
X286027255Y-185912652D02*
X285965350Y-185850747D01*
X285965350Y-185850747D02*
X285841541Y-185788842D01*
X285841541Y-185788842D02*
X285593922Y-185788842D01*
X285593922Y-185788842D02*
X285470112Y-185850747D01*
X285470112Y-185850747D02*
X285408207Y-185912652D01*
X285408207Y-185912652D02*
X285346303Y-186036461D01*
D10*
D11*
X335284398Y-185293604D02*
X336151064Y-185293604D01*
X336151064Y-185293604D02*
X335593922Y-186593604D01*
D10*
D11*
X385593922Y-185850747D02*
X385470112Y-185788842D01*
X385470112Y-185788842D02*
X385408207Y-185726938D01*
X385408207Y-185726938D02*
X385346303Y-185603128D01*
X385346303Y-185603128D02*
X385346303Y-185541223D01*
X385346303Y-185541223D02*
X385408207Y-185417414D01*
X385408207Y-185417414D02*
X385470112Y-185355509D01*
X385470112Y-185355509D02*
X385593922Y-185293604D01*
X385593922Y-185293604D02*
X385841541Y-185293604D01*
X385841541Y-185293604D02*
X385965350Y-185355509D01*
X385965350Y-185355509D02*
X386027255Y-185417414D01*
X386027255Y-185417414D02*
X386089160Y-185541223D01*
X386089160Y-185541223D02*
X386089160Y-185603128D01*
X386089160Y-185603128D02*
X386027255Y-185726938D01*
X386027255Y-185726938D02*
X385965350Y-185788842D01*
X385965350Y-185788842D02*
X385841541Y-185850747D01*
X385841541Y-185850747D02*
X385593922Y-185850747D01*
X385593922Y-185850747D02*
X385470112Y-185912652D01*
X385470112Y-185912652D02*
X385408207Y-185974557D01*
X385408207Y-185974557D02*
X385346303Y-186098366D01*
X385346303Y-186098366D02*
X385346303Y-186345985D01*
X385346303Y-186345985D02*
X385408207Y-186469795D01*
X385408207Y-186469795D02*
X385470112Y-186531700D01*
X385470112Y-186531700D02*
X385593922Y-186593604D01*
X385593922Y-186593604D02*
X385841541Y-186593604D01*
X385841541Y-186593604D02*
X385965350Y-186531700D01*
X385965350Y-186531700D02*
X386027255Y-186469795D01*
X386027255Y-186469795D02*
X386089160Y-186345985D01*
X386089160Y-186345985D02*
X386089160Y-186098366D01*
X386089160Y-186098366D02*
X386027255Y-185974557D01*
X386027255Y-185974557D02*
X385965350Y-185912652D01*
X385965350Y-185912652D02*
X385841541Y-185850747D01*
D10*
D11*
X435470112Y-186593604D02*
X435717731Y-186593604D01*
X435717731Y-186593604D02*
X435841541Y-186531700D01*
X435841541Y-186531700D02*
X435903445Y-186469795D01*
X435903445Y-186469795D02*
X436027255Y-186284080D01*
X436027255Y-186284080D02*
X436089160Y-186036461D01*
X436089160Y-186036461D02*
X436089160Y-185541223D01*
X436089160Y-185541223D02*
X436027255Y-185417414D01*
X436027255Y-185417414D02*
X435965350Y-185355509D01*
X435965350Y-185355509D02*
X435841541Y-185293604D01*
X435841541Y-185293604D02*
X435593922Y-185293604D01*
X435593922Y-185293604D02*
X435470112Y-185355509D01*
X435470112Y-185355509D02*
X435408207Y-185417414D01*
X435408207Y-185417414D02*
X435346303Y-185541223D01*
X435346303Y-185541223D02*
X435346303Y-185850747D01*
X435346303Y-185850747D02*
X435408207Y-185974557D01*
X435408207Y-185974557D02*
X435470112Y-186036461D01*
X435470112Y-186036461D02*
X435593922Y-186098366D01*
X435593922Y-186098366D02*
X435841541Y-186098366D01*
X435841541Y-186098366D02*
X435965350Y-186036461D01*
X435965350Y-186036461D02*
X436027255Y-185974557D01*
X436027255Y-185974557D02*
X436089160Y-185850747D01*
D10*
D11*
X486089160Y-186593604D02*
X485346303Y-186593604D01*
X485717731Y-186593604D02*
X485717731Y-185293604D01*
X485717731Y-185293604D02*
X485593922Y-185479319D01*
X485593922Y-185479319D02*
X485470112Y-185603128D01*
X485470112Y-185603128D02*
X485346303Y-185665033D01*
X486893921Y-185293604D02*
X487017731Y-185293604D01*
X487017731Y-185293604D02*
X487141540Y-185355509D01*
X487141540Y-185355509D02*
X487203445Y-185417414D01*
X487203445Y-185417414D02*
X487265350Y-185541223D01*
X487265350Y-185541223D02*
X487327255Y-185788842D01*
X487327255Y-185788842D02*
X487327255Y-186098366D01*
X487327255Y-186098366D02*
X487265350Y-186345985D01*
X487265350Y-186345985D02*
X487203445Y-186469795D01*
X487203445Y-186469795D02*
X487141540Y-186531700D01*
X487141540Y-186531700D02*
X487017731Y-186593604D01*
X487017731Y-186593604D02*
X486893921Y-186593604D01*
X486893921Y-186593604D02*
X486770112Y-186531700D01*
X486770112Y-186531700D02*
X486708207Y-186469795D01*
X486708207Y-186469795D02*
X486646302Y-186345985D01*
X486646302Y-186345985D02*
X486584398Y-186098366D01*
X486584398Y-186098366D02*
X486584398Y-185788842D01*
X486584398Y-185788842D02*
X486646302Y-185541223D01*
X486646302Y-185541223D02*
X486708207Y-185417414D01*
X486708207Y-185417414D02*
X486770112Y-185355509D01*
X486770112Y-185355509D02*
X486893921Y-185293604D01*
D10*
D11*
X536089160Y-186593604D02*
X535346303Y-186593604D01*
X535717731Y-186593604D02*
X535717731Y-185293604D01*
X535717731Y-185293604D02*
X535593922Y-185479319D01*
X535593922Y-185479319D02*
X535470112Y-185603128D01*
X535470112Y-185603128D02*
X535346303Y-185665033D01*
X537327255Y-186593604D02*
X536584398Y-186593604D01*
X536955826Y-186593604D02*
X536955826Y-185293604D01*
X536955826Y-185293604D02*
X536832017Y-185479319D01*
X536832017Y-185479319D02*
X536708207Y-185603128D01*
X536708207Y-185603128D02*
X536584398Y-185665033D01*
D10*
D11*
X586089160Y-186593604D02*
X585346303Y-186593604D01*
X585717731Y-186593604D02*
X585717731Y-185293604D01*
X585717731Y-185293604D02*
X585593922Y-185479319D01*
X585593922Y-185479319D02*
X585470112Y-185603128D01*
X585470112Y-185603128D02*
X585346303Y-185665033D01*
X586584398Y-185417414D02*
X586646302Y-185355509D01*
X586646302Y-185355509D02*
X586770112Y-185293604D01*
X586770112Y-185293604D02*
X587079636Y-185293604D01*
X587079636Y-185293604D02*
X587203445Y-185355509D01*
X587203445Y-185355509D02*
X587265350Y-185417414D01*
X587265350Y-185417414D02*
X587327255Y-185541223D01*
X587327255Y-185541223D02*
X587327255Y-185665033D01*
X587327255Y-185665033D02*
X587265350Y-185850747D01*
X587265350Y-185850747D02*
X586522493Y-186593604D01*
X586522493Y-186593604D02*
X587327255Y-186593604D01*
D10*
D11*
X636089160Y-186593604D02*
X635346303Y-186593604D01*
X635717731Y-186593604D02*
X635717731Y-185293604D01*
X635717731Y-185293604D02*
X635593922Y-185479319D01*
X635593922Y-185479319D02*
X635470112Y-185603128D01*
X635470112Y-185603128D02*
X635346303Y-185665033D01*
X636522493Y-185293604D02*
X637327255Y-185293604D01*
X637327255Y-185293604D02*
X636893921Y-185788842D01*
X636893921Y-185788842D02*
X637079636Y-185788842D01*
X637079636Y-185788842D02*
X637203445Y-185850747D01*
X637203445Y-185850747D02*
X637265350Y-185912652D01*
X637265350Y-185912652D02*
X637327255Y-186036461D01*
X637327255Y-186036461D02*
X637327255Y-186345985D01*
X637327255Y-186345985D02*
X637265350Y-186469795D01*
X637265350Y-186469795D02*
X637203445Y-186531700D01*
X637203445Y-186531700D02*
X637079636Y-186593604D01*
X637079636Y-186593604D02*
X636708207Y-186593604D01*
X636708207Y-186593604D02*
X636584398Y-186531700D01*
X636584398Y-186531700D02*
X636522493Y-186469795D01*
D10*
D11*
X686089160Y-186593604D02*
X685346303Y-186593604D01*
X685717731Y-186593604D02*
X685717731Y-185293604D01*
X685717731Y-185293604D02*
X685593922Y-185479319D01*
X685593922Y-185479319D02*
X685470112Y-185603128D01*
X685470112Y-185603128D02*
X685346303Y-185665033D01*
X687203445Y-185726938D02*
X687203445Y-186593604D01*
X686893921Y-185231700D02*
X686584398Y-186160271D01*
X686584398Y-186160271D02*
X687389159Y-186160271D01*
D10*
D11*
X736089160Y-186593604D02*
X735346303Y-186593604D01*
X735717731Y-186593604D02*
X735717731Y-185293604D01*
X735717731Y-185293604D02*
X735593922Y-185479319D01*
X735593922Y-185479319D02*
X735470112Y-185603128D01*
X735470112Y-185603128D02*
X735346303Y-185665033D01*
X737265350Y-185293604D02*
X736646302Y-185293604D01*
X736646302Y-185293604D02*
X736584398Y-185912652D01*
X736584398Y-185912652D02*
X736646302Y-185850747D01*
X736646302Y-185850747D02*
X736770112Y-185788842D01*
X736770112Y-185788842D02*
X737079636Y-185788842D01*
X737079636Y-185788842D02*
X737203445Y-185850747D01*
X737203445Y-185850747D02*
X737265350Y-185912652D01*
X737265350Y-185912652D02*
X737327255Y-186036461D01*
X737327255Y-186036461D02*
X737327255Y-186345985D01*
X737327255Y-186345985D02*
X737265350Y-186469795D01*
X737265350Y-186469795D02*
X737203445Y-186531700D01*
X737203445Y-186531700D02*
X737079636Y-186593604D01*
X737079636Y-186593604D02*
X736770112Y-186593604D01*
X736770112Y-186593604D02*
X736646302Y-186531700D01*
X736646302Y-186531700D02*
X736584398Y-186469795D01*
D10*
D11*
X786089160Y-186593604D02*
X785346303Y-186593604D01*
X785717731Y-186593604D02*
X785717731Y-185293604D01*
X785717731Y-185293604D02*
X785593922Y-185479319D01*
X785593922Y-185479319D02*
X785470112Y-185603128D01*
X785470112Y-185603128D02*
X785346303Y-185665033D01*
X787203445Y-185293604D02*
X786955826Y-185293604D01*
X786955826Y-185293604D02*
X786832017Y-185355509D01*
X786832017Y-185355509D02*
X786770112Y-185417414D01*
X786770112Y-185417414D02*
X786646302Y-185603128D01*
X786646302Y-185603128D02*
X786584398Y-185850747D01*
X786584398Y-185850747D02*
X786584398Y-186345985D01*
X786584398Y-186345985D02*
X786646302Y-186469795D01*
X786646302Y-186469795D02*
X786708207Y-186531700D01*
X786708207Y-186531700D02*
X786832017Y-186593604D01*
X786832017Y-186593604D02*
X787079636Y-186593604D01*
X787079636Y-186593604D02*
X787203445Y-186531700D01*
X787203445Y-186531700D02*
X787265350Y-186469795D01*
X787265350Y-186469795D02*
X787327255Y-186345985D01*
X787327255Y-186345985D02*
X787327255Y-186036461D01*
X787327255Y-186036461D02*
X787265350Y-185912652D01*
X787265350Y-185912652D02*
X787203445Y-185850747D01*
X787203445Y-185850747D02*
X787079636Y-185788842D01*
X787079636Y-185788842D02*
X786832017Y-185788842D01*
X786832017Y-185788842D02*
X786708207Y-185850747D01*
X786708207Y-185850747D02*
X786646302Y-185912652D01*
X786646302Y-185912652D02*
X786584398Y-186036461D01*
D10*
D11*
X836089160Y-186593604D02*
X835346303Y-186593604D01*
X835717731Y-186593604D02*
X835717731Y-185293604D01*
X835717731Y-185293604D02*
X835593922Y-185479319D01*
X835593922Y-185479319D02*
X835470112Y-185603128D01*
X835470112Y-185603128D02*
X835346303Y-185665033D01*
X836522493Y-185293604D02*
X837389159Y-185293604D01*
X837389159Y-185293604D02*
X836832017Y-186593604D01*
D10*
D11*
X886089160Y-186593604D02*
X885346303Y-186593604D01*
X885717731Y-186593604D02*
X885717731Y-185293604D01*
X885717731Y-185293604D02*
X885593922Y-185479319D01*
X885593922Y-185479319D02*
X885470112Y-185603128D01*
X885470112Y-185603128D02*
X885346303Y-185665033D01*
X886832017Y-185850747D02*
X886708207Y-185788842D01*
X886708207Y-185788842D02*
X886646302Y-185726938D01*
X886646302Y-185726938D02*
X886584398Y-185603128D01*
X886584398Y-185603128D02*
X886584398Y-185541223D01*
X886584398Y-185541223D02*
X886646302Y-185417414D01*
X886646302Y-185417414D02*
X886708207Y-185355509D01*
X886708207Y-185355509D02*
X886832017Y-185293604D01*
X886832017Y-185293604D02*
X887079636Y-185293604D01*
X887079636Y-185293604D02*
X887203445Y-185355509D01*
X887203445Y-185355509D02*
X887265350Y-185417414D01*
X887265350Y-185417414D02*
X887327255Y-185541223D01*
X887327255Y-185541223D02*
X887327255Y-185603128D01*
X887327255Y-185603128D02*
X887265350Y-185726938D01*
X887265350Y-185726938D02*
X887203445Y-185788842D01*
X887203445Y-185788842D02*
X887079636Y-185850747D01*
X887079636Y-185850747D02*
X886832017Y-185850747D01*
X886832017Y-185850747D02*
X886708207Y-185912652D01*
X886708207Y-185912652D02*
X886646302Y-185974557D01*
X886646302Y-185974557D02*
X886584398Y-186098366D01*
X886584398Y-186098366D02*
X886584398Y-186345985D01*
X886584398Y-186345985D02*
X886646302Y-186469795D01*
X886646302Y-186469795D02*
X886708207Y-186531700D01*
X886708207Y-186531700D02*
X886832017Y-186593604D01*
X886832017Y-186593604D02*
X887079636Y-186593604D01*
X887079636Y-186593604D02*
X887203445Y-186531700D01*
X887203445Y-186531700D02*
X887265350Y-186469795D01*
X887265350Y-186469795D02*
X887327255Y-186345985D01*
X887327255Y-186345985D02*
X887327255Y-186098366D01*
X887327255Y-186098366D02*
X887265350Y-185974557D01*
X887265350Y-185974557D02*
X887203445Y-185912652D01*
X887203445Y-185912652D02*
X887079636Y-185850747D01*
D10*
D11*
X936089160Y-186593604D02*
X935346303Y-186593604D01*
X935717731Y-186593604D02*
X935717731Y-185293604D01*
X935717731Y-185293604D02*
X935593922Y-185479319D01*
X935593922Y-185479319D02*
X935470112Y-185603128D01*
X935470112Y-185603128D02*
X935346303Y-185665033D01*
X936708207Y-186593604D02*
X936955826Y-186593604D01*
X936955826Y-186593604D02*
X937079636Y-186531700D01*
X937079636Y-186531700D02*
X937141540Y-186469795D01*
X937141540Y-186469795D02*
X937265350Y-186284080D01*
X937265350Y-186284080D02*
X937327255Y-186036461D01*
X937327255Y-186036461D02*
X937327255Y-185541223D01*
X937327255Y-185541223D02*
X937265350Y-185417414D01*
X937265350Y-185417414D02*
X937203445Y-185355509D01*
X937203445Y-185355509D02*
X937079636Y-185293604D01*
X937079636Y-185293604D02*
X936832017Y-185293604D01*
X936832017Y-185293604D02*
X936708207Y-185355509D01*
X936708207Y-185355509D02*
X936646302Y-185417414D01*
X936646302Y-185417414D02*
X936584398Y-185541223D01*
X936584398Y-185541223D02*
X936584398Y-185850747D01*
X936584398Y-185850747D02*
X936646302Y-185974557D01*
X936646302Y-185974557D02*
X936708207Y-186036461D01*
X936708207Y-186036461D02*
X936832017Y-186098366D01*
X936832017Y-186098366D02*
X937079636Y-186098366D01*
X937079636Y-186098366D02*
X937203445Y-186036461D01*
X937203445Y-186036461D02*
X937265350Y-185974557D01*
X937265350Y-185974557D02*
X937327255Y-185850747D01*
D10*
D11*
X985346303Y-185417414D02*
X985408207Y-185355509D01*
X985408207Y-185355509D02*
X985532017Y-185293604D01*
X985532017Y-185293604D02*
X985841541Y-185293604D01*
X985841541Y-185293604D02*
X985965350Y-185355509D01*
X985965350Y-185355509D02*
X986027255Y-185417414D01*
X986027255Y-185417414D02*
X986089160Y-185541223D01*
X986089160Y-185541223D02*
X986089160Y-185665033D01*
X986089160Y-185665033D02*
X986027255Y-185850747D01*
X986027255Y-185850747D02*
X985284398Y-186593604D01*
X985284398Y-186593604D02*
X986089160Y-186593604D01*
X986893921Y-185293604D02*
X987017731Y-185293604D01*
X987017731Y-185293604D02*
X987141540Y-185355509D01*
X987141540Y-185355509D02*
X987203445Y-185417414D01*
X987203445Y-185417414D02*
X987265350Y-185541223D01*
X987265350Y-185541223D02*
X987327255Y-185788842D01*
X987327255Y-185788842D02*
X987327255Y-186098366D01*
X987327255Y-186098366D02*
X987265350Y-186345985D01*
X987265350Y-186345985D02*
X987203445Y-186469795D01*
X987203445Y-186469795D02*
X987141540Y-186531700D01*
X987141540Y-186531700D02*
X987017731Y-186593604D01*
X987017731Y-186593604D02*
X986893921Y-186593604D01*
X986893921Y-186593604D02*
X986770112Y-186531700D01*
X986770112Y-186531700D02*
X986708207Y-186469795D01*
X986708207Y-186469795D02*
X986646302Y-186345985D01*
X986646302Y-186345985D02*
X986584398Y-186098366D01*
X986584398Y-186098366D02*
X986584398Y-185788842D01*
X986584398Y-185788842D02*
X986646302Y-185541223D01*
X986646302Y-185541223D02*
X986708207Y-185417414D01*
X986708207Y-185417414D02*
X986770112Y-185355509D01*
X986770112Y-185355509D02*
X986893921Y-185293604D01*
D10*
D11*
X1035346303Y-185417414D02*
X1035408207Y-185355509D01*
X1035408207Y-185355509D02*
X1035532017Y-185293604D01*
X1035532017Y-185293604D02*
X1035841541Y-185293604D01*
X1035841541Y-185293604D02*
X1035965350Y-185355509D01*
X1035965350Y-185355509D02*
X1036027255Y-185417414D01*
X1036027255Y-185417414D02*
X1036089160Y-185541223D01*
X1036089160Y-185541223D02*
X1036089160Y-185665033D01*
X1036089160Y-185665033D02*
X1036027255Y-185850747D01*
X1036027255Y-185850747D02*
X1035284398Y-186593604D01*
X1035284398Y-186593604D02*
X1036089160Y-186593604D01*
X1037327255Y-186593604D02*
X1036584398Y-186593604D01*
X1036955826Y-186593604D02*
X1036955826Y-185293604D01*
X1036955826Y-185293604D02*
X1036832017Y-185479319D01*
X1036832017Y-185479319D02*
X1036708207Y-185603128D01*
X1036708207Y-185603128D02*
X1036584398Y-185665033D01*
D10*
D11*
X1085346303Y-185417414D02*
X1085408207Y-185355509D01*
X1085408207Y-185355509D02*
X1085532017Y-185293604D01*
X1085532017Y-185293604D02*
X1085841541Y-185293604D01*
X1085841541Y-185293604D02*
X1085965350Y-185355509D01*
X1085965350Y-185355509D02*
X1086027255Y-185417414D01*
X1086027255Y-185417414D02*
X1086089160Y-185541223D01*
X1086089160Y-185541223D02*
X1086089160Y-185665033D01*
X1086089160Y-185665033D02*
X1086027255Y-185850747D01*
X1086027255Y-185850747D02*
X1085284398Y-186593604D01*
X1085284398Y-186593604D02*
X1086089160Y-186593604D01*
X1086584398Y-185417414D02*
X1086646302Y-185355509D01*
X1086646302Y-185355509D02*
X1086770112Y-185293604D01*
X1086770112Y-185293604D02*
X1087079636Y-185293604D01*
X1087079636Y-185293604D02*
X1087203445Y-185355509D01*
X1087203445Y-185355509D02*
X1087265350Y-185417414D01*
X1087265350Y-185417414D02*
X1087327255Y-185541223D01*
X1087327255Y-185541223D02*
X1087327255Y-185665033D01*
X1087327255Y-185665033D02*
X1087265350Y-185850747D01*
X1087265350Y-185850747D02*
X1086522493Y-186593604D01*
X1086522493Y-186593604D02*
X1087327255Y-186593604D01*
D10*
D11*
X1135346303Y-185417414D02*
X1135408207Y-185355509D01*
X1135408207Y-185355509D02*
X1135532017Y-185293604D01*
X1135532017Y-185293604D02*
X1135841541Y-185293604D01*
X1135841541Y-185293604D02*
X1135965350Y-185355509D01*
X1135965350Y-185355509D02*
X1136027255Y-185417414D01*
X1136027255Y-185417414D02*
X1136089160Y-185541223D01*
X1136089160Y-185541223D02*
X1136089160Y-185665033D01*
X1136089160Y-185665033D02*
X1136027255Y-185850747D01*
X1136027255Y-185850747D02*
X1135284398Y-186593604D01*
X1135284398Y-186593604D02*
X1136089160Y-186593604D01*
X1136522493Y-185293604D02*
X1137327255Y-185293604D01*
X1137327255Y-185293604D02*
X1136893921Y-185788842D01*
X1136893921Y-185788842D02*
X1137079636Y-185788842D01*
X1137079636Y-185788842D02*
X1137203445Y-185850747D01*
X1137203445Y-185850747D02*
X1137265350Y-185912652D01*
X1137265350Y-185912652D02*
X1137327255Y-186036461D01*
X1137327255Y-186036461D02*
X1137327255Y-186345985D01*
X1137327255Y-186345985D02*
X1137265350Y-186469795D01*
X1137265350Y-186469795D02*
X1137203445Y-186531700D01*
X1137203445Y-186531700D02*
X1137079636Y-186593604D01*
X1137079636Y-186593604D02*
X1136708207Y-186593604D01*
X1136708207Y-186593604D02*
X1136584398Y-186531700D01*
X1136584398Y-186531700D02*
X1136522493Y-186469795D01*
D10*
D11*
X1185346303Y-185417414D02*
X1185408207Y-185355509D01*
X1185408207Y-185355509D02*
X1185532017Y-185293604D01*
X1185532017Y-185293604D02*
X1185841541Y-185293604D01*
X1185841541Y-185293604D02*
X1185965350Y-185355509D01*
X1185965350Y-185355509D02*
X1186027255Y-185417414D01*
X1186027255Y-185417414D02*
X1186089160Y-185541223D01*
X1186089160Y-185541223D02*
X1186089160Y-185665033D01*
X1186089160Y-185665033D02*
X1186027255Y-185850747D01*
X1186027255Y-185850747D02*
X1185284398Y-186593604D01*
X1185284398Y-186593604D02*
X1186089160Y-186593604D01*
X1187203445Y-185726938D02*
X1187203445Y-186593604D01*
X1186893921Y-185231700D02*
X1186584398Y-186160271D01*
X1186584398Y-186160271D02*
X1187389159Y-186160271D01*
D10*
D11*
X10000000Y-60000000D02*
X12000000Y-60000000D01*
D10*
D11*
X10000000Y-110000000D02*
X12000000Y-110000000D01*
D10*
D11*
X10000000Y-160000000D02*
X12000000Y-160000000D01*
D10*
D11*
X10690476Y-35222176D02*
X11309523Y-35222176D01*
X10566666Y-35593604D02*
X10999999Y-34293604D01*
X10999999Y-34293604D02*
X11433333Y-35593604D01*
D10*
D11*
X11092857Y-84912652D02*
X11278571Y-84974557D01*
X11278571Y-84974557D02*
X11340476Y-85036461D01*
X11340476Y-85036461D02*
X11402380Y-85160271D01*
X11402380Y-85160271D02*
X11402380Y-85345985D01*
X11402380Y-85345985D02*
X11340476Y-85469795D01*
X11340476Y-85469795D02*
X11278571Y-85531700D01*
X11278571Y-85531700D02*
X11154761Y-85593604D01*
X11154761Y-85593604D02*
X10659523Y-85593604D01*
X10659523Y-85593604D02*
X10659523Y-84293604D01*
X10659523Y-84293604D02*
X11092857Y-84293604D01*
X11092857Y-84293604D02*
X11216666Y-84355509D01*
X11216666Y-84355509D02*
X11278571Y-84417414D01*
X11278571Y-84417414D02*
X11340476Y-84541223D01*
X11340476Y-84541223D02*
X11340476Y-84665033D01*
X11340476Y-84665033D02*
X11278571Y-84788842D01*
X11278571Y-84788842D02*
X11216666Y-84850747D01*
X11216666Y-84850747D02*
X11092857Y-84912652D01*
X11092857Y-84912652D02*
X10659523Y-84912652D01*
D10*
D11*
X11402380Y-135469795D02*
X11340476Y-135531700D01*
X11340476Y-135531700D02*
X11154761Y-135593604D01*
X11154761Y-135593604D02*
X11030952Y-135593604D01*
X11030952Y-135593604D02*
X10845238Y-135531700D01*
X10845238Y-135531700D02*
X10721428Y-135407890D01*
X10721428Y-135407890D02*
X10659523Y-135284080D01*
X10659523Y-135284080D02*
X10597619Y-135036461D01*
X10597619Y-135036461D02*
X10597619Y-134850747D01*
X10597619Y-134850747D02*
X10659523Y-134603128D01*
X10659523Y-134603128D02*
X10721428Y-134479319D01*
X10721428Y-134479319D02*
X10845238Y-134355509D01*
X10845238Y-134355509D02*
X11030952Y-134293604D01*
X11030952Y-134293604D02*
X11154761Y-134293604D01*
X11154761Y-134293604D02*
X11340476Y-134355509D01*
X11340476Y-134355509D02*
X11402380Y-134417414D01*
D10*
D11*
X10659523Y-185593604D02*
X10659523Y-184293604D01*
X10659523Y-184293604D02*
X10969047Y-184293604D01*
X10969047Y-184293604D02*
X11154761Y-184355509D01*
X11154761Y-184355509D02*
X11278571Y-184479319D01*
X11278571Y-184479319D02*
X11340476Y-184603128D01*
X11340476Y-184603128D02*
X11402380Y-184850747D01*
X11402380Y-184850747D02*
X11402380Y-185036461D01*
X11402380Y-185036461D02*
X11340476Y-185284080D01*
X11340476Y-185284080D02*
X11278571Y-185407890D01*
X11278571Y-185407890D02*
X11154761Y-185531700D01*
X11154761Y-185531700D02*
X10969047Y-185593604D01*
X10969047Y-185593604D02*
X10659523Y-185593604D01*
D10*
D11*
X1209000000Y-60000000D02*
X1207000000Y-60000000D01*
D10*
D11*
X1209000000Y-110000000D02*
X1207000000Y-110000000D01*
D10*
D11*
X1209000000Y-160000000D02*
X1207000000Y-160000000D01*
D10*
D11*
X1207690476Y-35222176D02*
X1208309523Y-35222176D01*
X1207566666Y-35593604D02*
X1207999999Y-34293604D01*
X1207999999Y-34293604D02*
X1208433333Y-35593604D01*
D10*
D11*
X1208092857Y-84912652D02*
X1208278571Y-84974557D01*
X1208278571Y-84974557D02*
X1208340476Y-85036461D01*
X1208340476Y-85036461D02*
X1208402380Y-85160271D01*
X1208402380Y-85160271D02*
X1208402380Y-85345985D01*
X1208402380Y-85345985D02*
X1208340476Y-85469795D01*
X1208340476Y-85469795D02*
X1208278571Y-85531700D01*
X1208278571Y-85531700D02*
X1208154761Y-85593604D01*
X1208154761Y-85593604D02*
X1207659523Y-85593604D01*
X1207659523Y-85593604D02*
X1207659523Y-84293604D01*
X1207659523Y-84293604D02*
X1208092857Y-84293604D01*
X1208092857Y-84293604D02*
X1208216666Y-84355509D01*
X1208216666Y-84355509D02*
X1208278571Y-84417414D01*
X1208278571Y-84417414D02*
X1208340476Y-84541223D01*
X1208340476Y-84541223D02*
X1208340476Y-84665033D01*
X1208340476Y-84665033D02*
X1208278571Y-84788842D01*
X1208278571Y-84788842D02*
X1208216666Y-84850747D01*
X1208216666Y-84850747D02*
X1208092857Y-84912652D01*
X1208092857Y-84912652D02*
X1207659523Y-84912652D01*
D10*
D11*
X1208402380Y-135469795D02*
X1208340476Y-135531700D01*
X1208340476Y-135531700D02*
X1208154761Y-135593604D01*
X1208154761Y-135593604D02*
X1208030952Y-135593604D01*
X1208030952Y-135593604D02*
X1207845238Y-135531700D01*
X1207845238Y-135531700D02*
X1207721428Y-135407890D01*
X1207721428Y-135407890D02*
X1207659523Y-135284080D01*
X1207659523Y-135284080D02*
X1207597619Y-135036461D01*
X1207597619Y-135036461D02*
X1207597619Y-134850747D01*
X1207597619Y-134850747D02*
X1207659523Y-134603128D01*
X1207659523Y-134603128D02*
X1207721428Y-134479319D01*
X1207721428Y-134479319D02*
X1207845238Y-134355509D01*
X1207845238Y-134355509D02*
X1208030952Y-134293604D01*
X1208030952Y-134293604D02*
X1208154761Y-134293604D01*
X1208154761Y-134293604D02*
X1208340476Y-134355509D01*
X1208340476Y-134355509D02*
X1208402380Y-134417414D01*
D10*
D11*
X1207659523Y-185593604D02*
X1207659523Y-184293604D01*
X1207659523Y-184293604D02*
X1207969047Y-184293604D01*
X1207969047Y-184293604D02*
X1208154761Y-184355509D01*
X1208154761Y-184355509D02*
X1208278571Y-184479319D01*
X1208278571Y-184479319D02*
X1208340476Y-184603128D01*
X1208340476Y-184603128D02*
X1208402380Y-184850747D01*
X1208402380Y-184850747D02*
X1208402380Y-185036461D01*
X1208402380Y-185036461D02*
X1208340476Y-185284080D01*
X1208340476Y-185284080D02*
X1208278571Y-185407890D01*
X1208278571Y-185407890D02*
X1208154761Y-185531700D01*
X1208154761Y-185531700D02*
X1207969047Y-185593604D01*
X1207969047Y-185593604D02*
X1207659523Y-185593604D01*
D10*
D11*
X1122455826Y-180786128D02*
X1122455826Y-179286128D01*
X1122455826Y-179286128D02*
X1122812969Y-179286128D01*
X1122812969Y-179286128D02*
X1123027255Y-179357557D01*
X1123027255Y-179357557D02*
X1123170112Y-179500414D01*
X1123170112Y-179500414D02*
X1123241541Y-179643271D01*
X1123241541Y-179643271D02*
X1123312969Y-179928985D01*
X1123312969Y-179928985D02*
X1123312969Y-180143271D01*
X1123312969Y-180143271D02*
X1123241541Y-180428985D01*
X1123241541Y-180428985D02*
X1123170112Y-180571842D01*
X1123170112Y-180571842D02*
X1123027255Y-180714700D01*
X1123027255Y-180714700D02*
X1122812969Y-180786128D01*
X1122812969Y-180786128D02*
X1122455826Y-180786128D01*
X1124598684Y-180786128D02*
X1124598684Y-180000414D01*
X1124598684Y-180000414D02*
X1124527255Y-179857557D01*
X1124527255Y-179857557D02*
X1124384398Y-179786128D01*
X1124384398Y-179786128D02*
X1124098684Y-179786128D01*
X1124098684Y-179786128D02*
X1123955826Y-179857557D01*
X1124598684Y-180714700D02*
X1124455826Y-180786128D01*
X1124455826Y-180786128D02*
X1124098684Y-180786128D01*
X1124098684Y-180786128D02*
X1123955826Y-180714700D01*
X1123955826Y-180714700D02*
X1123884398Y-180571842D01*
X1123884398Y-180571842D02*
X1123884398Y-180428985D01*
X1123884398Y-180428985D02*
X1123955826Y-180286128D01*
X1123955826Y-180286128D02*
X1124098684Y-180214700D01*
X1124098684Y-180214700D02*
X1124455826Y-180214700D01*
X1124455826Y-180214700D02*
X1124598684Y-180143271D01*
X1125098684Y-179786128D02*
X1125670112Y-179786128D01*
X1125312969Y-179286128D02*
X1125312969Y-180571842D01*
X1125312969Y-180571842D02*
X1125384398Y-180714700D01*
X1125384398Y-180714700D02*
X1125527255Y-180786128D01*
X1125527255Y-180786128D02*
X1125670112Y-180786128D01*
X1126741541Y-180714700D02*
X1126598684Y-180786128D01*
X1126598684Y-180786128D02*
X1126312970Y-180786128D01*
X1126312970Y-180786128D02*
X1126170112Y-180714700D01*
X1126170112Y-180714700D02*
X1126098684Y-180571842D01*
X1126098684Y-180571842D02*
X1126098684Y-180000414D01*
X1126098684Y-180000414D02*
X1126170112Y-179857557D01*
X1126170112Y-179857557D02*
X1126312970Y-179786128D01*
X1126312970Y-179786128D02*
X1126598684Y-179786128D01*
X1126598684Y-179786128D02*
X1126741541Y-179857557D01*
X1126741541Y-179857557D02*
X1126812970Y-180000414D01*
X1126812970Y-180000414D02*
X1126812970Y-180143271D01*
X1126812970Y-180143271D02*
X1126098684Y-180286128D01*
X1127455826Y-180643271D02*
X1127527255Y-180714700D01*
X1127527255Y-180714700D02*
X1127455826Y-180786128D01*
X1127455826Y-180786128D02*
X1127384398Y-180714700D01*
X1127384398Y-180714700D02*
X1127455826Y-180643271D01*
X1127455826Y-180643271D02*
X1127455826Y-180786128D01*
X1127455826Y-179857557D02*
X1127527255Y-179928985D01*
X1127527255Y-179928985D02*
X1127455826Y-180000414D01*
X1127455826Y-180000414D02*
X1127384398Y-179928985D01*
X1127384398Y-179928985D02*
X1127455826Y-179857557D01*
X1127455826Y-179857557D02*
X1127455826Y-180000414D01*
D10*
D11*
X1099000000Y-181500000D02*
X1207000000Y-181500000D01*
D10*
D11*
X1100455826Y-183586128D02*
X1100455826Y-182086128D01*
X1101312969Y-183586128D02*
X1100670112Y-182728985D01*
X1101312969Y-182086128D02*
X1100455826Y-182943271D01*
X1101955826Y-183586128D02*
X1101955826Y-182586128D01*
X1101955826Y-182086128D02*
X1101884398Y-182157557D01*
X1101884398Y-182157557D02*
X1101955826Y-182228985D01*
X1101955826Y-182228985D02*
X1102027255Y-182157557D01*
X1102027255Y-182157557D02*
X1101955826Y-182086128D01*
X1101955826Y-182086128D02*
X1101955826Y-182228985D01*
X1103527255Y-183443271D02*
X1103455827Y-183514700D01*
X1103455827Y-183514700D02*
X1103241541Y-183586128D01*
X1103241541Y-183586128D02*
X1103098684Y-183586128D01*
X1103098684Y-183586128D02*
X1102884398Y-183514700D01*
X1102884398Y-183514700D02*
X1102741541Y-183371842D01*
X1102741541Y-183371842D02*
X1102670112Y-183228985D01*
X1102670112Y-183228985D02*
X1102598684Y-182943271D01*
X1102598684Y-182943271D02*
X1102598684Y-182728985D01*
X1102598684Y-182728985D02*
X1102670112Y-182443271D01*
X1102670112Y-182443271D02*
X1102741541Y-182300414D01*
X1102741541Y-182300414D02*
X1102884398Y-182157557D01*
X1102884398Y-182157557D02*
X1103098684Y-182086128D01*
X1103098684Y-182086128D02*
X1103241541Y-182086128D01*
X1103241541Y-182086128D02*
X1103455827Y-182157557D01*
X1103455827Y-182157557D02*
X1103527255Y-182228985D01*
X1104812970Y-183586128D02*
X1104812970Y-182800414D01*
X1104812970Y-182800414D02*
X1104741541Y-182657557D01*
X1104741541Y-182657557D02*
X1104598684Y-182586128D01*
X1104598684Y-182586128D02*
X1104312970Y-182586128D01*
X1104312970Y-182586128D02*
X1104170112Y-182657557D01*
X1104812970Y-183514700D02*
X1104670112Y-183586128D01*
X1104670112Y-183586128D02*
X1104312970Y-183586128D01*
X1104312970Y-183586128D02*
X1104170112Y-183514700D01*
X1104170112Y-183514700D02*
X1104098684Y-183371842D01*
X1104098684Y-183371842D02*
X1104098684Y-183228985D01*
X1104098684Y-183228985D02*
X1104170112Y-183086128D01*
X1104170112Y-183086128D02*
X1104312970Y-183014700D01*
X1104312970Y-183014700D02*
X1104670112Y-183014700D01*
X1104670112Y-183014700D02*
X1104812970Y-182943271D01*
X1106170113Y-183586128D02*
X1106170113Y-182086128D01*
X1106170113Y-183514700D02*
X1106027255Y-183586128D01*
X1106027255Y-183586128D02*
X1105741541Y-183586128D01*
X1105741541Y-183586128D02*
X1105598684Y-183514700D01*
X1105598684Y-183514700D02*
X1105527255Y-183443271D01*
X1105527255Y-183443271D02*
X1105455827Y-183300414D01*
X1105455827Y-183300414D02*
X1105455827Y-182871842D01*
X1105455827Y-182871842D02*
X1105527255Y-182728985D01*
X1105527255Y-182728985D02*
X1105598684Y-182657557D01*
X1105598684Y-182657557D02*
X1105741541Y-182586128D01*
X1105741541Y-182586128D02*
X1106027255Y-182586128D01*
X1106027255Y-182586128D02*
X1106170113Y-182657557D01*
X1108027255Y-182800414D02*
X1108527255Y-182800414D01*
X1108741541Y-183586128D02*
X1108027255Y-183586128D01*
X1108027255Y-183586128D02*
X1108027255Y-182086128D01*
X1108027255Y-182086128D02*
X1108741541Y-182086128D01*
X1109384398Y-183443271D02*
X1109455827Y-183514700D01*
X1109455827Y-183514700D02*
X1109384398Y-183586128D01*
X1109384398Y-183586128D02*
X1109312970Y-183514700D01*
X1109312970Y-183514700D02*
X1109384398Y-183443271D01*
X1109384398Y-183443271D02*
X1109384398Y-183586128D01*
X1110098684Y-183586128D02*
X1110098684Y-182086128D01*
X1110098684Y-182086128D02*
X1110455827Y-182086128D01*
X1110455827Y-182086128D02*
X1110670113Y-182157557D01*
X1110670113Y-182157557D02*
X1110812970Y-182300414D01*
X1110812970Y-182300414D02*
X1110884399Y-182443271D01*
X1110884399Y-182443271D02*
X1110955827Y-182728985D01*
X1110955827Y-182728985D02*
X1110955827Y-182943271D01*
X1110955827Y-182943271D02*
X1110884399Y-183228985D01*
X1110884399Y-183228985D02*
X1110812970Y-183371842D01*
X1110812970Y-183371842D02*
X1110670113Y-183514700D01*
X1110670113Y-183514700D02*
X1110455827Y-183586128D01*
X1110455827Y-183586128D02*
X1110098684Y-183586128D01*
X1111598684Y-183443271D02*
X1111670113Y-183514700D01*
X1111670113Y-183514700D02*
X1111598684Y-183586128D01*
X1111598684Y-183586128D02*
X1111527256Y-183514700D01*
X1111527256Y-183514700D02*
X1111598684Y-183443271D01*
X1111598684Y-183443271D02*
X1111598684Y-183586128D01*
X1112241542Y-183157557D02*
X1112955828Y-183157557D01*
X1112098685Y-183586128D02*
X1112598685Y-182086128D01*
X1112598685Y-182086128D02*
X1113098685Y-183586128D01*
X1113598684Y-183443271D02*
X1113670113Y-183514700D01*
X1113670113Y-183514700D02*
X1113598684Y-183586128D01*
X1113598684Y-183586128D02*
X1113527256Y-183514700D01*
X1113527256Y-183514700D02*
X1113598684Y-183443271D01*
X1113598684Y-183443271D02*
X1113598684Y-183586128D01*
X1115670113Y-182728985D02*
X1115527256Y-182657557D01*
X1115527256Y-182657557D02*
X1115455827Y-182586128D01*
X1115455827Y-182586128D02*
X1115384399Y-182443271D01*
X1115384399Y-182443271D02*
X1115384399Y-182371842D01*
X1115384399Y-182371842D02*
X1115455827Y-182228985D01*
X1115455827Y-182228985D02*
X1115527256Y-182157557D01*
X1115527256Y-182157557D02*
X1115670113Y-182086128D01*
X1115670113Y-182086128D02*
X1115955827Y-182086128D01*
X1115955827Y-182086128D02*
X1116098685Y-182157557D01*
X1116098685Y-182157557D02*
X1116170113Y-182228985D01*
X1116170113Y-182228985D02*
X1116241542Y-182371842D01*
X1116241542Y-182371842D02*
X1116241542Y-182443271D01*
X1116241542Y-182443271D02*
X1116170113Y-182586128D01*
X1116170113Y-182586128D02*
X1116098685Y-182657557D01*
X1116098685Y-182657557D02*
X1115955827Y-182728985D01*
X1115955827Y-182728985D02*
X1115670113Y-182728985D01*
X1115670113Y-182728985D02*
X1115527256Y-182800414D01*
X1115527256Y-182800414D02*
X1115455827Y-182871842D01*
X1115455827Y-182871842D02*
X1115384399Y-183014700D01*
X1115384399Y-183014700D02*
X1115384399Y-183300414D01*
X1115384399Y-183300414D02*
X1115455827Y-183443271D01*
X1115455827Y-183443271D02*
X1115527256Y-183514700D01*
X1115527256Y-183514700D02*
X1115670113Y-183586128D01*
X1115670113Y-183586128D02*
X1115955827Y-183586128D01*
X1115955827Y-183586128D02*
X1116098685Y-183514700D01*
X1116098685Y-183514700D02*
X1116170113Y-183443271D01*
X1116170113Y-183443271D02*
X1116241542Y-183300414D01*
X1116241542Y-183300414D02*
X1116241542Y-183014700D01*
X1116241542Y-183014700D02*
X1116170113Y-182871842D01*
X1116170113Y-182871842D02*
X1116098685Y-182800414D01*
X1116098685Y-182800414D02*
X1115955827Y-182728985D01*
X1116884398Y-183443271D02*
X1116955827Y-183514700D01*
X1116955827Y-183514700D02*
X1116884398Y-183586128D01*
X1116884398Y-183586128D02*
X1116812970Y-183514700D01*
X1116812970Y-183514700D02*
X1116884398Y-183443271D01*
X1116884398Y-183443271D02*
X1116884398Y-183586128D01*
X1117884399Y-182086128D02*
X1118027256Y-182086128D01*
X1118027256Y-182086128D02*
X1118170113Y-182157557D01*
X1118170113Y-182157557D02*
X1118241542Y-182228985D01*
X1118241542Y-182228985D02*
X1118312970Y-182371842D01*
X1118312970Y-182371842D02*
X1118384399Y-182657557D01*
X1118384399Y-182657557D02*
X1118384399Y-183014700D01*
X1118384399Y-183014700D02*
X1118312970Y-183300414D01*
X1118312970Y-183300414D02*
X1118241542Y-183443271D01*
X1118241542Y-183443271D02*
X1118170113Y-183514700D01*
X1118170113Y-183514700D02*
X1118027256Y-183586128D01*
X1118027256Y-183586128D02*
X1117884399Y-183586128D01*
X1117884399Y-183586128D02*
X1117741542Y-183514700D01*
X1117741542Y-183514700D02*
X1117670113Y-183443271D01*
X1117670113Y-183443271D02*
X1117598684Y-183300414D01*
X1117598684Y-183300414D02*
X1117527256Y-183014700D01*
X1117527256Y-183014700D02*
X1117527256Y-182657557D01*
X1117527256Y-182657557D02*
X1117598684Y-182371842D01*
X1117598684Y-182371842D02*
X1117670113Y-182228985D01*
X1117670113Y-182228985D02*
X1117741542Y-182157557D01*
X1117741542Y-182157557D02*
X1117884399Y-182086128D01*
X1119027255Y-183443271D02*
X1119098684Y-183514700D01*
X1119098684Y-183514700D02*
X1119027255Y-183586128D01*
X1119027255Y-183586128D02*
X1118955827Y-183514700D01*
X1118955827Y-183514700D02*
X1119027255Y-183443271D01*
X1119027255Y-183443271D02*
X1119027255Y-183586128D01*
X1120384399Y-182086128D02*
X1120098684Y-182086128D01*
X1120098684Y-182086128D02*
X1119955827Y-182157557D01*
X1119955827Y-182157557D02*
X1119884399Y-182228985D01*
X1119884399Y-182228985D02*
X1119741541Y-182443271D01*
X1119741541Y-182443271D02*
X1119670113Y-182728985D01*
X1119670113Y-182728985D02*
X1119670113Y-183300414D01*
X1119670113Y-183300414D02*
X1119741541Y-183443271D01*
X1119741541Y-183443271D02*
X1119812970Y-183514700D01*
X1119812970Y-183514700D02*
X1119955827Y-183586128D01*
X1119955827Y-183586128D02*
X1120241541Y-183586128D01*
X1120241541Y-183586128D02*
X1120384399Y-183514700D01*
X1120384399Y-183514700D02*
X1120455827Y-183443271D01*
X1120455827Y-183443271D02*
X1120527256Y-183300414D01*
X1120527256Y-183300414D02*
X1120527256Y-182943271D01*
X1120527256Y-182943271D02*
X1120455827Y-182800414D01*
X1120455827Y-182800414D02*
X1120384399Y-182728985D01*
X1120384399Y-182728985D02*
X1120241541Y-182657557D01*
X1120241541Y-182657557D02*
X1119955827Y-182657557D01*
X1119955827Y-182657557D02*
X1119812970Y-182728985D01*
X1119812970Y-182728985D02*
X1119741541Y-182800414D01*
X1119741541Y-182800414D02*
X1119670113Y-182943271D01*
D10*
D11*
X1099000000Y-178500000D02*
X1207000000Y-178500000D01*
D10*
D12*
X1186411653Y-180778328D02*
X1185911653Y-180064042D01*
X1185554510Y-180778328D02*
X1185554510Y-179278328D01*
X1185554510Y-179278328D02*
X1186125939Y-179278328D01*
X1186125939Y-179278328D02*
X1186268796Y-179349757D01*
X1186268796Y-179349757D02*
X1186340225Y-179421185D01*
X1186340225Y-179421185D02*
X1186411653Y-179564042D01*
X1186411653Y-179564042D02*
X1186411653Y-179778328D01*
X1186411653Y-179778328D02*
X1186340225Y-179921185D01*
X1186340225Y-179921185D02*
X1186268796Y-179992614D01*
X1186268796Y-179992614D02*
X1186125939Y-180064042D01*
X1186125939Y-180064042D02*
X1185554510Y-180064042D01*
X1187625939Y-180706900D02*
X1187483082Y-180778328D01*
X1187483082Y-180778328D02*
X1187197368Y-180778328D01*
X1187197368Y-180778328D02*
X1187054510Y-180706900D01*
X1187054510Y-180706900D02*
X1186983082Y-180564042D01*
X1186983082Y-180564042D02*
X1186983082Y-179992614D01*
X1186983082Y-179992614D02*
X1187054510Y-179849757D01*
X1187054510Y-179849757D02*
X1187197368Y-179778328D01*
X1187197368Y-179778328D02*
X1187483082Y-179778328D01*
X1187483082Y-179778328D02*
X1187625939Y-179849757D01*
X1187625939Y-179849757D02*
X1187697368Y-179992614D01*
X1187697368Y-179992614D02*
X1187697368Y-180135471D01*
X1187697368Y-180135471D02*
X1186983082Y-180278328D01*
X1188197367Y-179778328D02*
X1188554510Y-180778328D01*
X1188554510Y-180778328D02*
X1188911653Y-179778328D01*
X1189483081Y-180635471D02*
X1189554510Y-180706900D01*
X1189554510Y-180706900D02*
X1189483081Y-180778328D01*
X1189483081Y-180778328D02*
X1189411653Y-180706900D01*
X1189411653Y-180706900D02*
X1189483081Y-180635471D01*
X1189483081Y-180635471D02*
X1189483081Y-180778328D01*
X1189483081Y-179849757D02*
X1189554510Y-179921185D01*
X1189554510Y-179921185D02*
X1189483081Y-179992614D01*
X1189483081Y-179992614D02*
X1189411653Y-179921185D01*
X1189411653Y-179921185D02*
X1189483081Y-179849757D01*
X1189483081Y-179849757D02*
X1189483081Y-179992614D01*
D10*
D11*
X1100384398Y-180714700D02*
X1100598684Y-180786128D01*
X1100598684Y-180786128D02*
X1100955826Y-180786128D01*
X1100955826Y-180786128D02*
X1101098684Y-180714700D01*
X1101098684Y-180714700D02*
X1101170112Y-180643271D01*
X1101170112Y-180643271D02*
X1101241541Y-180500414D01*
X1101241541Y-180500414D02*
X1101241541Y-180357557D01*
X1101241541Y-180357557D02*
X1101170112Y-180214700D01*
X1101170112Y-180214700D02*
X1101098684Y-180143271D01*
X1101098684Y-180143271D02*
X1100955826Y-180071842D01*
X1100955826Y-180071842D02*
X1100670112Y-180000414D01*
X1100670112Y-180000414D02*
X1100527255Y-179928985D01*
X1100527255Y-179928985D02*
X1100455826Y-179857557D01*
X1100455826Y-179857557D02*
X1100384398Y-179714700D01*
X1100384398Y-179714700D02*
X1100384398Y-179571842D01*
X1100384398Y-179571842D02*
X1100455826Y-179428985D01*
X1100455826Y-179428985D02*
X1100527255Y-179357557D01*
X1100527255Y-179357557D02*
X1100670112Y-179286128D01*
X1100670112Y-179286128D02*
X1101027255Y-179286128D01*
X1101027255Y-179286128D02*
X1101241541Y-179357557D01*
X1101884397Y-180786128D02*
X1101884397Y-179786128D01*
X1101884397Y-179286128D02*
X1101812969Y-179357557D01*
X1101812969Y-179357557D02*
X1101884397Y-179428985D01*
X1101884397Y-179428985D02*
X1101955826Y-179357557D01*
X1101955826Y-179357557D02*
X1101884397Y-179286128D01*
X1101884397Y-179286128D02*
X1101884397Y-179428985D01*
X1102455826Y-179786128D02*
X1103241541Y-179786128D01*
X1103241541Y-179786128D02*
X1102455826Y-180786128D01*
X1102455826Y-180786128D02*
X1103241541Y-180786128D01*
X1104384398Y-180714700D02*
X1104241541Y-180786128D01*
X1104241541Y-180786128D02*
X1103955827Y-180786128D01*
X1103955827Y-180786128D02*
X1103812969Y-180714700D01*
X1103812969Y-180714700D02*
X1103741541Y-180571842D01*
X1103741541Y-180571842D02*
X1103741541Y-180000414D01*
X1103741541Y-180000414D02*
X1103812969Y-179857557D01*
X1103812969Y-179857557D02*
X1103955827Y-179786128D01*
X1103955827Y-179786128D02*
X1104241541Y-179786128D01*
X1104241541Y-179786128D02*
X1104384398Y-179857557D01*
X1104384398Y-179857557D02*
X1104455827Y-180000414D01*
X1104455827Y-180000414D02*
X1104455827Y-180143271D01*
X1104455827Y-180143271D02*
X1103741541Y-180286128D01*
X1105098683Y-180643271D02*
X1105170112Y-180714700D01*
X1105170112Y-180714700D02*
X1105098683Y-180786128D01*
X1105098683Y-180786128D02*
X1105027255Y-180714700D01*
X1105027255Y-180714700D02*
X1105098683Y-180643271D01*
X1105098683Y-180643271D02*
X1105098683Y-180786128D01*
X1105098683Y-179857557D02*
X1105170112Y-179928985D01*
X1105170112Y-179928985D02*
X1105098683Y-180000414D01*
X1105098683Y-180000414D02*
X1105027255Y-179928985D01*
X1105027255Y-179928985D02*
X1105098683Y-179857557D01*
X1105098683Y-179857557D02*
X1105098683Y-180000414D01*
X1106955826Y-179286128D02*
X1106955826Y-180500414D01*
X1106955826Y-180500414D02*
X1107027255Y-180643271D01*
X1107027255Y-180643271D02*
X1107098684Y-180714700D01*
X1107098684Y-180714700D02*
X1107241541Y-180786128D01*
X1107241541Y-180786128D02*
X1107527255Y-180786128D01*
X1107527255Y-180786128D02*
X1107670112Y-180714700D01*
X1107670112Y-180714700D02*
X1107741541Y-180643271D01*
X1107741541Y-180643271D02*
X1107812969Y-180500414D01*
X1107812969Y-180500414D02*
X1107812969Y-179286128D01*
X1108455827Y-180714700D02*
X1108598684Y-180786128D01*
X1108598684Y-180786128D02*
X1108884398Y-180786128D01*
X1108884398Y-180786128D02*
X1109027255Y-180714700D01*
X1109027255Y-180714700D02*
X1109098684Y-180571842D01*
X1109098684Y-180571842D02*
X1109098684Y-180500414D01*
X1109098684Y-180500414D02*
X1109027255Y-180357557D01*
X1109027255Y-180357557D02*
X1108884398Y-180286128D01*
X1108884398Y-180286128D02*
X1108670113Y-180286128D01*
X1108670113Y-180286128D02*
X1108527255Y-180214700D01*
X1108527255Y-180214700D02*
X1108455827Y-180071842D01*
X1108455827Y-180071842D02*
X1108455827Y-180000414D01*
X1108455827Y-180000414D02*
X1108527255Y-179857557D01*
X1108527255Y-179857557D02*
X1108670113Y-179786128D01*
X1108670113Y-179786128D02*
X1108884398Y-179786128D01*
X1108884398Y-179786128D02*
X1109027255Y-179857557D01*
X1110312970Y-180714700D02*
X1110170113Y-180786128D01*
X1110170113Y-180786128D02*
X1109884399Y-180786128D01*
X1109884399Y-180786128D02*
X1109741541Y-180714700D01*
X1109741541Y-180714700D02*
X1109670113Y-180571842D01*
X1109670113Y-180571842D02*
X1109670113Y-180000414D01*
X1109670113Y-180000414D02*
X1109741541Y-179857557D01*
X1109741541Y-179857557D02*
X1109884399Y-179786128D01*
X1109884399Y-179786128D02*
X1110170113Y-179786128D01*
X1110170113Y-179786128D02*
X1110312970Y-179857557D01*
X1110312970Y-179857557D02*
X1110384399Y-180000414D01*
X1110384399Y-180000414D02*
X1110384399Y-180143271D01*
X1110384399Y-180143271D02*
X1109670113Y-180286128D01*
X1111027255Y-180786128D02*
X1111027255Y-179786128D01*
X1111027255Y-180071842D02*
X1111098684Y-179928985D01*
X1111098684Y-179928985D02*
X1111170113Y-179857557D01*
X1111170113Y-179857557D02*
X1111312970Y-179786128D01*
X1111312970Y-179786128D02*
X1111455827Y-179786128D01*
D10*
D11*
X1185455826Y-183586128D02*
X1185455826Y-182086128D01*
X1186812970Y-183586128D02*
X1186812970Y-182086128D01*
X1186812970Y-183514700D02*
X1186670112Y-183586128D01*
X1186670112Y-183586128D02*
X1186384398Y-183586128D01*
X1186384398Y-183586128D02*
X1186241541Y-183514700D01*
X1186241541Y-183514700D02*
X1186170112Y-183443271D01*
X1186170112Y-183443271D02*
X1186098684Y-183300414D01*
X1186098684Y-183300414D02*
X1186098684Y-182871842D01*
X1186098684Y-182871842D02*
X1186170112Y-182728985D01*
X1186170112Y-182728985D02*
X1186241541Y-182657557D01*
X1186241541Y-182657557D02*
X1186384398Y-182586128D01*
X1186384398Y-182586128D02*
X1186670112Y-182586128D01*
X1186670112Y-182586128D02*
X1186812970Y-182657557D01*
X1187527255Y-183443271D02*
X1187598684Y-183514700D01*
X1187598684Y-183514700D02*
X1187527255Y-183586128D01*
X1187527255Y-183586128D02*
X1187455827Y-183514700D01*
X1187455827Y-183514700D02*
X1187527255Y-183443271D01*
X1187527255Y-183443271D02*
X1187527255Y-183586128D01*
X1187527255Y-182657557D02*
X1187598684Y-182728985D01*
X1187598684Y-182728985D02*
X1187527255Y-182800414D01*
X1187527255Y-182800414D02*
X1187455827Y-182728985D01*
X1187455827Y-182728985D02*
X1187527255Y-182657557D01*
X1187527255Y-182657557D02*
X1187527255Y-182800414D01*
X1190170113Y-183586128D02*
X1189312970Y-183586128D01*
X1189741541Y-183586128D02*
X1189741541Y-182086128D01*
X1189741541Y-182086128D02*
X1189598684Y-182300414D01*
X1189598684Y-182300414D02*
X1189455827Y-182443271D01*
X1189455827Y-182443271D02*
X1189312970Y-182514700D01*
X1191884398Y-182014700D02*
X1190598684Y-183943271D01*
X1193170113Y-183586128D02*
X1192312970Y-183586128D01*
X1192741541Y-183586128D02*
X1192741541Y-182086128D01*
X1192741541Y-182086128D02*
X1192598684Y-182300414D01*
X1192598684Y-182300414D02*
X1192455827Y-182443271D01*
X1192455827Y-182443271D02*
X1192312970Y-182514700D01*
D10*
D11*
X1099000000Y-174500000D02*
X1207000000Y-174500000D01*
D10*
D13*
X1100691728Y-175204438D02*
X1101834585Y-175204438D01*
X1101013157Y-177204438D02*
X1101263157Y-175204438D01*
X1102251252Y-177204438D02*
X1102417919Y-175871104D01*
X1102501252Y-175204438D02*
X1102394109Y-175299676D01*
X1102394109Y-175299676D02*
X1102477443Y-175394914D01*
X1102477443Y-175394914D02*
X1102584586Y-175299676D01*
X1102584586Y-175299676D02*
X1102501252Y-175204438D01*
X1102501252Y-175204438D02*
X1102477443Y-175394914D01*
X1103084586Y-175871104D02*
X1103846490Y-175871104D01*
X1103453633Y-175204438D02*
X1103239348Y-176918723D01*
X1103239348Y-176918723D02*
X1103310776Y-177109200D01*
X1103310776Y-177109200D02*
X1103489348Y-177204438D01*
X1103489348Y-177204438D02*
X1103679824Y-177204438D01*
X1104632205Y-177204438D02*
X1104453633Y-177109200D01*
X1104453633Y-177109200D02*
X1104382205Y-176918723D01*
X1104382205Y-176918723D02*
X1104596490Y-175204438D01*
X1106167919Y-177109200D02*
X1105965538Y-177204438D01*
X1105965538Y-177204438D02*
X1105584585Y-177204438D01*
X1105584585Y-177204438D02*
X1105406014Y-177109200D01*
X1105406014Y-177109200D02*
X1105334585Y-176918723D01*
X1105334585Y-176918723D02*
X1105429824Y-176156819D01*
X1105429824Y-176156819D02*
X1105548871Y-175966342D01*
X1105548871Y-175966342D02*
X1105751252Y-175871104D01*
X1105751252Y-175871104D02*
X1106132204Y-175871104D01*
X1106132204Y-175871104D02*
X1106310776Y-175966342D01*
X1106310776Y-175966342D02*
X1106382204Y-176156819D01*
X1106382204Y-176156819D02*
X1106358395Y-176347295D01*
X1106358395Y-176347295D02*
X1105382204Y-176537771D01*
X1107132205Y-177013961D02*
X1107215538Y-177109200D01*
X1107215538Y-177109200D02*
X1107108395Y-177204438D01*
X1107108395Y-177204438D02*
X1107025062Y-177109200D01*
X1107025062Y-177109200D02*
X1107132205Y-177013961D01*
X1107132205Y-177013961D02*
X1107108395Y-177204438D01*
X1107263157Y-175966342D02*
X1107346490Y-176061580D01*
X1107346490Y-176061580D02*
X1107239348Y-176156819D01*
X1107239348Y-176156819D02*
X1107156014Y-176061580D01*
X1107156014Y-176061580D02*
X1107263157Y-175966342D01*
X1107263157Y-175966342D02*
X1107239348Y-176156819D01*
D10*
D11*
X1100955826Y-172600414D02*
X1100455826Y-172600414D01*
X1100455826Y-173386128D02*
X1100455826Y-171886128D01*
X1100455826Y-171886128D02*
X1101170112Y-171886128D01*
X1101741540Y-173386128D02*
X1101741540Y-172386128D01*
X1101741540Y-171886128D02*
X1101670112Y-171957557D01*
X1101670112Y-171957557D02*
X1101741540Y-172028985D01*
X1101741540Y-172028985D02*
X1101812969Y-171957557D01*
X1101812969Y-171957557D02*
X1101741540Y-171886128D01*
X1101741540Y-171886128D02*
X1101741540Y-172028985D01*
X1102670112Y-173386128D02*
X1102527255Y-173314700D01*
X1102527255Y-173314700D02*
X1102455826Y-173171842D01*
X1102455826Y-173171842D02*
X1102455826Y-171886128D01*
X1103812969Y-173314700D02*
X1103670112Y-173386128D01*
X1103670112Y-173386128D02*
X1103384398Y-173386128D01*
X1103384398Y-173386128D02*
X1103241540Y-173314700D01*
X1103241540Y-173314700D02*
X1103170112Y-173171842D01*
X1103170112Y-173171842D02*
X1103170112Y-172600414D01*
X1103170112Y-172600414D02*
X1103241540Y-172457557D01*
X1103241540Y-172457557D02*
X1103384398Y-172386128D01*
X1103384398Y-172386128D02*
X1103670112Y-172386128D01*
X1103670112Y-172386128D02*
X1103812969Y-172457557D01*
X1103812969Y-172457557D02*
X1103884398Y-172600414D01*
X1103884398Y-172600414D02*
X1103884398Y-172743271D01*
X1103884398Y-172743271D02*
X1103170112Y-172886128D01*
X1104527254Y-173243271D02*
X1104598683Y-173314700D01*
X1104598683Y-173314700D02*
X1104527254Y-173386128D01*
X1104527254Y-173386128D02*
X1104455826Y-173314700D01*
X1104455826Y-173314700D02*
X1104527254Y-173243271D01*
X1104527254Y-173243271D02*
X1104527254Y-173386128D01*
X1104527254Y-172457557D02*
X1104598683Y-172528985D01*
X1104598683Y-172528985D02*
X1104527254Y-172600414D01*
X1104527254Y-172600414D02*
X1104455826Y-172528985D01*
X1104455826Y-172528985D02*
X1104527254Y-172457557D01*
X1104527254Y-172457557D02*
X1104527254Y-172600414D01*
X1106170112Y-172386128D02*
X1106741540Y-172386128D01*
X1106384397Y-173386128D02*
X1106384397Y-172100414D01*
X1106384397Y-172100414D02*
X1106455826Y-171957557D01*
X1106455826Y-171957557D02*
X1106598683Y-171886128D01*
X1106598683Y-171886128D02*
X1106741540Y-171886128D01*
X1107241540Y-173386128D02*
X1107241540Y-172386128D01*
X1107241540Y-171886128D02*
X1107170112Y-171957557D01*
X1107170112Y-171957557D02*
X1107241540Y-172028985D01*
X1107241540Y-172028985D02*
X1107312969Y-171957557D01*
X1107312969Y-171957557D02*
X1107241540Y-171886128D01*
X1107241540Y-171886128D02*
X1107241540Y-172028985D01*
X1107955826Y-172386128D02*
X1107955826Y-173386128D01*
X1107955826Y-172528985D02*
X1108027255Y-172457557D01*
X1108027255Y-172457557D02*
X1108170112Y-172386128D01*
X1108170112Y-172386128D02*
X1108384398Y-172386128D01*
X1108384398Y-172386128D02*
X1108527255Y-172457557D01*
X1108527255Y-172457557D02*
X1108598684Y-172600414D01*
X1108598684Y-172600414D02*
X1108598684Y-173386128D01*
X1109955827Y-173386128D02*
X1109955827Y-172600414D01*
X1109955827Y-172600414D02*
X1109884398Y-172457557D01*
X1109884398Y-172457557D02*
X1109741541Y-172386128D01*
X1109741541Y-172386128D02*
X1109455827Y-172386128D01*
X1109455827Y-172386128D02*
X1109312969Y-172457557D01*
X1109955827Y-173314700D02*
X1109812969Y-173386128D01*
X1109812969Y-173386128D02*
X1109455827Y-173386128D01*
X1109455827Y-173386128D02*
X1109312969Y-173314700D01*
X1109312969Y-173314700D02*
X1109241541Y-173171842D01*
X1109241541Y-173171842D02*
X1109241541Y-173028985D01*
X1109241541Y-173028985D02*
X1109312969Y-172886128D01*
X1109312969Y-172886128D02*
X1109455827Y-172814700D01*
X1109455827Y-172814700D02*
X1109812969Y-172814700D01*
X1109812969Y-172814700D02*
X1109955827Y-172743271D01*
X1110884398Y-173386128D02*
X1110741541Y-173314700D01*
X1110741541Y-173314700D02*
X1110670112Y-173171842D01*
X1110670112Y-173171842D02*
X1110670112Y-171886128D01*
X1111098684Y-173528985D02*
X1112241541Y-173528985D01*
X1113241541Y-173314700D02*
X1113098683Y-173386128D01*
X1113098683Y-173386128D02*
X1112812969Y-173386128D01*
X1112812969Y-173386128D02*
X1112670112Y-173314700D01*
X1112670112Y-173314700D02*
X1112598683Y-173243271D01*
X1112598683Y-173243271D02*
X1112527255Y-173100414D01*
X1112527255Y-173100414D02*
X1112527255Y-172671842D01*
X1112527255Y-172671842D02*
X1112598683Y-172528985D01*
X1112598683Y-172528985D02*
X1112670112Y-172457557D01*
X1112670112Y-172457557D02*
X1112812969Y-172386128D01*
X1112812969Y-172386128D02*
X1113098683Y-172386128D01*
X1113098683Y-172386128D02*
X1113241541Y-172457557D01*
X1114098683Y-173386128D02*
X1113955826Y-173314700D01*
X1113955826Y-173314700D02*
X1113884397Y-173243271D01*
X1113884397Y-173243271D02*
X1113812969Y-173100414D01*
X1113812969Y-173100414D02*
X1113812969Y-172671842D01*
X1113812969Y-172671842D02*
X1113884397Y-172528985D01*
X1113884397Y-172528985D02*
X1113955826Y-172457557D01*
X1113955826Y-172457557D02*
X1114098683Y-172386128D01*
X1114098683Y-172386128D02*
X1114312969Y-172386128D01*
X1114312969Y-172386128D02*
X1114455826Y-172457557D01*
X1114455826Y-172457557D02*
X1114527255Y-172528985D01*
X1114527255Y-172528985D02*
X1114598683Y-172671842D01*
X1114598683Y-172671842D02*
X1114598683Y-173100414D01*
X1114598683Y-173100414D02*
X1114527255Y-173243271D01*
X1114527255Y-173243271D02*
X1114455826Y-173314700D01*
X1114455826Y-173314700D02*
X1114312969Y-173386128D01*
X1114312969Y-173386128D02*
X1114098683Y-173386128D01*
X1115241540Y-173386128D02*
X1115241540Y-172386128D01*
X1115241540Y-171886128D02*
X1115170112Y-171957557D01*
X1115170112Y-171957557D02*
X1115241540Y-172028985D01*
X1115241540Y-172028985D02*
X1115312969Y-171957557D01*
X1115312969Y-171957557D02*
X1115241540Y-171886128D01*
X1115241540Y-171886128D02*
X1115241540Y-172028985D01*
X1116170112Y-173386128D02*
X1116027255Y-173314700D01*
X1116027255Y-173314700D02*
X1115955826Y-173171842D01*
X1115955826Y-173171842D02*
X1115955826Y-171886128D01*
X1116384398Y-173528985D02*
X1117527255Y-173528985D01*
X1117741540Y-171886128D02*
X1118741540Y-171886128D01*
X1118741540Y-171886128D02*
X1117741540Y-173386128D01*
X1117741540Y-173386128D02*
X1118741540Y-173386128D01*
X1118955826Y-173528985D02*
X1120098683Y-173528985D01*
X1120241540Y-172386128D02*
X1120812968Y-172386128D01*
X1120455825Y-171886128D02*
X1120455825Y-173171842D01*
X1120455825Y-173171842D02*
X1120527254Y-173314700D01*
X1120527254Y-173314700D02*
X1120670111Y-173386128D01*
X1120670111Y-173386128D02*
X1120812968Y-173386128D01*
X1121884397Y-173314700D02*
X1121741540Y-173386128D01*
X1121741540Y-173386128D02*
X1121455826Y-173386128D01*
X1121455826Y-173386128D02*
X1121312968Y-173314700D01*
X1121312968Y-173314700D02*
X1121241540Y-173171842D01*
X1121241540Y-173171842D02*
X1121241540Y-172600414D01*
X1121241540Y-172600414D02*
X1121312968Y-172457557D01*
X1121312968Y-172457557D02*
X1121455826Y-172386128D01*
X1121455826Y-172386128D02*
X1121741540Y-172386128D01*
X1121741540Y-172386128D02*
X1121884397Y-172457557D01*
X1121884397Y-172457557D02*
X1121955826Y-172600414D01*
X1121955826Y-172600414D02*
X1121955826Y-172743271D01*
X1121955826Y-172743271D02*
X1121241540Y-172886128D01*
X1122527254Y-173314700D02*
X1122670111Y-173386128D01*
X1122670111Y-173386128D02*
X1122955825Y-173386128D01*
X1122955825Y-173386128D02*
X1123098682Y-173314700D01*
X1123098682Y-173314700D02*
X1123170111Y-173171842D01*
X1123170111Y-173171842D02*
X1123170111Y-173100414D01*
X1123170111Y-173100414D02*
X1123098682Y-172957557D01*
X1123098682Y-172957557D02*
X1122955825Y-172886128D01*
X1122955825Y-172886128D02*
X1122741540Y-172886128D01*
X1122741540Y-172886128D02*
X1122598682Y-172814700D01*
X1122598682Y-172814700D02*
X1122527254Y-172671842D01*
X1122527254Y-172671842D02*
X1122527254Y-172600414D01*
X1122527254Y-172600414D02*
X1122598682Y-172457557D01*
X1122598682Y-172457557D02*
X1122741540Y-172386128D01*
X1122741540Y-172386128D02*
X1122955825Y-172386128D01*
X1122955825Y-172386128D02*
X1123098682Y-172457557D01*
X1123598683Y-172386128D02*
X1124170111Y-172386128D01*
X1123812968Y-171886128D02*
X1123812968Y-173171842D01*
X1123812968Y-173171842D02*
X1123884397Y-173314700D01*
X1123884397Y-173314700D02*
X1124027254Y-173386128D01*
X1124027254Y-173386128D02*
X1124170111Y-173386128D01*
X1124670111Y-173386128D02*
X1124670111Y-172386128D01*
X1124670111Y-171886128D02*
X1124598683Y-171957557D01*
X1124598683Y-171957557D02*
X1124670111Y-172028985D01*
X1124670111Y-172028985D02*
X1124741540Y-171957557D01*
X1124741540Y-171957557D02*
X1124670111Y-171886128D01*
X1124670111Y-171886128D02*
X1124670111Y-172028985D01*
X1125384397Y-172386128D02*
X1125384397Y-173386128D01*
X1125384397Y-172528985D02*
X1125455826Y-172457557D01*
X1125455826Y-172457557D02*
X1125598683Y-172386128D01*
X1125598683Y-172386128D02*
X1125812969Y-172386128D01*
X1125812969Y-172386128D02*
X1125955826Y-172457557D01*
X1125955826Y-172457557D02*
X1126027255Y-172600414D01*
X1126027255Y-172600414D02*
X1126027255Y-173386128D01*
X1127384398Y-172386128D02*
X1127384398Y-173600414D01*
X1127384398Y-173600414D02*
X1127312969Y-173743271D01*
X1127312969Y-173743271D02*
X1127241540Y-173814700D01*
X1127241540Y-173814700D02*
X1127098683Y-173886128D01*
X1127098683Y-173886128D02*
X1126884398Y-173886128D01*
X1126884398Y-173886128D02*
X1126741540Y-173814700D01*
X1127384398Y-173314700D02*
X1127241540Y-173386128D01*
X1127241540Y-173386128D02*
X1126955826Y-173386128D01*
X1126955826Y-173386128D02*
X1126812969Y-173314700D01*
X1126812969Y-173314700D02*
X1126741540Y-173243271D01*
X1126741540Y-173243271D02*
X1126670112Y-173100414D01*
X1126670112Y-173100414D02*
X1126670112Y-172671842D01*
X1126670112Y-172671842D02*
X1126741540Y-172528985D01*
X1126741540Y-172528985D02*
X1126812969Y-172457557D01*
X1126812969Y-172457557D02*
X1126955826Y-172386128D01*
X1126955826Y-172386128D02*
X1127241540Y-172386128D01*
X1127241540Y-172386128D02*
X1127384398Y-172457557D01*
X1127741541Y-173528985D02*
X1128884398Y-173528985D01*
X1129170112Y-173314700D02*
X1129312969Y-173386128D01*
X1129312969Y-173386128D02*
X1129598683Y-173386128D01*
X1129598683Y-173386128D02*
X1129741540Y-173314700D01*
X1129741540Y-173314700D02*
X1129812969Y-173171842D01*
X1129812969Y-173171842D02*
X1129812969Y-173100414D01*
X1129812969Y-173100414D02*
X1129741540Y-172957557D01*
X1129741540Y-172957557D02*
X1129598683Y-172886128D01*
X1129598683Y-172886128D02*
X1129384398Y-172886128D01*
X1129384398Y-172886128D02*
X1129241540Y-172814700D01*
X1129241540Y-172814700D02*
X1129170112Y-172671842D01*
X1129170112Y-172671842D02*
X1129170112Y-172600414D01*
X1129170112Y-172600414D02*
X1129241540Y-172457557D01*
X1129241540Y-172457557D02*
X1129384398Y-172386128D01*
X1129384398Y-172386128D02*
X1129598683Y-172386128D01*
X1129598683Y-172386128D02*
X1129741540Y-172457557D01*
X1130455826Y-173386128D02*
X1130455826Y-172386128D01*
X1130455826Y-171886128D02*
X1130384398Y-171957557D01*
X1130384398Y-171957557D02*
X1130455826Y-172028985D01*
X1130455826Y-172028985D02*
X1130527255Y-171957557D01*
X1130527255Y-171957557D02*
X1130455826Y-171886128D01*
X1130455826Y-171886128D02*
X1130455826Y-172028985D01*
X1131027255Y-172386128D02*
X1131812970Y-172386128D01*
X1131812970Y-172386128D02*
X1131027255Y-173386128D01*
X1131027255Y-173386128D02*
X1131812970Y-173386128D01*
X1132955827Y-173314700D02*
X1132812970Y-173386128D01*
X1132812970Y-173386128D02*
X1132527256Y-173386128D01*
X1132527256Y-173386128D02*
X1132384398Y-173314700D01*
X1132384398Y-173314700D02*
X1132312970Y-173171842D01*
X1132312970Y-173171842D02*
X1132312970Y-172600414D01*
X1132312970Y-172600414D02*
X1132384398Y-172457557D01*
X1132384398Y-172457557D02*
X1132527256Y-172386128D01*
X1132527256Y-172386128D02*
X1132812970Y-172386128D01*
X1132812970Y-172386128D02*
X1132955827Y-172457557D01*
X1132955827Y-172457557D02*
X1133027256Y-172600414D01*
X1133027256Y-172600414D02*
X1133027256Y-172743271D01*
X1133027256Y-172743271D02*
X1132312970Y-172886128D01*
X1133670112Y-173243271D02*
X1133741541Y-173314700D01*
X1133741541Y-173314700D02*
X1133670112Y-173386128D01*
X1133670112Y-173386128D02*
X1133598684Y-173314700D01*
X1133598684Y-173314700D02*
X1133670112Y-173243271D01*
X1133670112Y-173243271D02*
X1133670112Y-173386128D01*
X1134384398Y-173386128D02*
X1134384398Y-171886128D01*
X1134527256Y-172814700D02*
X1134955827Y-173386128D01*
X1134955827Y-172386128D02*
X1134384398Y-172957557D01*
X1135598684Y-173386128D02*
X1135598684Y-172386128D01*
X1135598684Y-171886128D02*
X1135527256Y-171957557D01*
X1135527256Y-171957557D02*
X1135598684Y-172028985D01*
X1135598684Y-172028985D02*
X1135670113Y-171957557D01*
X1135670113Y-171957557D02*
X1135598684Y-171886128D01*
X1135598684Y-171886128D02*
X1135598684Y-172028985D01*
X1136955828Y-173314700D02*
X1136812970Y-173386128D01*
X1136812970Y-173386128D02*
X1136527256Y-173386128D01*
X1136527256Y-173386128D02*
X1136384399Y-173314700D01*
X1136384399Y-173314700D02*
X1136312970Y-173243271D01*
X1136312970Y-173243271D02*
X1136241542Y-173100414D01*
X1136241542Y-173100414D02*
X1136241542Y-172671842D01*
X1136241542Y-172671842D02*
X1136312970Y-172528985D01*
X1136312970Y-172528985D02*
X1136384399Y-172457557D01*
X1136384399Y-172457557D02*
X1136527256Y-172386128D01*
X1136527256Y-172386128D02*
X1136812970Y-172386128D01*
X1136812970Y-172386128D02*
X1136955828Y-172457557D01*
X1138241542Y-173386128D02*
X1138241542Y-172600414D01*
X1138241542Y-172600414D02*
X1138170113Y-172457557D01*
X1138170113Y-172457557D02*
X1138027256Y-172386128D01*
X1138027256Y-172386128D02*
X1137741542Y-172386128D01*
X1137741542Y-172386128D02*
X1137598684Y-172457557D01*
X1138241542Y-173314700D02*
X1138098684Y-173386128D01*
X1138098684Y-173386128D02*
X1137741542Y-173386128D01*
X1137741542Y-173386128D02*
X1137598684Y-173314700D01*
X1137598684Y-173314700D02*
X1137527256Y-173171842D01*
X1137527256Y-173171842D02*
X1137527256Y-173028985D01*
X1137527256Y-173028985D02*
X1137598684Y-172886128D01*
X1137598684Y-172886128D02*
X1137741542Y-172814700D01*
X1137741542Y-172814700D02*
X1138098684Y-172814700D01*
X1138098684Y-172814700D02*
X1138241542Y-172743271D01*
X1139598685Y-173386128D02*
X1139598685Y-171886128D01*
X1139598685Y-173314700D02*
X1139455827Y-173386128D01*
X1139455827Y-173386128D02*
X1139170113Y-173386128D01*
X1139170113Y-173386128D02*
X1139027256Y-173314700D01*
X1139027256Y-173314700D02*
X1138955827Y-173243271D01*
X1138955827Y-173243271D02*
X1138884399Y-173100414D01*
X1138884399Y-173100414D02*
X1138884399Y-172671842D01*
X1138884399Y-172671842D02*
X1138955827Y-172528985D01*
X1138955827Y-172528985D02*
X1139027256Y-172457557D01*
X1139027256Y-172457557D02*
X1139170113Y-172386128D01*
X1139170113Y-172386128D02*
X1139455827Y-172386128D01*
X1139455827Y-172386128D02*
X1139598685Y-172457557D01*
X1139955828Y-173528985D02*
X1141098685Y-173528985D01*
X1141455827Y-172386128D02*
X1141455827Y-173886128D01*
X1141455827Y-172457557D02*
X1141598685Y-172386128D01*
X1141598685Y-172386128D02*
X1141884399Y-172386128D01*
X1141884399Y-172386128D02*
X1142027256Y-172457557D01*
X1142027256Y-172457557D02*
X1142098685Y-172528985D01*
X1142098685Y-172528985D02*
X1142170113Y-172671842D01*
X1142170113Y-172671842D02*
X1142170113Y-173100414D01*
X1142170113Y-173100414D02*
X1142098685Y-173243271D01*
X1142098685Y-173243271D02*
X1142027256Y-173314700D01*
X1142027256Y-173314700D02*
X1141884399Y-173386128D01*
X1141884399Y-173386128D02*
X1141598685Y-173386128D01*
X1141598685Y-173386128D02*
X1141455827Y-173314700D01*
X1143455828Y-173314700D02*
X1143312970Y-173386128D01*
X1143312970Y-173386128D02*
X1143027256Y-173386128D01*
X1143027256Y-173386128D02*
X1142884399Y-173314700D01*
X1142884399Y-173314700D02*
X1142812970Y-173243271D01*
X1142812970Y-173243271D02*
X1142741542Y-173100414D01*
X1142741542Y-173100414D02*
X1142741542Y-172671842D01*
X1142741542Y-172671842D02*
X1142812970Y-172528985D01*
X1142812970Y-172528985D02*
X1142884399Y-172457557D01*
X1142884399Y-172457557D02*
X1143027256Y-172386128D01*
X1143027256Y-172386128D02*
X1143312970Y-172386128D01*
X1143312970Y-172386128D02*
X1143455828Y-172457557D01*
X1144098684Y-173386128D02*
X1144098684Y-171886128D01*
X1144098684Y-172457557D02*
X1144241542Y-172386128D01*
X1144241542Y-172386128D02*
X1144527256Y-172386128D01*
X1144527256Y-172386128D02*
X1144670113Y-172457557D01*
X1144670113Y-172457557D02*
X1144741542Y-172528985D01*
X1144741542Y-172528985D02*
X1144812970Y-172671842D01*
X1144812970Y-172671842D02*
X1144812970Y-173100414D01*
X1144812970Y-173100414D02*
X1144741542Y-173243271D01*
X1144741542Y-173243271D02*
X1144670113Y-173314700D01*
X1144670113Y-173314700D02*
X1144527256Y-173386128D01*
X1144527256Y-173386128D02*
X1144241542Y-173386128D01*
X1144241542Y-173386128D02*
X1144098684Y-173314700D01*
D10*
D11*
X1099000000Y-168500000D02*
X1207000000Y-168500000D01*
D10*
D11*
X1100384398Y-170614700D02*
X1100598684Y-170686128D01*
X1100598684Y-170686128D02*
X1100955826Y-170686128D01*
X1100955826Y-170686128D02*
X1101098684Y-170614700D01*
X1101098684Y-170614700D02*
X1101170112Y-170543271D01*
X1101170112Y-170543271D02*
X1101241541Y-170400414D01*
X1101241541Y-170400414D02*
X1101241541Y-170257557D01*
X1101241541Y-170257557D02*
X1101170112Y-170114700D01*
X1101170112Y-170114700D02*
X1101098684Y-170043271D01*
X1101098684Y-170043271D02*
X1100955826Y-169971842D01*
X1100955826Y-169971842D02*
X1100670112Y-169900414D01*
X1100670112Y-169900414D02*
X1100527255Y-169828985D01*
X1100527255Y-169828985D02*
X1100455826Y-169757557D01*
X1100455826Y-169757557D02*
X1100384398Y-169614700D01*
X1100384398Y-169614700D02*
X1100384398Y-169471842D01*
X1100384398Y-169471842D02*
X1100455826Y-169328985D01*
X1100455826Y-169328985D02*
X1100527255Y-169257557D01*
X1100527255Y-169257557D02*
X1100670112Y-169186128D01*
X1100670112Y-169186128D02*
X1101027255Y-169186128D01*
X1101027255Y-169186128D02*
X1101241541Y-169257557D01*
X1101884397Y-170686128D02*
X1101884397Y-169186128D01*
X1102527255Y-170686128D02*
X1102527255Y-169900414D01*
X1102527255Y-169900414D02*
X1102455826Y-169757557D01*
X1102455826Y-169757557D02*
X1102312969Y-169686128D01*
X1102312969Y-169686128D02*
X1102098683Y-169686128D01*
X1102098683Y-169686128D02*
X1101955826Y-169757557D01*
X1101955826Y-169757557D02*
X1101884397Y-169828985D01*
X1103812969Y-170614700D02*
X1103670112Y-170686128D01*
X1103670112Y-170686128D02*
X1103384398Y-170686128D01*
X1103384398Y-170686128D02*
X1103241540Y-170614700D01*
X1103241540Y-170614700D02*
X1103170112Y-170471842D01*
X1103170112Y-170471842D02*
X1103170112Y-169900414D01*
X1103170112Y-169900414D02*
X1103241540Y-169757557D01*
X1103241540Y-169757557D02*
X1103384398Y-169686128D01*
X1103384398Y-169686128D02*
X1103670112Y-169686128D01*
X1103670112Y-169686128D02*
X1103812969Y-169757557D01*
X1103812969Y-169757557D02*
X1103884398Y-169900414D01*
X1103884398Y-169900414D02*
X1103884398Y-170043271D01*
X1103884398Y-170043271D02*
X1103170112Y-170186128D01*
X1105098683Y-170614700D02*
X1104955826Y-170686128D01*
X1104955826Y-170686128D02*
X1104670112Y-170686128D01*
X1104670112Y-170686128D02*
X1104527254Y-170614700D01*
X1104527254Y-170614700D02*
X1104455826Y-170471842D01*
X1104455826Y-170471842D02*
X1104455826Y-169900414D01*
X1104455826Y-169900414D02*
X1104527254Y-169757557D01*
X1104527254Y-169757557D02*
X1104670112Y-169686128D01*
X1104670112Y-169686128D02*
X1104955826Y-169686128D01*
X1104955826Y-169686128D02*
X1105098683Y-169757557D01*
X1105098683Y-169757557D02*
X1105170112Y-169900414D01*
X1105170112Y-169900414D02*
X1105170112Y-170043271D01*
X1105170112Y-170043271D02*
X1104455826Y-170186128D01*
X1105598683Y-169686128D02*
X1106170111Y-169686128D01*
X1105812968Y-169186128D02*
X1105812968Y-170471842D01*
X1105812968Y-170471842D02*
X1105884397Y-170614700D01*
X1105884397Y-170614700D02*
X1106027254Y-170686128D01*
X1106027254Y-170686128D02*
X1106170111Y-170686128D01*
X1106670111Y-170543271D02*
X1106741540Y-170614700D01*
X1106741540Y-170614700D02*
X1106670111Y-170686128D01*
X1106670111Y-170686128D02*
X1106598683Y-170614700D01*
X1106598683Y-170614700D02*
X1106670111Y-170543271D01*
X1106670111Y-170543271D02*
X1106670111Y-170686128D01*
X1106670111Y-169757557D02*
X1106741540Y-169828985D01*
X1106741540Y-169828985D02*
X1106670111Y-169900414D01*
X1106670111Y-169900414D02*
X1106598683Y-169828985D01*
X1106598683Y-169828985D02*
X1106670111Y-169757557D01*
X1106670111Y-169757557D02*
X1106670111Y-169900414D01*
D10*
D11*
X1119000000Y-178500000D02*
X1119000000Y-181500000D01*
D10*
D11*
X1183000000Y-178500000D02*
X1183000000Y-185000000D01*
D14*
D15*
X1140711327Y-83969333D02*
X1143758947Y-83969333D01*
X1145663708Y-83969333D02*
X1148711328Y-83969333D01*
X1150616089Y-85112190D02*
X1153663709Y-83969333D01*
X1153663709Y-83969333D02*
X1150616089Y-82826476D01*
D14*
D15*
X573998672Y-32890666D02*
X570951053Y-32890666D01*
X569046291Y-32890666D02*
X565998672Y-32890666D01*
X564093910Y-31747809D02*
X561046291Y-32890666D01*
X561046291Y-32890666D02*
X564093910Y-34033523D01*
D14*
D15*
X1147628672Y-112350666D02*
X1144581053Y-112350666D01*
X1142676291Y-112350666D02*
X1139628672Y-112350666D01*
X1137723910Y-111207809D02*
X1134676291Y-112350666D01*
X1134676291Y-112350666D02*
X1137723910Y-113493523D01*
D14*
D15*
X562391327Y-15219333D02*
X565438947Y-15219333D01*
X567343708Y-15219333D02*
X570391328Y-15219333D01*
X572296089Y-16362190D02*
X575343709Y-15219333D01*
X575343709Y-15219333D02*
X572296089Y-14076476D01*
D14*
D15*
X8171327Y-76729333D02*
X11218947Y-76729333D01*
X13123708Y-76729333D02*
X16171328Y-76729333D01*
X18076089Y-77872190D02*
X21123709Y-76729333D01*
X21123709Y-76729333D02*
X18076089Y-75586476D01*
D14*
D15*
X19238672Y-120360666D02*
X16191053Y-120360666D01*
X14286291Y-120360666D02*
X11238672Y-120360666D01*
X9333910Y-119217809D02*
X6286291Y-120360666D01*
X6286291Y-120360666D02*
X9333910Y-121503523D01*
D14*
D15*
X563111327Y-162509333D02*
X566158947Y-162509333D01*
X568063708Y-162509333D02*
X571111328Y-162509333D01*
X573016089Y-163652190D02*
X576063709Y-162509333D01*
X576063709Y-162509333D02*
X573016089Y-161366476D01*
D14*
D15*
X574048672Y-180840666D02*
X571001053Y-180840666D01*
X569096291Y-180840666D02*
X566048672Y-180840666D01*
X564143910Y-179697809D02*
X561096291Y-180840666D01*
X561096291Y-180840666D02*
X564143910Y-181983523D01*
D16*
%TO.N,*%
X1151090000Y-158920000D03*
X1151110000Y-117913871D03*
X273331506Y-174930000D03*
X273323484Y-176210000D03*
X565115000Y-79155000D03*
X565615000Y-38065000D03*
X566790000Y-117810000D03*
X567050000Y-159094101D03*
%TD*%
D17*
%TO.N,*%
X1151150000Y-158880000D02*
X1151080000Y-118840000D01*
X1151110000Y-117913871D02*
X1138666441Y-117291541D01*
X576084974Y-37914441D02*
X567050000Y-38021522D01*
X565115000Y-79155000D02*
X565110000Y-79160000D01*
X566102939Y-78167061D02*
X565115000Y-79155000D01*
X566102939Y-38019697D02*
X566102939Y-78167061D01*
X555592877Y-159072979D02*
X566100000Y-158950000D01*
X566100000Y-158950000D02*
X566100000Y-118620000D01*
X566100000Y-118620000D02*
X566790000Y-117810000D01*
X567050000Y-159094101D02*
X566964101Y-159094101D01*
X576026736Y-159094101D02*
X567050000Y-159094101D01*
X416578181Y-178859230D02*
X413050000Y-176340000D01*
X473558482Y-162259233D02*
X475721062Y-162065105D01*
X1125753080Y-81047783D02*
X1131538079Y-80057888D01*
X1151766164Y-79051532D02*
X1164489279Y-79708459D01*
X540280100Y-37821570D02*
X531948148Y-37586676D01*
X6452798Y-115976172D02*
X0Y-116942112D01*
X481560417Y-161640626D02*
X488634423Y-161113881D01*
X698191166Y-14799875D02*
X708328503Y-16628672D01*
X423687130Y-16641097D02*
X434084598Y-14799991D01*
X443026110Y-31232418D02*
X441822520Y-31032932D01*
X697907740Y-14764155D02*
X698191166Y-14799991D01*
X439955013Y-30697247D02*
X431918135Y-29250842D01*
X475721062Y-162065765D02*
X481560417Y-161641907D01*
X542601865Y-10275734D02*
X553185696Y-10342824D01*
X431918135Y-29249289D02*
X426680576Y-28163728D01*
X514433966Y-186277229D02*
X510225282Y-186214565D01*
X20631870Y-84719666D02*
X20907531Y-85144029D01*
X437520655Y-166774677D02*
X442428198Y-165877769D01*
X1112843602Y-88866967D02*
X1112742656Y-88805273D01*
X446706768Y-165234198D02*
X452903317Y-164429578D01*
X518728066Y-186416069D02*
X514433966Y-186276686D01*
X659862634Y-12054291D02*
X662871610Y-12245274D01*
X690775496Y-166041225D02*
X692883720Y-166429091D01*
X658158195Y-34719258D02*
X656484816Y-34896069D01*
X1120313628Y-93894170D02*
X1117188175Y-91926843D01*
X510073863Y-160001918D02*
X514457262Y-159809344D01*
X412202547Y-175518296D02*
X414811621Y-173305087D01*
X690068872Y-31019227D02*
X687898526Y-31316358D01*
X501543901Y-160321918D02*
X510073863Y-160003471D01*
X11379754Y-103124622D02*
X14458616Y-105061509D01*
X553189578Y-159065370D02*
X555592877Y-159071659D01*
X566102939Y-38019697D02*
X555709353Y-37908928D01*
X488634423Y-161114929D02*
X490828063Y-160977991D01*
X502786317Y-185985106D02*
X500064649Y-185942787D01*
X488634423Y-35865192D02*
X481428410Y-35338680D01*
X531948148Y-37586288D02*
X527366740Y-37501260D01*
X1164489279Y-117288668D02*
X1151669100Y-117932162D01*
X1164489279Y-79707954D02*
X1164489279Y-80046241D01*
X716967177Y-19370141D02*
X719083166Y-21481860D01*
X1138666441Y-117291153D02*
X1131441015Y-116953759D01*
X679877178Y-183657518D02*
X672807055Y-184195639D01*
X542388325Y-10277636D02*
X542520331Y-10276821D01*
X501543901Y-36643877D02*
X490932892Y-36006478D01*
X13235613Y-81948341D02*
X19362276Y-84262690D01*
X571872408Y-186723373D02*
X566102939Y-186641646D01*
X611466651Y-159730994D02*
X617748616Y-159859817D01*
X515552141Y-10708017D02*
X527308501Y-10521422D01*
X650393095Y-35295506D02*
X643571455Y-35858942D01*
X459864729Y-163592306D02*
X463525973Y-163198810D01*
X549885528Y-37859348D02*
X540280100Y-37819629D01*
X446493227Y-183313136D02*
X434500031Y-182262129D01*
X641067210Y-160963742D02*
X643571455Y-161082820D01*
X520312147Y-159693683D02*
X527366740Y-159467680D01*
X1125753080Y-116028276D02*
X1118294702Y-115051310D01*
X441822520Y-31032971D02*
X439955013Y-30699033D01*
X431677417Y-167813181D02*
X437520655Y-166774638D01*
X719207408Y-175518296D02*
X717029297Y-177657425D01*
X1131441015Y-116955700D02*
X1125753080Y-116029712D01*
X1112136978Y-108295246D02*
X1112327223Y-108140371D01*
X632789614Y-185939642D02*
X630972581Y-185969964D01*
X442428198Y-165879711D02*
X446706768Y-165233266D01*
X553469122Y-186671308D02*
X547983079Y-186696001D01*
X640845905Y-36005275D02*
X630661977Y-36662629D01*
X452903317Y-164429306D02*
X459864729Y-163590947D01*
X643571455Y-35859369D02*
X640845905Y-36006478D01*
X599298740Y-10397219D02*
X603942269Y-10455418D01*
X1112703830Y-88776348D02*
X1111469179Y-85085790D01*
X19362276Y-84264165D02*
X20631870Y-84720831D01*
X527308501Y-10522703D02*
X530853269Y-10505891D01*
X590489234Y-10433365D02*
X599298740Y-10397180D01*
X685452520Y-183283162D02*
X679877178Y-183655965D01*
X599710290Y-37599955D02*
X591925778Y-37831277D01*
X414811621Y-173304039D02*
X416054037Y-172179148D01*
X459181400Y-184198978D02*
X452173398Y-183687025D01*
X1112742656Y-88806088D02*
X1112703830Y-88778095D01*
X591925778Y-159170199D02*
X599714173Y-159397794D01*
X19362276Y-112605575D02*
X13060898Y-115024132D01*
X514457262Y-37140105D02*
X510318463Y-36961586D01*
X708328503Y-16628905D02*
X714835657Y-18138984D01*
X7594268Y-98672036D02*
X9710257Y-101893349D01*
X669029334Y-33745204D02*
X658158195Y-34717472D01*
X541701113Y-186562597D02*
X532099568Y-186602820D01*
X9710257Y-101891718D02*
X11379754Y-103124117D01*
X719083166Y-21481704D02*
X717169069Y-23683265D01*
X434317551Y-14777278D02*
X434437910Y-14768931D01*
X501186706Y-11005226D02*
X513214846Y-10742727D01*
X472211237Y-184946641D02*
X469178966Y-184754726D01*
X621320562Y-160036279D02*
X630661977Y-160352901D01*
X714835657Y-18140770D02*
X716967177Y-19369753D01*
X566102939Y-186642539D02*
X558663974Y-186730944D01*
X19583581Y-108239493D02*
X20593044Y-111902562D01*
X484759638Y-11458980D02*
X485543913Y-11433821D01*
X553185696Y-10343484D02*
X559712262Y-10272938D01*
X672345032Y-33326160D02*
X669029334Y-33746834D01*
X513214846Y-10740863D02*
X515552141Y-10707784D01*
X662871610Y-12245429D02*
X672810938Y-12804361D01*
X646630904Y-185553483D02*
X646572666Y-185554532D01*
X1116854276Y-105019927D02*
X1119851604Y-103174590D01*
X463654097Y-33826970D02*
X458564075Y-33288694D01*
X576026736Y-159094101D02*
X579016300Y-159091072D01*
X412202547Y-21481704D02*
X415029044Y-19365870D01*
X451886089Y-32487180D02*
X443026110Y-31230942D01*
X717169069Y-23683071D02*
X715414157Y-24820852D01*
X656484816Y-162049497D02*
X673393320Y-163734408D01*
X646929861Y-11458980D02*
X659862634Y-12055029D01*
X510225282Y-186212973D02*
X502786317Y-185985495D01*
X528217018Y-186546057D02*
X526481518Y-186532934D01*
X434084598Y-14799875D02*
X434317551Y-14776696D01*
X559712262Y-10273055D02*
X566102939Y-10354472D01*
X1111706015Y-84767615D02*
X1112843602Y-84429640D01*
X616413019Y-186277618D02*
X604897377Y-186474696D01*
X715581106Y-172177400D02*
X717266133Y-173274027D01*
X572843045Y-10266260D02*
X578728991Y-10327294D01*
X717029297Y-177656804D02*
X714878365Y-178861016D01*
X485656507Y-11431491D02*
X499272609Y-11037801D01*
X459189165Y-12805293D02*
X469159553Y-12253039D01*
X589650603Y-186717938D02*
X579097833Y-186653293D01*
X469159553Y-12251952D02*
X472230650Y-12062794D01*
X473562364Y-34740185D02*
X463654097Y-33828368D01*
X19362276Y-108064778D02*
X19521461Y-108183079D01*
X687898526Y-31316086D02*
X680381910Y-32438415D01*
X662840550Y-184769247D02*
X659889812Y-184956619D01*
X697814558Y-182209366D02*
X685452520Y-183283240D01*
X715414157Y-24822600D02*
X709512681Y-26870839D01*
X604839138Y-159478318D02*
X611466651Y-159731693D01*
X19801004Y-88859939D02*
X19362276Y-89181880D01*
X646572666Y-185554726D02*
X632789614Y-185938904D01*
X20593044Y-111902989D02*
X20379504Y-112244226D01*
X475721062Y-34930663D02*
X473562364Y-34740767D01*
X485574974Y-185552746D02*
X485190601Y-185542884D01*
X422452479Y-170112932D02*
X426746579Y-168836272D01*
X1118535420Y-81985109D02*
X1125753080Y-81047939D01*
X1111469179Y-85084781D02*
X1111706015Y-84767421D01*
X566102939Y-10354200D02*
X572843045Y-10265173D01*
X19521461Y-108182419D02*
X19583581Y-108241317D01*
X581769027Y-37868316D02*
X579016300Y-37920575D01*
X499272609Y-11038072D02*
X501186706Y-11006740D01*
X1119851604Y-103172765D02*
X1121816174Y-101870053D01*
X530853269Y-10505231D02*
X542388325Y-10276821D01*
X601119656Y-186495701D02*
X589782610Y-186719297D01*
X481428410Y-35339029D02*
X475721062Y-34931012D01*
X1112843602Y-107826739D02*
X1116854276Y-105018801D01*
X1111045981Y-111860514D02*
X1112136978Y-108295673D01*
X13060898Y-115025180D02*
X6452798Y-115975357D01*
X599714173Y-159399114D02*
X604839138Y-159479327D01*
X1121816174Y-101869354D02*
X1124433013Y-98666950D01*
X62121Y-80047833D02*
X6452798Y-80985818D01*
X519974365Y-37255572D02*
X514457262Y-37140183D01*
X578728991Y-10325469D02*
X590489234Y-10433365D01*
X679826705Y-13319769D02*
X685506876Y-13693465D01*
X697717495Y-14749285D02*
X697907740Y-14765048D01*
X490828063Y-160977215D02*
X501543901Y-160321840D01*
X589782610Y-186717472D02*
X589650603Y-186719297D01*
X416054037Y-172177400D02*
X422452479Y-170113631D01*
X426746579Y-168836505D02*
X431677417Y-167811279D01*
X617748616Y-37167633D02*
X611350174Y-37287720D01*
X1117188175Y-91926960D02*
X1112843602Y-88867394D01*
X9861677Y-95131073D02*
X7605915Y-98325285D01*
X540280100Y-159166083D02*
X550036948Y-159118250D01*
X1131538079Y-80059170D02*
X1138666441Y-79700694D01*
X619317167Y-186234871D02*
X616413019Y-186276686D01*
X604839138Y-37522925D02*
X599710290Y-37598324D01*
X416038507Y-24822600D02*
X414815503Y-23694913D01*
X1124448543Y-98335341D02*
X1122064658Y-95095004D01*
X532099568Y-186601616D02*
X528217018Y-186544582D01*
X1112327223Y-108141536D02*
X1112843602Y-107825885D01*
X20907531Y-85144300D02*
X19967954Y-88704327D01*
X550036948Y-159118871D02*
X553189578Y-159063894D01*
X446516523Y-13698046D02*
X452153985Y-13324622D01*
X672810938Y-12803545D02*
X679826705Y-13320740D01*
X611350174Y-37286361D02*
X604839138Y-37524555D01*
X1151575919Y-117930453D02*
X1151436147Y-117928279D01*
X20379504Y-112242634D02*
X19362276Y-112605303D01*
X708297443Y-180356341D02*
X697899974Y-182200009D01*
X19362276Y-89182968D02*
X14718747Y-91977316D01*
X646957039Y-185541020D02*
X646630904Y-185554532D01*
X643571455Y-161083869D02*
X649659293Y-161595317D01*
X621685522Y-10795258D02*
X629768991Y-11022270D01*
X1151436147Y-117930182D02*
X1151110000Y-117913871D01*
X7605915Y-98326295D02*
X7594268Y-98670832D01*
X612798365Y-10585212D02*
X617768029Y-10727197D01*
X688810925Y-165769601D02*
X690775496Y-166040836D01*
X434500031Y-182260965D02*
X434270961Y-182242717D01*
X415029044Y-19367035D02*
X416644184Y-18138984D01*
X553189578Y-37913975D02*
X549885528Y-37858455D01*
X555709353Y-37908074D02*
X553189578Y-37912810D01*
X11702005Y-93827041D02*
X9861677Y-95129947D01*
X19967954Y-88702541D02*
X19801004Y-88859629D01*
X621437039Y-36981853D02*
X617748616Y-37167361D01*
X646630904Y-11447254D02*
X646929861Y-11457116D01*
X14718747Y-91979025D02*
X11702005Y-93825410D01*
X433828350Y-182200125D02*
X423636657Y-180382975D01*
X579097833Y-186652090D02*
X571872408Y-186723179D01*
X673393320Y-163734408D02*
X680805108Y-164569350D01*
X485190601Y-185541020D02*
X472211237Y-184944971D01*
X527366740Y-37501377D02*
X519974365Y-37256659D01*
X630661977Y-36660805D02*
X621437039Y-36980998D01*
X717266133Y-173274260D02*
X719207408Y-175518140D01*
X14458616Y-105059840D02*
X19362276Y-108066603D01*
X704651729Y-168836505D02*
X709570919Y-170101983D01*
X490932892Y-36005935D02*
X488634423Y-35866707D01*
X1111368233Y-112275636D02*
X1111045981Y-111859854D01*
X704465366Y-28163495D02*
X700019847Y-29212016D01*
X547983079Y-186697904D02*
X541701113Y-186563995D01*
X709570919Y-170101518D02*
X715581106Y-172179148D01*
X531816142Y-159393057D02*
X540280100Y-159164841D01*
X1124433013Y-98666717D02*
X1124448543Y-98336933D01*
X416644184Y-18140770D02*
X423687130Y-16640320D01*
X591925778Y-37829801D02*
X581769027Y-37870102D01*
X692883720Y-166429324D02*
X700081967Y-167756923D01*
X629768991Y-11021377D02*
X646929861Y-11457116D01*
X685506876Y-13691562D02*
X697717495Y-14749518D01*
X659889812Y-184957395D02*
X646957039Y-185542884D01*
X1138666441Y-79700694D02*
X1151766164Y-79052308D01*
X485543913Y-11434093D02*
X485656507Y-11429938D01*
X672807055Y-184194707D02*
X662840550Y-184770257D01*
X469178966Y-184756085D02*
X459181400Y-184199522D01*
X692639119Y-30547613D02*
X690068872Y-31017402D01*
X0Y-116942849D02*
X0Y-117287658D01*
X1122064658Y-95096867D02*
X1120313628Y-93895296D01*
X414815503Y-23694486D02*
X412202547Y-21481860D01*
X526481518Y-186533594D02*
X518728066Y-186416458D01*
X426680576Y-28163495D02*
X422436949Y-26894134D01*
X630972581Y-185971362D02*
X619317167Y-186233978D01*
X542520331Y-10277054D02*
X542601865Y-10276821D01*
X697849501Y-182206648D02*
X697814558Y-182207774D01*
X452153985Y-13324584D02*
X459189165Y-12804361D01*
X680805108Y-164568340D02*
X688810925Y-165769058D01*
X527366740Y-159467019D02*
X531816142Y-159393911D01*
X604897377Y-186474230D02*
X601119656Y-186494109D01*
X680381910Y-32436629D02*
X672345032Y-33327519D01*
X700081967Y-167756574D02*
X704651729Y-168836272D01*
X463525973Y-163198655D02*
X473558482Y-162259233D01*
X649659293Y-161594696D02*
X656484816Y-162049575D01*
X6452798Y-80984964D02*
X13235613Y-81948690D01*
X452173398Y-183685084D02*
X446493227Y-183314300D01*
X630661977Y-160352280D02*
X641067210Y-160962461D01*
X579016300Y-37921391D02*
X576084974Y-37912810D01*
X558663974Y-186730439D02*
X553469122Y-186672706D01*
X617768029Y-10726343D02*
X621685522Y-10797083D01*
X514457262Y-159810082D02*
X520312147Y-159692867D01*
X1112843602Y-84430727D02*
X1118535420Y-81983633D01*
X423636657Y-180381811D02*
X416578181Y-178861016D01*
X510318463Y-36962828D02*
X501543901Y-36643217D01*
X1118294702Y-115050766D02*
X1112843602Y-112717897D01*
X603942269Y-10453982D02*
X605631178Y-10467066D01*
X714878365Y-178859230D02*
X708297443Y-180355797D01*
X709512681Y-26872081D02*
X704465366Y-28163728D01*
X1112843602Y-112718480D02*
X1111368233Y-112275287D01*
X434437910Y-14767844D02*
X446516523Y-13697347D01*
X617748616Y-159858342D02*
X621320562Y-160034532D01*
X422436949Y-26894600D02*
X416038507Y-24820852D01*
X485625447Y-185553988D02*
X485574974Y-185554532D01*
X579016300Y-159091072D02*
X591925778Y-159170199D01*
X458564075Y-33288189D02*
X451886089Y-32488888D01*
X434270961Y-182243105D02*
X433828350Y-182200009D01*
X656484816Y-34895137D02*
X650393095Y-35295972D01*
X700019847Y-29213647D02*
X692639119Y-30547613D01*
X697899974Y-182200125D02*
X697849501Y-182207774D01*
X472230650Y-12062988D02*
X484759638Y-11457116D01*
X605631178Y-10466716D02*
X612798365Y-10583542D01*
X500064649Y-185942787D02*
X485625447Y-185554532D01*
X273313849Y-174970000D02*
X273861989Y-175518140D01*
X273861989Y-175518140D02*
X412228140Y-175518140D01*
%TD*%
M02*
