%TF.GenerationSoftware,KiCad,Pcbnew,8.0.3-8.0.3-0~ubuntu20.04.1*%
%TF.CreationDate,2024-07-17T11:30:26-04:00*%
%TF.ProjectId,min_x,6d696e5f-782e-46b6-9963-61645f706362,rev?*%
%TF.SameCoordinates,Original*%
%TF.FileFunction,Paste,Bot*%
%TF.FilePolarity,Positive*%
%FSLAX46Y46*%
G04 Gerber Fmt 4.6, Leading zero omitted, Abs format (unit mm)*
G04 Created by KiCad (PCBNEW 8.0.3-8.0.3-0~ubuntu20.04.1) date 2024-07-17 11:30:26*
%MOMM*%
%LPD*%
G01*
G04 APERTURE LIST*
%ADD10C,0.100000*%
%ADD11C,0.150000*%
%ADD12C,0.300000*%
%ADD13C,0.400000*%
G04 APERTURE END LIST*
D10*
D11*
X1099000000Y-456000000D02*
X1207000000Y-456000000D01*
X1207000000Y-488000000D01*
X1099000000Y-488000000D01*
X1099000000Y-456000000D01*
D10*
D11*
X10000000Y-10000000D02*
X1209000000Y-10000000D01*
X1209000000Y-490000000D01*
X10000000Y-490000000D01*
X10000000Y-10000000D01*
D10*
D11*
X12000000Y-12000000D02*
X1207000000Y-12000000D01*
X1207000000Y-488000000D01*
X12000000Y-488000000D01*
X12000000Y-12000000D01*
D10*
D11*
X60000000Y-12000000D02*
X60000000Y-10000000D01*
D10*
D11*
X110000000Y-12000000D02*
X110000000Y-10000000D01*
D10*
D11*
X160000000Y-12000000D02*
X160000000Y-10000000D01*
D10*
D11*
X210000000Y-12000000D02*
X210000000Y-10000000D01*
D10*
D11*
X260000000Y-12000000D02*
X260000000Y-10000000D01*
D10*
D11*
X310000000Y-12000000D02*
X310000000Y-10000000D01*
D10*
D11*
X360000000Y-12000000D02*
X360000000Y-10000000D01*
D10*
D11*
X410000000Y-12000000D02*
X410000000Y-10000000D01*
D10*
D11*
X460000000Y-12000000D02*
X460000000Y-10000000D01*
D10*
D11*
X510000000Y-12000000D02*
X510000000Y-10000000D01*
D10*
D11*
X560000000Y-12000000D02*
X560000000Y-10000000D01*
D10*
D11*
X610000000Y-12000000D02*
X610000000Y-10000000D01*
D10*
D11*
X660000000Y-12000000D02*
X660000000Y-10000000D01*
D10*
D11*
X710000000Y-12000000D02*
X710000000Y-10000000D01*
D10*
D11*
X760000000Y-12000000D02*
X760000000Y-10000000D01*
D10*
D11*
X810000000Y-12000000D02*
X810000000Y-10000000D01*
D10*
D11*
X860000000Y-12000000D02*
X860000000Y-10000000D01*
D10*
D11*
X910000000Y-12000000D02*
X910000000Y-10000000D01*
D10*
D11*
X960000000Y-12000000D02*
X960000000Y-10000000D01*
D10*
D11*
X1010000000Y-12000000D02*
X1010000000Y-10000000D01*
D10*
D11*
X1060000000Y-12000000D02*
X1060000000Y-10000000D01*
D10*
D11*
X1110000000Y-12000000D02*
X1110000000Y-10000000D01*
D10*
D11*
X1160000000Y-12000000D02*
X1160000000Y-10000000D01*
D10*
D11*
X36089160Y-11593604D02*
X35346303Y-11593604D01*
X35717731Y-11593604D02*
X35717731Y-10293604D01*
X35717731Y-10293604D02*
X35593922Y-10479319D01*
X35593922Y-10479319D02*
X35470112Y-10603128D01*
X35470112Y-10603128D02*
X35346303Y-10665033D01*
D10*
D11*
X85346303Y-10417414D02*
X85408207Y-10355509D01*
X85408207Y-10355509D02*
X85532017Y-10293604D01*
X85532017Y-10293604D02*
X85841541Y-10293604D01*
X85841541Y-10293604D02*
X85965350Y-10355509D01*
X85965350Y-10355509D02*
X86027255Y-10417414D01*
X86027255Y-10417414D02*
X86089160Y-10541223D01*
X86089160Y-10541223D02*
X86089160Y-10665033D01*
X86089160Y-10665033D02*
X86027255Y-10850747D01*
X86027255Y-10850747D02*
X85284398Y-11593604D01*
X85284398Y-11593604D02*
X86089160Y-11593604D01*
D10*
D11*
X135284398Y-10293604D02*
X136089160Y-10293604D01*
X136089160Y-10293604D02*
X135655826Y-10788842D01*
X135655826Y-10788842D02*
X135841541Y-10788842D01*
X135841541Y-10788842D02*
X135965350Y-10850747D01*
X135965350Y-10850747D02*
X136027255Y-10912652D01*
X136027255Y-10912652D02*
X136089160Y-11036461D01*
X136089160Y-11036461D02*
X136089160Y-11345985D01*
X136089160Y-11345985D02*
X136027255Y-11469795D01*
X136027255Y-11469795D02*
X135965350Y-11531700D01*
X135965350Y-11531700D02*
X135841541Y-11593604D01*
X135841541Y-11593604D02*
X135470112Y-11593604D01*
X135470112Y-11593604D02*
X135346303Y-11531700D01*
X135346303Y-11531700D02*
X135284398Y-11469795D01*
D10*
D11*
X185965350Y-10726938D02*
X185965350Y-11593604D01*
X185655826Y-10231700D02*
X185346303Y-11160271D01*
X185346303Y-11160271D02*
X186151064Y-11160271D01*
D10*
D11*
X236027255Y-10293604D02*
X235408207Y-10293604D01*
X235408207Y-10293604D02*
X235346303Y-10912652D01*
X235346303Y-10912652D02*
X235408207Y-10850747D01*
X235408207Y-10850747D02*
X235532017Y-10788842D01*
X235532017Y-10788842D02*
X235841541Y-10788842D01*
X235841541Y-10788842D02*
X235965350Y-10850747D01*
X235965350Y-10850747D02*
X236027255Y-10912652D01*
X236027255Y-10912652D02*
X236089160Y-11036461D01*
X236089160Y-11036461D02*
X236089160Y-11345985D01*
X236089160Y-11345985D02*
X236027255Y-11469795D01*
X236027255Y-11469795D02*
X235965350Y-11531700D01*
X235965350Y-11531700D02*
X235841541Y-11593604D01*
X235841541Y-11593604D02*
X235532017Y-11593604D01*
X235532017Y-11593604D02*
X235408207Y-11531700D01*
X235408207Y-11531700D02*
X235346303Y-11469795D01*
D10*
D11*
X285965350Y-10293604D02*
X285717731Y-10293604D01*
X285717731Y-10293604D02*
X285593922Y-10355509D01*
X285593922Y-10355509D02*
X285532017Y-10417414D01*
X285532017Y-10417414D02*
X285408207Y-10603128D01*
X285408207Y-10603128D02*
X285346303Y-10850747D01*
X285346303Y-10850747D02*
X285346303Y-11345985D01*
X285346303Y-11345985D02*
X285408207Y-11469795D01*
X285408207Y-11469795D02*
X285470112Y-11531700D01*
X285470112Y-11531700D02*
X285593922Y-11593604D01*
X285593922Y-11593604D02*
X285841541Y-11593604D01*
X285841541Y-11593604D02*
X285965350Y-11531700D01*
X285965350Y-11531700D02*
X286027255Y-11469795D01*
X286027255Y-11469795D02*
X286089160Y-11345985D01*
X286089160Y-11345985D02*
X286089160Y-11036461D01*
X286089160Y-11036461D02*
X286027255Y-10912652D01*
X286027255Y-10912652D02*
X285965350Y-10850747D01*
X285965350Y-10850747D02*
X285841541Y-10788842D01*
X285841541Y-10788842D02*
X285593922Y-10788842D01*
X285593922Y-10788842D02*
X285470112Y-10850747D01*
X285470112Y-10850747D02*
X285408207Y-10912652D01*
X285408207Y-10912652D02*
X285346303Y-11036461D01*
D10*
D11*
X335284398Y-10293604D02*
X336151064Y-10293604D01*
X336151064Y-10293604D02*
X335593922Y-11593604D01*
D10*
D11*
X385593922Y-10850747D02*
X385470112Y-10788842D01*
X385470112Y-10788842D02*
X385408207Y-10726938D01*
X385408207Y-10726938D02*
X385346303Y-10603128D01*
X385346303Y-10603128D02*
X385346303Y-10541223D01*
X385346303Y-10541223D02*
X385408207Y-10417414D01*
X385408207Y-10417414D02*
X385470112Y-10355509D01*
X385470112Y-10355509D02*
X385593922Y-10293604D01*
X385593922Y-10293604D02*
X385841541Y-10293604D01*
X385841541Y-10293604D02*
X385965350Y-10355509D01*
X385965350Y-10355509D02*
X386027255Y-10417414D01*
X386027255Y-10417414D02*
X386089160Y-10541223D01*
X386089160Y-10541223D02*
X386089160Y-10603128D01*
X386089160Y-10603128D02*
X386027255Y-10726938D01*
X386027255Y-10726938D02*
X385965350Y-10788842D01*
X385965350Y-10788842D02*
X385841541Y-10850747D01*
X385841541Y-10850747D02*
X385593922Y-10850747D01*
X385593922Y-10850747D02*
X385470112Y-10912652D01*
X385470112Y-10912652D02*
X385408207Y-10974557D01*
X385408207Y-10974557D02*
X385346303Y-11098366D01*
X385346303Y-11098366D02*
X385346303Y-11345985D01*
X385346303Y-11345985D02*
X385408207Y-11469795D01*
X385408207Y-11469795D02*
X385470112Y-11531700D01*
X385470112Y-11531700D02*
X385593922Y-11593604D01*
X385593922Y-11593604D02*
X385841541Y-11593604D01*
X385841541Y-11593604D02*
X385965350Y-11531700D01*
X385965350Y-11531700D02*
X386027255Y-11469795D01*
X386027255Y-11469795D02*
X386089160Y-11345985D01*
X386089160Y-11345985D02*
X386089160Y-11098366D01*
X386089160Y-11098366D02*
X386027255Y-10974557D01*
X386027255Y-10974557D02*
X385965350Y-10912652D01*
X385965350Y-10912652D02*
X385841541Y-10850747D01*
D10*
D11*
X435470112Y-11593604D02*
X435717731Y-11593604D01*
X435717731Y-11593604D02*
X435841541Y-11531700D01*
X435841541Y-11531700D02*
X435903445Y-11469795D01*
X435903445Y-11469795D02*
X436027255Y-11284080D01*
X436027255Y-11284080D02*
X436089160Y-11036461D01*
X436089160Y-11036461D02*
X436089160Y-10541223D01*
X436089160Y-10541223D02*
X436027255Y-10417414D01*
X436027255Y-10417414D02*
X435965350Y-10355509D01*
X435965350Y-10355509D02*
X435841541Y-10293604D01*
X435841541Y-10293604D02*
X435593922Y-10293604D01*
X435593922Y-10293604D02*
X435470112Y-10355509D01*
X435470112Y-10355509D02*
X435408207Y-10417414D01*
X435408207Y-10417414D02*
X435346303Y-10541223D01*
X435346303Y-10541223D02*
X435346303Y-10850747D01*
X435346303Y-10850747D02*
X435408207Y-10974557D01*
X435408207Y-10974557D02*
X435470112Y-11036461D01*
X435470112Y-11036461D02*
X435593922Y-11098366D01*
X435593922Y-11098366D02*
X435841541Y-11098366D01*
X435841541Y-11098366D02*
X435965350Y-11036461D01*
X435965350Y-11036461D02*
X436027255Y-10974557D01*
X436027255Y-10974557D02*
X436089160Y-10850747D01*
D10*
D11*
X486089160Y-11593604D02*
X485346303Y-11593604D01*
X485717731Y-11593604D02*
X485717731Y-10293604D01*
X485717731Y-10293604D02*
X485593922Y-10479319D01*
X485593922Y-10479319D02*
X485470112Y-10603128D01*
X485470112Y-10603128D02*
X485346303Y-10665033D01*
X486893921Y-10293604D02*
X487017731Y-10293604D01*
X487017731Y-10293604D02*
X487141540Y-10355509D01*
X487141540Y-10355509D02*
X487203445Y-10417414D01*
X487203445Y-10417414D02*
X487265350Y-10541223D01*
X487265350Y-10541223D02*
X487327255Y-10788842D01*
X487327255Y-10788842D02*
X487327255Y-11098366D01*
X487327255Y-11098366D02*
X487265350Y-11345985D01*
X487265350Y-11345985D02*
X487203445Y-11469795D01*
X487203445Y-11469795D02*
X487141540Y-11531700D01*
X487141540Y-11531700D02*
X487017731Y-11593604D01*
X487017731Y-11593604D02*
X486893921Y-11593604D01*
X486893921Y-11593604D02*
X486770112Y-11531700D01*
X486770112Y-11531700D02*
X486708207Y-11469795D01*
X486708207Y-11469795D02*
X486646302Y-11345985D01*
X486646302Y-11345985D02*
X486584398Y-11098366D01*
X486584398Y-11098366D02*
X486584398Y-10788842D01*
X486584398Y-10788842D02*
X486646302Y-10541223D01*
X486646302Y-10541223D02*
X486708207Y-10417414D01*
X486708207Y-10417414D02*
X486770112Y-10355509D01*
X486770112Y-10355509D02*
X486893921Y-10293604D01*
D10*
D11*
X536089160Y-11593604D02*
X535346303Y-11593604D01*
X535717731Y-11593604D02*
X535717731Y-10293604D01*
X535717731Y-10293604D02*
X535593922Y-10479319D01*
X535593922Y-10479319D02*
X535470112Y-10603128D01*
X535470112Y-10603128D02*
X535346303Y-10665033D01*
X537327255Y-11593604D02*
X536584398Y-11593604D01*
X536955826Y-11593604D02*
X536955826Y-10293604D01*
X536955826Y-10293604D02*
X536832017Y-10479319D01*
X536832017Y-10479319D02*
X536708207Y-10603128D01*
X536708207Y-10603128D02*
X536584398Y-10665033D01*
D10*
D11*
X586089160Y-11593604D02*
X585346303Y-11593604D01*
X585717731Y-11593604D02*
X585717731Y-10293604D01*
X585717731Y-10293604D02*
X585593922Y-10479319D01*
X585593922Y-10479319D02*
X585470112Y-10603128D01*
X585470112Y-10603128D02*
X585346303Y-10665033D01*
X586584398Y-10417414D02*
X586646302Y-10355509D01*
X586646302Y-10355509D02*
X586770112Y-10293604D01*
X586770112Y-10293604D02*
X587079636Y-10293604D01*
X587079636Y-10293604D02*
X587203445Y-10355509D01*
X587203445Y-10355509D02*
X587265350Y-10417414D01*
X587265350Y-10417414D02*
X587327255Y-10541223D01*
X587327255Y-10541223D02*
X587327255Y-10665033D01*
X587327255Y-10665033D02*
X587265350Y-10850747D01*
X587265350Y-10850747D02*
X586522493Y-11593604D01*
X586522493Y-11593604D02*
X587327255Y-11593604D01*
D10*
D11*
X636089160Y-11593604D02*
X635346303Y-11593604D01*
X635717731Y-11593604D02*
X635717731Y-10293604D01*
X635717731Y-10293604D02*
X635593922Y-10479319D01*
X635593922Y-10479319D02*
X635470112Y-10603128D01*
X635470112Y-10603128D02*
X635346303Y-10665033D01*
X636522493Y-10293604D02*
X637327255Y-10293604D01*
X637327255Y-10293604D02*
X636893921Y-10788842D01*
X636893921Y-10788842D02*
X637079636Y-10788842D01*
X637079636Y-10788842D02*
X637203445Y-10850747D01*
X637203445Y-10850747D02*
X637265350Y-10912652D01*
X637265350Y-10912652D02*
X637327255Y-11036461D01*
X637327255Y-11036461D02*
X637327255Y-11345985D01*
X637327255Y-11345985D02*
X637265350Y-11469795D01*
X637265350Y-11469795D02*
X637203445Y-11531700D01*
X637203445Y-11531700D02*
X637079636Y-11593604D01*
X637079636Y-11593604D02*
X636708207Y-11593604D01*
X636708207Y-11593604D02*
X636584398Y-11531700D01*
X636584398Y-11531700D02*
X636522493Y-11469795D01*
D10*
D11*
X686089160Y-11593604D02*
X685346303Y-11593604D01*
X685717731Y-11593604D02*
X685717731Y-10293604D01*
X685717731Y-10293604D02*
X685593922Y-10479319D01*
X685593922Y-10479319D02*
X685470112Y-10603128D01*
X685470112Y-10603128D02*
X685346303Y-10665033D01*
X687203445Y-10726938D02*
X687203445Y-11593604D01*
X686893921Y-10231700D02*
X686584398Y-11160271D01*
X686584398Y-11160271D02*
X687389159Y-11160271D01*
D10*
D11*
X736089160Y-11593604D02*
X735346303Y-11593604D01*
X735717731Y-11593604D02*
X735717731Y-10293604D01*
X735717731Y-10293604D02*
X735593922Y-10479319D01*
X735593922Y-10479319D02*
X735470112Y-10603128D01*
X735470112Y-10603128D02*
X735346303Y-10665033D01*
X737265350Y-10293604D02*
X736646302Y-10293604D01*
X736646302Y-10293604D02*
X736584398Y-10912652D01*
X736584398Y-10912652D02*
X736646302Y-10850747D01*
X736646302Y-10850747D02*
X736770112Y-10788842D01*
X736770112Y-10788842D02*
X737079636Y-10788842D01*
X737079636Y-10788842D02*
X737203445Y-10850747D01*
X737203445Y-10850747D02*
X737265350Y-10912652D01*
X737265350Y-10912652D02*
X737327255Y-11036461D01*
X737327255Y-11036461D02*
X737327255Y-11345985D01*
X737327255Y-11345985D02*
X737265350Y-11469795D01*
X737265350Y-11469795D02*
X737203445Y-11531700D01*
X737203445Y-11531700D02*
X737079636Y-11593604D01*
X737079636Y-11593604D02*
X736770112Y-11593604D01*
X736770112Y-11593604D02*
X736646302Y-11531700D01*
X736646302Y-11531700D02*
X736584398Y-11469795D01*
D10*
D11*
X786089160Y-11593604D02*
X785346303Y-11593604D01*
X785717731Y-11593604D02*
X785717731Y-10293604D01*
X785717731Y-10293604D02*
X785593922Y-10479319D01*
X785593922Y-10479319D02*
X785470112Y-10603128D01*
X785470112Y-10603128D02*
X785346303Y-10665033D01*
X787203445Y-10293604D02*
X786955826Y-10293604D01*
X786955826Y-10293604D02*
X786832017Y-10355509D01*
X786832017Y-10355509D02*
X786770112Y-10417414D01*
X786770112Y-10417414D02*
X786646302Y-10603128D01*
X786646302Y-10603128D02*
X786584398Y-10850747D01*
X786584398Y-10850747D02*
X786584398Y-11345985D01*
X786584398Y-11345985D02*
X786646302Y-11469795D01*
X786646302Y-11469795D02*
X786708207Y-11531700D01*
X786708207Y-11531700D02*
X786832017Y-11593604D01*
X786832017Y-11593604D02*
X787079636Y-11593604D01*
X787079636Y-11593604D02*
X787203445Y-11531700D01*
X787203445Y-11531700D02*
X787265350Y-11469795D01*
X787265350Y-11469795D02*
X787327255Y-11345985D01*
X787327255Y-11345985D02*
X787327255Y-11036461D01*
X787327255Y-11036461D02*
X787265350Y-10912652D01*
X787265350Y-10912652D02*
X787203445Y-10850747D01*
X787203445Y-10850747D02*
X787079636Y-10788842D01*
X787079636Y-10788842D02*
X786832017Y-10788842D01*
X786832017Y-10788842D02*
X786708207Y-10850747D01*
X786708207Y-10850747D02*
X786646302Y-10912652D01*
X786646302Y-10912652D02*
X786584398Y-11036461D01*
D10*
D11*
X836089160Y-11593604D02*
X835346303Y-11593604D01*
X835717731Y-11593604D02*
X835717731Y-10293604D01*
X835717731Y-10293604D02*
X835593922Y-10479319D01*
X835593922Y-10479319D02*
X835470112Y-10603128D01*
X835470112Y-10603128D02*
X835346303Y-10665033D01*
X836522493Y-10293604D02*
X837389159Y-10293604D01*
X837389159Y-10293604D02*
X836832017Y-11593604D01*
D10*
D11*
X886089160Y-11593604D02*
X885346303Y-11593604D01*
X885717731Y-11593604D02*
X885717731Y-10293604D01*
X885717731Y-10293604D02*
X885593922Y-10479319D01*
X885593922Y-10479319D02*
X885470112Y-10603128D01*
X885470112Y-10603128D02*
X885346303Y-10665033D01*
X886832017Y-10850747D02*
X886708207Y-10788842D01*
X886708207Y-10788842D02*
X886646302Y-10726938D01*
X886646302Y-10726938D02*
X886584398Y-10603128D01*
X886584398Y-10603128D02*
X886584398Y-10541223D01*
X886584398Y-10541223D02*
X886646302Y-10417414D01*
X886646302Y-10417414D02*
X886708207Y-10355509D01*
X886708207Y-10355509D02*
X886832017Y-10293604D01*
X886832017Y-10293604D02*
X887079636Y-10293604D01*
X887079636Y-10293604D02*
X887203445Y-10355509D01*
X887203445Y-10355509D02*
X887265350Y-10417414D01*
X887265350Y-10417414D02*
X887327255Y-10541223D01*
X887327255Y-10541223D02*
X887327255Y-10603128D01*
X887327255Y-10603128D02*
X887265350Y-10726938D01*
X887265350Y-10726938D02*
X887203445Y-10788842D01*
X887203445Y-10788842D02*
X887079636Y-10850747D01*
X887079636Y-10850747D02*
X886832017Y-10850747D01*
X886832017Y-10850747D02*
X886708207Y-10912652D01*
X886708207Y-10912652D02*
X886646302Y-10974557D01*
X886646302Y-10974557D02*
X886584398Y-11098366D01*
X886584398Y-11098366D02*
X886584398Y-11345985D01*
X886584398Y-11345985D02*
X886646302Y-11469795D01*
X886646302Y-11469795D02*
X886708207Y-11531700D01*
X886708207Y-11531700D02*
X886832017Y-11593604D01*
X886832017Y-11593604D02*
X887079636Y-11593604D01*
X887079636Y-11593604D02*
X887203445Y-11531700D01*
X887203445Y-11531700D02*
X887265350Y-11469795D01*
X887265350Y-11469795D02*
X887327255Y-11345985D01*
X887327255Y-11345985D02*
X887327255Y-11098366D01*
X887327255Y-11098366D02*
X887265350Y-10974557D01*
X887265350Y-10974557D02*
X887203445Y-10912652D01*
X887203445Y-10912652D02*
X887079636Y-10850747D01*
D10*
D11*
X936089160Y-11593604D02*
X935346303Y-11593604D01*
X935717731Y-11593604D02*
X935717731Y-10293604D01*
X935717731Y-10293604D02*
X935593922Y-10479319D01*
X935593922Y-10479319D02*
X935470112Y-10603128D01*
X935470112Y-10603128D02*
X935346303Y-10665033D01*
X936708207Y-11593604D02*
X936955826Y-11593604D01*
X936955826Y-11593604D02*
X937079636Y-11531700D01*
X937079636Y-11531700D02*
X937141540Y-11469795D01*
X937141540Y-11469795D02*
X937265350Y-11284080D01*
X937265350Y-11284080D02*
X937327255Y-11036461D01*
X937327255Y-11036461D02*
X937327255Y-10541223D01*
X937327255Y-10541223D02*
X937265350Y-10417414D01*
X937265350Y-10417414D02*
X937203445Y-10355509D01*
X937203445Y-10355509D02*
X937079636Y-10293604D01*
X937079636Y-10293604D02*
X936832017Y-10293604D01*
X936832017Y-10293604D02*
X936708207Y-10355509D01*
X936708207Y-10355509D02*
X936646302Y-10417414D01*
X936646302Y-10417414D02*
X936584398Y-10541223D01*
X936584398Y-10541223D02*
X936584398Y-10850747D01*
X936584398Y-10850747D02*
X936646302Y-10974557D01*
X936646302Y-10974557D02*
X936708207Y-11036461D01*
X936708207Y-11036461D02*
X936832017Y-11098366D01*
X936832017Y-11098366D02*
X937079636Y-11098366D01*
X937079636Y-11098366D02*
X937203445Y-11036461D01*
X937203445Y-11036461D02*
X937265350Y-10974557D01*
X937265350Y-10974557D02*
X937327255Y-10850747D01*
D10*
D11*
X985346303Y-10417414D02*
X985408207Y-10355509D01*
X985408207Y-10355509D02*
X985532017Y-10293604D01*
X985532017Y-10293604D02*
X985841541Y-10293604D01*
X985841541Y-10293604D02*
X985965350Y-10355509D01*
X985965350Y-10355509D02*
X986027255Y-10417414D01*
X986027255Y-10417414D02*
X986089160Y-10541223D01*
X986089160Y-10541223D02*
X986089160Y-10665033D01*
X986089160Y-10665033D02*
X986027255Y-10850747D01*
X986027255Y-10850747D02*
X985284398Y-11593604D01*
X985284398Y-11593604D02*
X986089160Y-11593604D01*
X986893921Y-10293604D02*
X987017731Y-10293604D01*
X987017731Y-10293604D02*
X987141540Y-10355509D01*
X987141540Y-10355509D02*
X987203445Y-10417414D01*
X987203445Y-10417414D02*
X987265350Y-10541223D01*
X987265350Y-10541223D02*
X987327255Y-10788842D01*
X987327255Y-10788842D02*
X987327255Y-11098366D01*
X987327255Y-11098366D02*
X987265350Y-11345985D01*
X987265350Y-11345985D02*
X987203445Y-11469795D01*
X987203445Y-11469795D02*
X987141540Y-11531700D01*
X987141540Y-11531700D02*
X987017731Y-11593604D01*
X987017731Y-11593604D02*
X986893921Y-11593604D01*
X986893921Y-11593604D02*
X986770112Y-11531700D01*
X986770112Y-11531700D02*
X986708207Y-11469795D01*
X986708207Y-11469795D02*
X986646302Y-11345985D01*
X986646302Y-11345985D02*
X986584398Y-11098366D01*
X986584398Y-11098366D02*
X986584398Y-10788842D01*
X986584398Y-10788842D02*
X986646302Y-10541223D01*
X986646302Y-10541223D02*
X986708207Y-10417414D01*
X986708207Y-10417414D02*
X986770112Y-10355509D01*
X986770112Y-10355509D02*
X986893921Y-10293604D01*
D10*
D11*
X1035346303Y-10417414D02*
X1035408207Y-10355509D01*
X1035408207Y-10355509D02*
X1035532017Y-10293604D01*
X1035532017Y-10293604D02*
X1035841541Y-10293604D01*
X1035841541Y-10293604D02*
X1035965350Y-10355509D01*
X1035965350Y-10355509D02*
X1036027255Y-10417414D01*
X1036027255Y-10417414D02*
X1036089160Y-10541223D01*
X1036089160Y-10541223D02*
X1036089160Y-10665033D01*
X1036089160Y-10665033D02*
X1036027255Y-10850747D01*
X1036027255Y-10850747D02*
X1035284398Y-11593604D01*
X1035284398Y-11593604D02*
X1036089160Y-11593604D01*
X1037327255Y-11593604D02*
X1036584398Y-11593604D01*
X1036955826Y-11593604D02*
X1036955826Y-10293604D01*
X1036955826Y-10293604D02*
X1036832017Y-10479319D01*
X1036832017Y-10479319D02*
X1036708207Y-10603128D01*
X1036708207Y-10603128D02*
X1036584398Y-10665033D01*
D10*
D11*
X1085346303Y-10417414D02*
X1085408207Y-10355509D01*
X1085408207Y-10355509D02*
X1085532017Y-10293604D01*
X1085532017Y-10293604D02*
X1085841541Y-10293604D01*
X1085841541Y-10293604D02*
X1085965350Y-10355509D01*
X1085965350Y-10355509D02*
X1086027255Y-10417414D01*
X1086027255Y-10417414D02*
X1086089160Y-10541223D01*
X1086089160Y-10541223D02*
X1086089160Y-10665033D01*
X1086089160Y-10665033D02*
X1086027255Y-10850747D01*
X1086027255Y-10850747D02*
X1085284398Y-11593604D01*
X1085284398Y-11593604D02*
X1086089160Y-11593604D01*
X1086584398Y-10417414D02*
X1086646302Y-10355509D01*
X1086646302Y-10355509D02*
X1086770112Y-10293604D01*
X1086770112Y-10293604D02*
X1087079636Y-10293604D01*
X1087079636Y-10293604D02*
X1087203445Y-10355509D01*
X1087203445Y-10355509D02*
X1087265350Y-10417414D01*
X1087265350Y-10417414D02*
X1087327255Y-10541223D01*
X1087327255Y-10541223D02*
X1087327255Y-10665033D01*
X1087327255Y-10665033D02*
X1087265350Y-10850747D01*
X1087265350Y-10850747D02*
X1086522493Y-11593604D01*
X1086522493Y-11593604D02*
X1087327255Y-11593604D01*
D10*
D11*
X1135346303Y-10417414D02*
X1135408207Y-10355509D01*
X1135408207Y-10355509D02*
X1135532017Y-10293604D01*
X1135532017Y-10293604D02*
X1135841541Y-10293604D01*
X1135841541Y-10293604D02*
X1135965350Y-10355509D01*
X1135965350Y-10355509D02*
X1136027255Y-10417414D01*
X1136027255Y-10417414D02*
X1136089160Y-10541223D01*
X1136089160Y-10541223D02*
X1136089160Y-10665033D01*
X1136089160Y-10665033D02*
X1136027255Y-10850747D01*
X1136027255Y-10850747D02*
X1135284398Y-11593604D01*
X1135284398Y-11593604D02*
X1136089160Y-11593604D01*
X1136522493Y-10293604D02*
X1137327255Y-10293604D01*
X1137327255Y-10293604D02*
X1136893921Y-10788842D01*
X1136893921Y-10788842D02*
X1137079636Y-10788842D01*
X1137079636Y-10788842D02*
X1137203445Y-10850747D01*
X1137203445Y-10850747D02*
X1137265350Y-10912652D01*
X1137265350Y-10912652D02*
X1137327255Y-11036461D01*
X1137327255Y-11036461D02*
X1137327255Y-11345985D01*
X1137327255Y-11345985D02*
X1137265350Y-11469795D01*
X1137265350Y-11469795D02*
X1137203445Y-11531700D01*
X1137203445Y-11531700D02*
X1137079636Y-11593604D01*
X1137079636Y-11593604D02*
X1136708207Y-11593604D01*
X1136708207Y-11593604D02*
X1136584398Y-11531700D01*
X1136584398Y-11531700D02*
X1136522493Y-11469795D01*
D10*
D11*
X1185346303Y-10417414D02*
X1185408207Y-10355509D01*
X1185408207Y-10355509D02*
X1185532017Y-10293604D01*
X1185532017Y-10293604D02*
X1185841541Y-10293604D01*
X1185841541Y-10293604D02*
X1185965350Y-10355509D01*
X1185965350Y-10355509D02*
X1186027255Y-10417414D01*
X1186027255Y-10417414D02*
X1186089160Y-10541223D01*
X1186089160Y-10541223D02*
X1186089160Y-10665033D01*
X1186089160Y-10665033D02*
X1186027255Y-10850747D01*
X1186027255Y-10850747D02*
X1185284398Y-11593604D01*
X1185284398Y-11593604D02*
X1186089160Y-11593604D01*
X1187203445Y-10726938D02*
X1187203445Y-11593604D01*
X1186893921Y-10231700D02*
X1186584398Y-11160271D01*
X1186584398Y-11160271D02*
X1187389159Y-11160271D01*
D10*
D11*
X60000000Y-488000000D02*
X60000000Y-490000000D01*
D10*
D11*
X110000000Y-488000000D02*
X110000000Y-490000000D01*
D10*
D11*
X160000000Y-488000000D02*
X160000000Y-490000000D01*
D10*
D11*
X210000000Y-488000000D02*
X210000000Y-490000000D01*
D10*
D11*
X260000000Y-488000000D02*
X260000000Y-490000000D01*
D10*
D11*
X310000000Y-488000000D02*
X310000000Y-490000000D01*
D10*
D11*
X360000000Y-488000000D02*
X360000000Y-490000000D01*
D10*
D11*
X410000000Y-488000000D02*
X410000000Y-490000000D01*
D10*
D11*
X460000000Y-488000000D02*
X460000000Y-490000000D01*
D10*
D11*
X510000000Y-488000000D02*
X510000000Y-490000000D01*
D10*
D11*
X560000000Y-488000000D02*
X560000000Y-490000000D01*
D10*
D11*
X610000000Y-488000000D02*
X610000000Y-490000000D01*
D10*
D11*
X660000000Y-488000000D02*
X660000000Y-490000000D01*
D10*
D11*
X710000000Y-488000000D02*
X710000000Y-490000000D01*
D10*
D11*
X760000000Y-488000000D02*
X760000000Y-490000000D01*
D10*
D11*
X810000000Y-488000000D02*
X810000000Y-490000000D01*
D10*
D11*
X860000000Y-488000000D02*
X860000000Y-490000000D01*
D10*
D11*
X910000000Y-488000000D02*
X910000000Y-490000000D01*
D10*
D11*
X960000000Y-488000000D02*
X960000000Y-490000000D01*
D10*
D11*
X1010000000Y-488000000D02*
X1010000000Y-490000000D01*
D10*
D11*
X1060000000Y-488000000D02*
X1060000000Y-490000000D01*
D10*
D11*
X1110000000Y-488000000D02*
X1110000000Y-490000000D01*
D10*
D11*
X1160000000Y-488000000D02*
X1160000000Y-490000000D01*
D10*
D11*
X36089160Y-489593604D02*
X35346303Y-489593604D01*
X35717731Y-489593604D02*
X35717731Y-488293604D01*
X35717731Y-488293604D02*
X35593922Y-488479319D01*
X35593922Y-488479319D02*
X35470112Y-488603128D01*
X35470112Y-488603128D02*
X35346303Y-488665033D01*
D10*
D11*
X85346303Y-488417414D02*
X85408207Y-488355509D01*
X85408207Y-488355509D02*
X85532017Y-488293604D01*
X85532017Y-488293604D02*
X85841541Y-488293604D01*
X85841541Y-488293604D02*
X85965350Y-488355509D01*
X85965350Y-488355509D02*
X86027255Y-488417414D01*
X86027255Y-488417414D02*
X86089160Y-488541223D01*
X86089160Y-488541223D02*
X86089160Y-488665033D01*
X86089160Y-488665033D02*
X86027255Y-488850747D01*
X86027255Y-488850747D02*
X85284398Y-489593604D01*
X85284398Y-489593604D02*
X86089160Y-489593604D01*
D10*
D11*
X135284398Y-488293604D02*
X136089160Y-488293604D01*
X136089160Y-488293604D02*
X135655826Y-488788842D01*
X135655826Y-488788842D02*
X135841541Y-488788842D01*
X135841541Y-488788842D02*
X135965350Y-488850747D01*
X135965350Y-488850747D02*
X136027255Y-488912652D01*
X136027255Y-488912652D02*
X136089160Y-489036461D01*
X136089160Y-489036461D02*
X136089160Y-489345985D01*
X136089160Y-489345985D02*
X136027255Y-489469795D01*
X136027255Y-489469795D02*
X135965350Y-489531700D01*
X135965350Y-489531700D02*
X135841541Y-489593604D01*
X135841541Y-489593604D02*
X135470112Y-489593604D01*
X135470112Y-489593604D02*
X135346303Y-489531700D01*
X135346303Y-489531700D02*
X135284398Y-489469795D01*
D10*
D11*
X185965350Y-488726938D02*
X185965350Y-489593604D01*
X185655826Y-488231700D02*
X185346303Y-489160271D01*
X185346303Y-489160271D02*
X186151064Y-489160271D01*
D10*
D11*
X236027255Y-488293604D02*
X235408207Y-488293604D01*
X235408207Y-488293604D02*
X235346303Y-488912652D01*
X235346303Y-488912652D02*
X235408207Y-488850747D01*
X235408207Y-488850747D02*
X235532017Y-488788842D01*
X235532017Y-488788842D02*
X235841541Y-488788842D01*
X235841541Y-488788842D02*
X235965350Y-488850747D01*
X235965350Y-488850747D02*
X236027255Y-488912652D01*
X236027255Y-488912652D02*
X236089160Y-489036461D01*
X236089160Y-489036461D02*
X236089160Y-489345985D01*
X236089160Y-489345985D02*
X236027255Y-489469795D01*
X236027255Y-489469795D02*
X235965350Y-489531700D01*
X235965350Y-489531700D02*
X235841541Y-489593604D01*
X235841541Y-489593604D02*
X235532017Y-489593604D01*
X235532017Y-489593604D02*
X235408207Y-489531700D01*
X235408207Y-489531700D02*
X235346303Y-489469795D01*
D10*
D11*
X285965350Y-488293604D02*
X285717731Y-488293604D01*
X285717731Y-488293604D02*
X285593922Y-488355509D01*
X285593922Y-488355509D02*
X285532017Y-488417414D01*
X285532017Y-488417414D02*
X285408207Y-488603128D01*
X285408207Y-488603128D02*
X285346303Y-488850747D01*
X285346303Y-488850747D02*
X285346303Y-489345985D01*
X285346303Y-489345985D02*
X285408207Y-489469795D01*
X285408207Y-489469795D02*
X285470112Y-489531700D01*
X285470112Y-489531700D02*
X285593922Y-489593604D01*
X285593922Y-489593604D02*
X285841541Y-489593604D01*
X285841541Y-489593604D02*
X285965350Y-489531700D01*
X285965350Y-489531700D02*
X286027255Y-489469795D01*
X286027255Y-489469795D02*
X286089160Y-489345985D01*
X286089160Y-489345985D02*
X286089160Y-489036461D01*
X286089160Y-489036461D02*
X286027255Y-488912652D01*
X286027255Y-488912652D02*
X285965350Y-488850747D01*
X285965350Y-488850747D02*
X285841541Y-488788842D01*
X285841541Y-488788842D02*
X285593922Y-488788842D01*
X285593922Y-488788842D02*
X285470112Y-488850747D01*
X285470112Y-488850747D02*
X285408207Y-488912652D01*
X285408207Y-488912652D02*
X285346303Y-489036461D01*
D10*
D11*
X335284398Y-488293604D02*
X336151064Y-488293604D01*
X336151064Y-488293604D02*
X335593922Y-489593604D01*
D10*
D11*
X385593922Y-488850747D02*
X385470112Y-488788842D01*
X385470112Y-488788842D02*
X385408207Y-488726938D01*
X385408207Y-488726938D02*
X385346303Y-488603128D01*
X385346303Y-488603128D02*
X385346303Y-488541223D01*
X385346303Y-488541223D02*
X385408207Y-488417414D01*
X385408207Y-488417414D02*
X385470112Y-488355509D01*
X385470112Y-488355509D02*
X385593922Y-488293604D01*
X385593922Y-488293604D02*
X385841541Y-488293604D01*
X385841541Y-488293604D02*
X385965350Y-488355509D01*
X385965350Y-488355509D02*
X386027255Y-488417414D01*
X386027255Y-488417414D02*
X386089160Y-488541223D01*
X386089160Y-488541223D02*
X386089160Y-488603128D01*
X386089160Y-488603128D02*
X386027255Y-488726938D01*
X386027255Y-488726938D02*
X385965350Y-488788842D01*
X385965350Y-488788842D02*
X385841541Y-488850747D01*
X385841541Y-488850747D02*
X385593922Y-488850747D01*
X385593922Y-488850747D02*
X385470112Y-488912652D01*
X385470112Y-488912652D02*
X385408207Y-488974557D01*
X385408207Y-488974557D02*
X385346303Y-489098366D01*
X385346303Y-489098366D02*
X385346303Y-489345985D01*
X385346303Y-489345985D02*
X385408207Y-489469795D01*
X385408207Y-489469795D02*
X385470112Y-489531700D01*
X385470112Y-489531700D02*
X385593922Y-489593604D01*
X385593922Y-489593604D02*
X385841541Y-489593604D01*
X385841541Y-489593604D02*
X385965350Y-489531700D01*
X385965350Y-489531700D02*
X386027255Y-489469795D01*
X386027255Y-489469795D02*
X386089160Y-489345985D01*
X386089160Y-489345985D02*
X386089160Y-489098366D01*
X386089160Y-489098366D02*
X386027255Y-488974557D01*
X386027255Y-488974557D02*
X385965350Y-488912652D01*
X385965350Y-488912652D02*
X385841541Y-488850747D01*
D10*
D11*
X435470112Y-489593604D02*
X435717731Y-489593604D01*
X435717731Y-489593604D02*
X435841541Y-489531700D01*
X435841541Y-489531700D02*
X435903445Y-489469795D01*
X435903445Y-489469795D02*
X436027255Y-489284080D01*
X436027255Y-489284080D02*
X436089160Y-489036461D01*
X436089160Y-489036461D02*
X436089160Y-488541223D01*
X436089160Y-488541223D02*
X436027255Y-488417414D01*
X436027255Y-488417414D02*
X435965350Y-488355509D01*
X435965350Y-488355509D02*
X435841541Y-488293604D01*
X435841541Y-488293604D02*
X435593922Y-488293604D01*
X435593922Y-488293604D02*
X435470112Y-488355509D01*
X435470112Y-488355509D02*
X435408207Y-488417414D01*
X435408207Y-488417414D02*
X435346303Y-488541223D01*
X435346303Y-488541223D02*
X435346303Y-488850747D01*
X435346303Y-488850747D02*
X435408207Y-488974557D01*
X435408207Y-488974557D02*
X435470112Y-489036461D01*
X435470112Y-489036461D02*
X435593922Y-489098366D01*
X435593922Y-489098366D02*
X435841541Y-489098366D01*
X435841541Y-489098366D02*
X435965350Y-489036461D01*
X435965350Y-489036461D02*
X436027255Y-488974557D01*
X436027255Y-488974557D02*
X436089160Y-488850747D01*
D10*
D11*
X486089160Y-489593604D02*
X485346303Y-489593604D01*
X485717731Y-489593604D02*
X485717731Y-488293604D01*
X485717731Y-488293604D02*
X485593922Y-488479319D01*
X485593922Y-488479319D02*
X485470112Y-488603128D01*
X485470112Y-488603128D02*
X485346303Y-488665033D01*
X486893921Y-488293604D02*
X487017731Y-488293604D01*
X487017731Y-488293604D02*
X487141540Y-488355509D01*
X487141540Y-488355509D02*
X487203445Y-488417414D01*
X487203445Y-488417414D02*
X487265350Y-488541223D01*
X487265350Y-488541223D02*
X487327255Y-488788842D01*
X487327255Y-488788842D02*
X487327255Y-489098366D01*
X487327255Y-489098366D02*
X487265350Y-489345985D01*
X487265350Y-489345985D02*
X487203445Y-489469795D01*
X487203445Y-489469795D02*
X487141540Y-489531700D01*
X487141540Y-489531700D02*
X487017731Y-489593604D01*
X487017731Y-489593604D02*
X486893921Y-489593604D01*
X486893921Y-489593604D02*
X486770112Y-489531700D01*
X486770112Y-489531700D02*
X486708207Y-489469795D01*
X486708207Y-489469795D02*
X486646302Y-489345985D01*
X486646302Y-489345985D02*
X486584398Y-489098366D01*
X486584398Y-489098366D02*
X486584398Y-488788842D01*
X486584398Y-488788842D02*
X486646302Y-488541223D01*
X486646302Y-488541223D02*
X486708207Y-488417414D01*
X486708207Y-488417414D02*
X486770112Y-488355509D01*
X486770112Y-488355509D02*
X486893921Y-488293604D01*
D10*
D11*
X536089160Y-489593604D02*
X535346303Y-489593604D01*
X535717731Y-489593604D02*
X535717731Y-488293604D01*
X535717731Y-488293604D02*
X535593922Y-488479319D01*
X535593922Y-488479319D02*
X535470112Y-488603128D01*
X535470112Y-488603128D02*
X535346303Y-488665033D01*
X537327255Y-489593604D02*
X536584398Y-489593604D01*
X536955826Y-489593604D02*
X536955826Y-488293604D01*
X536955826Y-488293604D02*
X536832017Y-488479319D01*
X536832017Y-488479319D02*
X536708207Y-488603128D01*
X536708207Y-488603128D02*
X536584398Y-488665033D01*
D10*
D11*
X586089160Y-489593604D02*
X585346303Y-489593604D01*
X585717731Y-489593604D02*
X585717731Y-488293604D01*
X585717731Y-488293604D02*
X585593922Y-488479319D01*
X585593922Y-488479319D02*
X585470112Y-488603128D01*
X585470112Y-488603128D02*
X585346303Y-488665033D01*
X586584398Y-488417414D02*
X586646302Y-488355509D01*
X586646302Y-488355509D02*
X586770112Y-488293604D01*
X586770112Y-488293604D02*
X587079636Y-488293604D01*
X587079636Y-488293604D02*
X587203445Y-488355509D01*
X587203445Y-488355509D02*
X587265350Y-488417414D01*
X587265350Y-488417414D02*
X587327255Y-488541223D01*
X587327255Y-488541223D02*
X587327255Y-488665033D01*
X587327255Y-488665033D02*
X587265350Y-488850747D01*
X587265350Y-488850747D02*
X586522493Y-489593604D01*
X586522493Y-489593604D02*
X587327255Y-489593604D01*
D10*
D11*
X636089160Y-489593604D02*
X635346303Y-489593604D01*
X635717731Y-489593604D02*
X635717731Y-488293604D01*
X635717731Y-488293604D02*
X635593922Y-488479319D01*
X635593922Y-488479319D02*
X635470112Y-488603128D01*
X635470112Y-488603128D02*
X635346303Y-488665033D01*
X636522493Y-488293604D02*
X637327255Y-488293604D01*
X637327255Y-488293604D02*
X636893921Y-488788842D01*
X636893921Y-488788842D02*
X637079636Y-488788842D01*
X637079636Y-488788842D02*
X637203445Y-488850747D01*
X637203445Y-488850747D02*
X637265350Y-488912652D01*
X637265350Y-488912652D02*
X637327255Y-489036461D01*
X637327255Y-489036461D02*
X637327255Y-489345985D01*
X637327255Y-489345985D02*
X637265350Y-489469795D01*
X637265350Y-489469795D02*
X637203445Y-489531700D01*
X637203445Y-489531700D02*
X637079636Y-489593604D01*
X637079636Y-489593604D02*
X636708207Y-489593604D01*
X636708207Y-489593604D02*
X636584398Y-489531700D01*
X636584398Y-489531700D02*
X636522493Y-489469795D01*
D10*
D11*
X686089160Y-489593604D02*
X685346303Y-489593604D01*
X685717731Y-489593604D02*
X685717731Y-488293604D01*
X685717731Y-488293604D02*
X685593922Y-488479319D01*
X685593922Y-488479319D02*
X685470112Y-488603128D01*
X685470112Y-488603128D02*
X685346303Y-488665033D01*
X687203445Y-488726938D02*
X687203445Y-489593604D01*
X686893921Y-488231700D02*
X686584398Y-489160271D01*
X686584398Y-489160271D02*
X687389159Y-489160271D01*
D10*
D11*
X736089160Y-489593604D02*
X735346303Y-489593604D01*
X735717731Y-489593604D02*
X735717731Y-488293604D01*
X735717731Y-488293604D02*
X735593922Y-488479319D01*
X735593922Y-488479319D02*
X735470112Y-488603128D01*
X735470112Y-488603128D02*
X735346303Y-488665033D01*
X737265350Y-488293604D02*
X736646302Y-488293604D01*
X736646302Y-488293604D02*
X736584398Y-488912652D01*
X736584398Y-488912652D02*
X736646302Y-488850747D01*
X736646302Y-488850747D02*
X736770112Y-488788842D01*
X736770112Y-488788842D02*
X737079636Y-488788842D01*
X737079636Y-488788842D02*
X737203445Y-488850747D01*
X737203445Y-488850747D02*
X737265350Y-488912652D01*
X737265350Y-488912652D02*
X737327255Y-489036461D01*
X737327255Y-489036461D02*
X737327255Y-489345985D01*
X737327255Y-489345985D02*
X737265350Y-489469795D01*
X737265350Y-489469795D02*
X737203445Y-489531700D01*
X737203445Y-489531700D02*
X737079636Y-489593604D01*
X737079636Y-489593604D02*
X736770112Y-489593604D01*
X736770112Y-489593604D02*
X736646302Y-489531700D01*
X736646302Y-489531700D02*
X736584398Y-489469795D01*
D10*
D11*
X786089160Y-489593604D02*
X785346303Y-489593604D01*
X785717731Y-489593604D02*
X785717731Y-488293604D01*
X785717731Y-488293604D02*
X785593922Y-488479319D01*
X785593922Y-488479319D02*
X785470112Y-488603128D01*
X785470112Y-488603128D02*
X785346303Y-488665033D01*
X787203445Y-488293604D02*
X786955826Y-488293604D01*
X786955826Y-488293604D02*
X786832017Y-488355509D01*
X786832017Y-488355509D02*
X786770112Y-488417414D01*
X786770112Y-488417414D02*
X786646302Y-488603128D01*
X786646302Y-488603128D02*
X786584398Y-488850747D01*
X786584398Y-488850747D02*
X786584398Y-489345985D01*
X786584398Y-489345985D02*
X786646302Y-489469795D01*
X786646302Y-489469795D02*
X786708207Y-489531700D01*
X786708207Y-489531700D02*
X786832017Y-489593604D01*
X786832017Y-489593604D02*
X787079636Y-489593604D01*
X787079636Y-489593604D02*
X787203445Y-489531700D01*
X787203445Y-489531700D02*
X787265350Y-489469795D01*
X787265350Y-489469795D02*
X787327255Y-489345985D01*
X787327255Y-489345985D02*
X787327255Y-489036461D01*
X787327255Y-489036461D02*
X787265350Y-488912652D01*
X787265350Y-488912652D02*
X787203445Y-488850747D01*
X787203445Y-488850747D02*
X787079636Y-488788842D01*
X787079636Y-488788842D02*
X786832017Y-488788842D01*
X786832017Y-488788842D02*
X786708207Y-488850747D01*
X786708207Y-488850747D02*
X786646302Y-488912652D01*
X786646302Y-488912652D02*
X786584398Y-489036461D01*
D10*
D11*
X836089160Y-489593604D02*
X835346303Y-489593604D01*
X835717731Y-489593604D02*
X835717731Y-488293604D01*
X835717731Y-488293604D02*
X835593922Y-488479319D01*
X835593922Y-488479319D02*
X835470112Y-488603128D01*
X835470112Y-488603128D02*
X835346303Y-488665033D01*
X836522493Y-488293604D02*
X837389159Y-488293604D01*
X837389159Y-488293604D02*
X836832017Y-489593604D01*
D10*
D11*
X886089160Y-489593604D02*
X885346303Y-489593604D01*
X885717731Y-489593604D02*
X885717731Y-488293604D01*
X885717731Y-488293604D02*
X885593922Y-488479319D01*
X885593922Y-488479319D02*
X885470112Y-488603128D01*
X885470112Y-488603128D02*
X885346303Y-488665033D01*
X886832017Y-488850747D02*
X886708207Y-488788842D01*
X886708207Y-488788842D02*
X886646302Y-488726938D01*
X886646302Y-488726938D02*
X886584398Y-488603128D01*
X886584398Y-488603128D02*
X886584398Y-488541223D01*
X886584398Y-488541223D02*
X886646302Y-488417414D01*
X886646302Y-488417414D02*
X886708207Y-488355509D01*
X886708207Y-488355509D02*
X886832017Y-488293604D01*
X886832017Y-488293604D02*
X887079636Y-488293604D01*
X887079636Y-488293604D02*
X887203445Y-488355509D01*
X887203445Y-488355509D02*
X887265350Y-488417414D01*
X887265350Y-488417414D02*
X887327255Y-488541223D01*
X887327255Y-488541223D02*
X887327255Y-488603128D01*
X887327255Y-488603128D02*
X887265350Y-488726938D01*
X887265350Y-488726938D02*
X887203445Y-488788842D01*
X887203445Y-488788842D02*
X887079636Y-488850747D01*
X887079636Y-488850747D02*
X886832017Y-488850747D01*
X886832017Y-488850747D02*
X886708207Y-488912652D01*
X886708207Y-488912652D02*
X886646302Y-488974557D01*
X886646302Y-488974557D02*
X886584398Y-489098366D01*
X886584398Y-489098366D02*
X886584398Y-489345985D01*
X886584398Y-489345985D02*
X886646302Y-489469795D01*
X886646302Y-489469795D02*
X886708207Y-489531700D01*
X886708207Y-489531700D02*
X886832017Y-489593604D01*
X886832017Y-489593604D02*
X887079636Y-489593604D01*
X887079636Y-489593604D02*
X887203445Y-489531700D01*
X887203445Y-489531700D02*
X887265350Y-489469795D01*
X887265350Y-489469795D02*
X887327255Y-489345985D01*
X887327255Y-489345985D02*
X887327255Y-489098366D01*
X887327255Y-489098366D02*
X887265350Y-488974557D01*
X887265350Y-488974557D02*
X887203445Y-488912652D01*
X887203445Y-488912652D02*
X887079636Y-488850747D01*
D10*
D11*
X936089160Y-489593604D02*
X935346303Y-489593604D01*
X935717731Y-489593604D02*
X935717731Y-488293604D01*
X935717731Y-488293604D02*
X935593922Y-488479319D01*
X935593922Y-488479319D02*
X935470112Y-488603128D01*
X935470112Y-488603128D02*
X935346303Y-488665033D01*
X936708207Y-489593604D02*
X936955826Y-489593604D01*
X936955826Y-489593604D02*
X937079636Y-489531700D01*
X937079636Y-489531700D02*
X937141540Y-489469795D01*
X937141540Y-489469795D02*
X937265350Y-489284080D01*
X937265350Y-489284080D02*
X937327255Y-489036461D01*
X937327255Y-489036461D02*
X937327255Y-488541223D01*
X937327255Y-488541223D02*
X937265350Y-488417414D01*
X937265350Y-488417414D02*
X937203445Y-488355509D01*
X937203445Y-488355509D02*
X937079636Y-488293604D01*
X937079636Y-488293604D02*
X936832017Y-488293604D01*
X936832017Y-488293604D02*
X936708207Y-488355509D01*
X936708207Y-488355509D02*
X936646302Y-488417414D01*
X936646302Y-488417414D02*
X936584398Y-488541223D01*
X936584398Y-488541223D02*
X936584398Y-488850747D01*
X936584398Y-488850747D02*
X936646302Y-488974557D01*
X936646302Y-488974557D02*
X936708207Y-489036461D01*
X936708207Y-489036461D02*
X936832017Y-489098366D01*
X936832017Y-489098366D02*
X937079636Y-489098366D01*
X937079636Y-489098366D02*
X937203445Y-489036461D01*
X937203445Y-489036461D02*
X937265350Y-488974557D01*
X937265350Y-488974557D02*
X937327255Y-488850747D01*
D10*
D11*
X985346303Y-488417414D02*
X985408207Y-488355509D01*
X985408207Y-488355509D02*
X985532017Y-488293604D01*
X985532017Y-488293604D02*
X985841541Y-488293604D01*
X985841541Y-488293604D02*
X985965350Y-488355509D01*
X985965350Y-488355509D02*
X986027255Y-488417414D01*
X986027255Y-488417414D02*
X986089160Y-488541223D01*
X986089160Y-488541223D02*
X986089160Y-488665033D01*
X986089160Y-488665033D02*
X986027255Y-488850747D01*
X986027255Y-488850747D02*
X985284398Y-489593604D01*
X985284398Y-489593604D02*
X986089160Y-489593604D01*
X986893921Y-488293604D02*
X987017731Y-488293604D01*
X987017731Y-488293604D02*
X987141540Y-488355509D01*
X987141540Y-488355509D02*
X987203445Y-488417414D01*
X987203445Y-488417414D02*
X987265350Y-488541223D01*
X987265350Y-488541223D02*
X987327255Y-488788842D01*
X987327255Y-488788842D02*
X987327255Y-489098366D01*
X987327255Y-489098366D02*
X987265350Y-489345985D01*
X987265350Y-489345985D02*
X987203445Y-489469795D01*
X987203445Y-489469795D02*
X987141540Y-489531700D01*
X987141540Y-489531700D02*
X987017731Y-489593604D01*
X987017731Y-489593604D02*
X986893921Y-489593604D01*
X986893921Y-489593604D02*
X986770112Y-489531700D01*
X986770112Y-489531700D02*
X986708207Y-489469795D01*
X986708207Y-489469795D02*
X986646302Y-489345985D01*
X986646302Y-489345985D02*
X986584398Y-489098366D01*
X986584398Y-489098366D02*
X986584398Y-488788842D01*
X986584398Y-488788842D02*
X986646302Y-488541223D01*
X986646302Y-488541223D02*
X986708207Y-488417414D01*
X986708207Y-488417414D02*
X986770112Y-488355509D01*
X986770112Y-488355509D02*
X986893921Y-488293604D01*
D10*
D11*
X1035346303Y-488417414D02*
X1035408207Y-488355509D01*
X1035408207Y-488355509D02*
X1035532017Y-488293604D01*
X1035532017Y-488293604D02*
X1035841541Y-488293604D01*
X1035841541Y-488293604D02*
X1035965350Y-488355509D01*
X1035965350Y-488355509D02*
X1036027255Y-488417414D01*
X1036027255Y-488417414D02*
X1036089160Y-488541223D01*
X1036089160Y-488541223D02*
X1036089160Y-488665033D01*
X1036089160Y-488665033D02*
X1036027255Y-488850747D01*
X1036027255Y-488850747D02*
X1035284398Y-489593604D01*
X1035284398Y-489593604D02*
X1036089160Y-489593604D01*
X1037327255Y-489593604D02*
X1036584398Y-489593604D01*
X1036955826Y-489593604D02*
X1036955826Y-488293604D01*
X1036955826Y-488293604D02*
X1036832017Y-488479319D01*
X1036832017Y-488479319D02*
X1036708207Y-488603128D01*
X1036708207Y-488603128D02*
X1036584398Y-488665033D01*
D10*
D11*
X1085346303Y-488417414D02*
X1085408207Y-488355509D01*
X1085408207Y-488355509D02*
X1085532017Y-488293604D01*
X1085532017Y-488293604D02*
X1085841541Y-488293604D01*
X1085841541Y-488293604D02*
X1085965350Y-488355509D01*
X1085965350Y-488355509D02*
X1086027255Y-488417414D01*
X1086027255Y-488417414D02*
X1086089160Y-488541223D01*
X1086089160Y-488541223D02*
X1086089160Y-488665033D01*
X1086089160Y-488665033D02*
X1086027255Y-488850747D01*
X1086027255Y-488850747D02*
X1085284398Y-489593604D01*
X1085284398Y-489593604D02*
X1086089160Y-489593604D01*
X1086584398Y-488417414D02*
X1086646302Y-488355509D01*
X1086646302Y-488355509D02*
X1086770112Y-488293604D01*
X1086770112Y-488293604D02*
X1087079636Y-488293604D01*
X1087079636Y-488293604D02*
X1087203445Y-488355509D01*
X1087203445Y-488355509D02*
X1087265350Y-488417414D01*
X1087265350Y-488417414D02*
X1087327255Y-488541223D01*
X1087327255Y-488541223D02*
X1087327255Y-488665033D01*
X1087327255Y-488665033D02*
X1087265350Y-488850747D01*
X1087265350Y-488850747D02*
X1086522493Y-489593604D01*
X1086522493Y-489593604D02*
X1087327255Y-489593604D01*
D10*
D11*
X1135346303Y-488417414D02*
X1135408207Y-488355509D01*
X1135408207Y-488355509D02*
X1135532017Y-488293604D01*
X1135532017Y-488293604D02*
X1135841541Y-488293604D01*
X1135841541Y-488293604D02*
X1135965350Y-488355509D01*
X1135965350Y-488355509D02*
X1136027255Y-488417414D01*
X1136027255Y-488417414D02*
X1136089160Y-488541223D01*
X1136089160Y-488541223D02*
X1136089160Y-488665033D01*
X1136089160Y-488665033D02*
X1136027255Y-488850747D01*
X1136027255Y-488850747D02*
X1135284398Y-489593604D01*
X1135284398Y-489593604D02*
X1136089160Y-489593604D01*
X1136522493Y-488293604D02*
X1137327255Y-488293604D01*
X1137327255Y-488293604D02*
X1136893921Y-488788842D01*
X1136893921Y-488788842D02*
X1137079636Y-488788842D01*
X1137079636Y-488788842D02*
X1137203445Y-488850747D01*
X1137203445Y-488850747D02*
X1137265350Y-488912652D01*
X1137265350Y-488912652D02*
X1137327255Y-489036461D01*
X1137327255Y-489036461D02*
X1137327255Y-489345985D01*
X1137327255Y-489345985D02*
X1137265350Y-489469795D01*
X1137265350Y-489469795D02*
X1137203445Y-489531700D01*
X1137203445Y-489531700D02*
X1137079636Y-489593604D01*
X1137079636Y-489593604D02*
X1136708207Y-489593604D01*
X1136708207Y-489593604D02*
X1136584398Y-489531700D01*
X1136584398Y-489531700D02*
X1136522493Y-489469795D01*
D10*
D11*
X1185346303Y-488417414D02*
X1185408207Y-488355509D01*
X1185408207Y-488355509D02*
X1185532017Y-488293604D01*
X1185532017Y-488293604D02*
X1185841541Y-488293604D01*
X1185841541Y-488293604D02*
X1185965350Y-488355509D01*
X1185965350Y-488355509D02*
X1186027255Y-488417414D01*
X1186027255Y-488417414D02*
X1186089160Y-488541223D01*
X1186089160Y-488541223D02*
X1186089160Y-488665033D01*
X1186089160Y-488665033D02*
X1186027255Y-488850747D01*
X1186027255Y-488850747D02*
X1185284398Y-489593604D01*
X1185284398Y-489593604D02*
X1186089160Y-489593604D01*
X1187203445Y-488726938D02*
X1187203445Y-489593604D01*
X1186893921Y-488231700D02*
X1186584398Y-489160271D01*
X1186584398Y-489160271D02*
X1187389159Y-489160271D01*
D10*
D11*
X10000000Y-60000000D02*
X12000000Y-60000000D01*
D10*
D11*
X10000000Y-110000000D02*
X12000000Y-110000000D01*
D10*
D11*
X10000000Y-160000000D02*
X12000000Y-160000000D01*
D10*
D11*
X10000000Y-210000000D02*
X12000000Y-210000000D01*
D10*
D11*
X10000000Y-260000000D02*
X12000000Y-260000000D01*
D10*
D11*
X10000000Y-310000000D02*
X12000000Y-310000000D01*
D10*
D11*
X10000000Y-360000000D02*
X12000000Y-360000000D01*
D10*
D11*
X10000000Y-410000000D02*
X12000000Y-410000000D01*
D10*
D11*
X10000000Y-460000000D02*
X12000000Y-460000000D01*
D10*
D11*
X10690476Y-35222176D02*
X11309523Y-35222176D01*
X10566666Y-35593604D02*
X10999999Y-34293604D01*
X10999999Y-34293604D02*
X11433333Y-35593604D01*
D10*
D11*
X11092857Y-84912652D02*
X11278571Y-84974557D01*
X11278571Y-84974557D02*
X11340476Y-85036461D01*
X11340476Y-85036461D02*
X11402380Y-85160271D01*
X11402380Y-85160271D02*
X11402380Y-85345985D01*
X11402380Y-85345985D02*
X11340476Y-85469795D01*
X11340476Y-85469795D02*
X11278571Y-85531700D01*
X11278571Y-85531700D02*
X11154761Y-85593604D01*
X11154761Y-85593604D02*
X10659523Y-85593604D01*
X10659523Y-85593604D02*
X10659523Y-84293604D01*
X10659523Y-84293604D02*
X11092857Y-84293604D01*
X11092857Y-84293604D02*
X11216666Y-84355509D01*
X11216666Y-84355509D02*
X11278571Y-84417414D01*
X11278571Y-84417414D02*
X11340476Y-84541223D01*
X11340476Y-84541223D02*
X11340476Y-84665033D01*
X11340476Y-84665033D02*
X11278571Y-84788842D01*
X11278571Y-84788842D02*
X11216666Y-84850747D01*
X11216666Y-84850747D02*
X11092857Y-84912652D01*
X11092857Y-84912652D02*
X10659523Y-84912652D01*
D10*
D11*
X11402380Y-135469795D02*
X11340476Y-135531700D01*
X11340476Y-135531700D02*
X11154761Y-135593604D01*
X11154761Y-135593604D02*
X11030952Y-135593604D01*
X11030952Y-135593604D02*
X10845238Y-135531700D01*
X10845238Y-135531700D02*
X10721428Y-135407890D01*
X10721428Y-135407890D02*
X10659523Y-135284080D01*
X10659523Y-135284080D02*
X10597619Y-135036461D01*
X10597619Y-135036461D02*
X10597619Y-134850747D01*
X10597619Y-134850747D02*
X10659523Y-134603128D01*
X10659523Y-134603128D02*
X10721428Y-134479319D01*
X10721428Y-134479319D02*
X10845238Y-134355509D01*
X10845238Y-134355509D02*
X11030952Y-134293604D01*
X11030952Y-134293604D02*
X11154761Y-134293604D01*
X11154761Y-134293604D02*
X11340476Y-134355509D01*
X11340476Y-134355509D02*
X11402380Y-134417414D01*
D10*
D11*
X10659523Y-185593604D02*
X10659523Y-184293604D01*
X10659523Y-184293604D02*
X10969047Y-184293604D01*
X10969047Y-184293604D02*
X11154761Y-184355509D01*
X11154761Y-184355509D02*
X11278571Y-184479319D01*
X11278571Y-184479319D02*
X11340476Y-184603128D01*
X11340476Y-184603128D02*
X11402380Y-184850747D01*
X11402380Y-184850747D02*
X11402380Y-185036461D01*
X11402380Y-185036461D02*
X11340476Y-185284080D01*
X11340476Y-185284080D02*
X11278571Y-185407890D01*
X11278571Y-185407890D02*
X11154761Y-185531700D01*
X11154761Y-185531700D02*
X10969047Y-185593604D01*
X10969047Y-185593604D02*
X10659523Y-185593604D01*
D10*
D11*
X10721428Y-234912652D02*
X11154762Y-234912652D01*
X11340476Y-235593604D02*
X10721428Y-235593604D01*
X10721428Y-235593604D02*
X10721428Y-234293604D01*
X10721428Y-234293604D02*
X11340476Y-234293604D01*
D10*
D11*
X11185714Y-284912652D02*
X10752380Y-284912652D01*
X10752380Y-285593604D02*
X10752380Y-284293604D01*
X10752380Y-284293604D02*
X11371428Y-284293604D01*
D10*
D11*
X11340476Y-334355509D02*
X11216666Y-334293604D01*
X11216666Y-334293604D02*
X11030952Y-334293604D01*
X11030952Y-334293604D02*
X10845238Y-334355509D01*
X10845238Y-334355509D02*
X10721428Y-334479319D01*
X10721428Y-334479319D02*
X10659523Y-334603128D01*
X10659523Y-334603128D02*
X10597619Y-334850747D01*
X10597619Y-334850747D02*
X10597619Y-335036461D01*
X10597619Y-335036461D02*
X10659523Y-335284080D01*
X10659523Y-335284080D02*
X10721428Y-335407890D01*
X10721428Y-335407890D02*
X10845238Y-335531700D01*
X10845238Y-335531700D02*
X11030952Y-335593604D01*
X11030952Y-335593604D02*
X11154761Y-335593604D01*
X11154761Y-335593604D02*
X11340476Y-335531700D01*
X11340476Y-335531700D02*
X11402380Y-335469795D01*
X11402380Y-335469795D02*
X11402380Y-335036461D01*
X11402380Y-335036461D02*
X11154761Y-335036461D01*
D10*
D11*
X10628571Y-385593604D02*
X10628571Y-384293604D01*
X10628571Y-384912652D02*
X11371428Y-384912652D01*
X11371428Y-385593604D02*
X11371428Y-384293604D01*
D10*
D11*
X10999999Y-435593604D02*
X10999999Y-434293604D01*
D10*
D11*
X11185714Y-484293604D02*
X11185714Y-485222176D01*
X11185714Y-485222176D02*
X11123809Y-485407890D01*
X11123809Y-485407890D02*
X11000000Y-485531700D01*
X11000000Y-485531700D02*
X10814285Y-485593604D01*
X10814285Y-485593604D02*
X10690476Y-485593604D01*
D10*
D11*
X1209000000Y-60000000D02*
X1207000000Y-60000000D01*
D10*
D11*
X1209000000Y-110000000D02*
X1207000000Y-110000000D01*
D10*
D11*
X1209000000Y-160000000D02*
X1207000000Y-160000000D01*
D10*
D11*
X1209000000Y-210000000D02*
X1207000000Y-210000000D01*
D10*
D11*
X1209000000Y-260000000D02*
X1207000000Y-260000000D01*
D10*
D11*
X1209000000Y-310000000D02*
X1207000000Y-310000000D01*
D10*
D11*
X1209000000Y-360000000D02*
X1207000000Y-360000000D01*
D10*
D11*
X1209000000Y-410000000D02*
X1207000000Y-410000000D01*
D10*
D11*
X1209000000Y-460000000D02*
X1207000000Y-460000000D01*
D10*
D11*
X1207690476Y-35222176D02*
X1208309523Y-35222176D01*
X1207566666Y-35593604D02*
X1207999999Y-34293604D01*
X1207999999Y-34293604D02*
X1208433333Y-35593604D01*
D10*
D11*
X1208092857Y-84912652D02*
X1208278571Y-84974557D01*
X1208278571Y-84974557D02*
X1208340476Y-85036461D01*
X1208340476Y-85036461D02*
X1208402380Y-85160271D01*
X1208402380Y-85160271D02*
X1208402380Y-85345985D01*
X1208402380Y-85345985D02*
X1208340476Y-85469795D01*
X1208340476Y-85469795D02*
X1208278571Y-85531700D01*
X1208278571Y-85531700D02*
X1208154761Y-85593604D01*
X1208154761Y-85593604D02*
X1207659523Y-85593604D01*
X1207659523Y-85593604D02*
X1207659523Y-84293604D01*
X1207659523Y-84293604D02*
X1208092857Y-84293604D01*
X1208092857Y-84293604D02*
X1208216666Y-84355509D01*
X1208216666Y-84355509D02*
X1208278571Y-84417414D01*
X1208278571Y-84417414D02*
X1208340476Y-84541223D01*
X1208340476Y-84541223D02*
X1208340476Y-84665033D01*
X1208340476Y-84665033D02*
X1208278571Y-84788842D01*
X1208278571Y-84788842D02*
X1208216666Y-84850747D01*
X1208216666Y-84850747D02*
X1208092857Y-84912652D01*
X1208092857Y-84912652D02*
X1207659523Y-84912652D01*
D10*
D11*
X1208402380Y-135469795D02*
X1208340476Y-135531700D01*
X1208340476Y-135531700D02*
X1208154761Y-135593604D01*
X1208154761Y-135593604D02*
X1208030952Y-135593604D01*
X1208030952Y-135593604D02*
X1207845238Y-135531700D01*
X1207845238Y-135531700D02*
X1207721428Y-135407890D01*
X1207721428Y-135407890D02*
X1207659523Y-135284080D01*
X1207659523Y-135284080D02*
X1207597619Y-135036461D01*
X1207597619Y-135036461D02*
X1207597619Y-134850747D01*
X1207597619Y-134850747D02*
X1207659523Y-134603128D01*
X1207659523Y-134603128D02*
X1207721428Y-134479319D01*
X1207721428Y-134479319D02*
X1207845238Y-134355509D01*
X1207845238Y-134355509D02*
X1208030952Y-134293604D01*
X1208030952Y-134293604D02*
X1208154761Y-134293604D01*
X1208154761Y-134293604D02*
X1208340476Y-134355509D01*
X1208340476Y-134355509D02*
X1208402380Y-134417414D01*
D10*
D11*
X1207659523Y-185593604D02*
X1207659523Y-184293604D01*
X1207659523Y-184293604D02*
X1207969047Y-184293604D01*
X1207969047Y-184293604D02*
X1208154761Y-184355509D01*
X1208154761Y-184355509D02*
X1208278571Y-184479319D01*
X1208278571Y-184479319D02*
X1208340476Y-184603128D01*
X1208340476Y-184603128D02*
X1208402380Y-184850747D01*
X1208402380Y-184850747D02*
X1208402380Y-185036461D01*
X1208402380Y-185036461D02*
X1208340476Y-185284080D01*
X1208340476Y-185284080D02*
X1208278571Y-185407890D01*
X1208278571Y-185407890D02*
X1208154761Y-185531700D01*
X1208154761Y-185531700D02*
X1207969047Y-185593604D01*
X1207969047Y-185593604D02*
X1207659523Y-185593604D01*
D10*
D11*
X1207721428Y-234912652D02*
X1208154762Y-234912652D01*
X1208340476Y-235593604D02*
X1207721428Y-235593604D01*
X1207721428Y-235593604D02*
X1207721428Y-234293604D01*
X1207721428Y-234293604D02*
X1208340476Y-234293604D01*
D10*
D11*
X1208185714Y-284912652D02*
X1207752380Y-284912652D01*
X1207752380Y-285593604D02*
X1207752380Y-284293604D01*
X1207752380Y-284293604D02*
X1208371428Y-284293604D01*
D10*
D11*
X1208340476Y-334355509D02*
X1208216666Y-334293604D01*
X1208216666Y-334293604D02*
X1208030952Y-334293604D01*
X1208030952Y-334293604D02*
X1207845238Y-334355509D01*
X1207845238Y-334355509D02*
X1207721428Y-334479319D01*
X1207721428Y-334479319D02*
X1207659523Y-334603128D01*
X1207659523Y-334603128D02*
X1207597619Y-334850747D01*
X1207597619Y-334850747D02*
X1207597619Y-335036461D01*
X1207597619Y-335036461D02*
X1207659523Y-335284080D01*
X1207659523Y-335284080D02*
X1207721428Y-335407890D01*
X1207721428Y-335407890D02*
X1207845238Y-335531700D01*
X1207845238Y-335531700D02*
X1208030952Y-335593604D01*
X1208030952Y-335593604D02*
X1208154761Y-335593604D01*
X1208154761Y-335593604D02*
X1208340476Y-335531700D01*
X1208340476Y-335531700D02*
X1208402380Y-335469795D01*
X1208402380Y-335469795D02*
X1208402380Y-335036461D01*
X1208402380Y-335036461D02*
X1208154761Y-335036461D01*
D10*
D11*
X1207628571Y-385593604D02*
X1207628571Y-384293604D01*
X1207628571Y-384912652D02*
X1208371428Y-384912652D01*
X1208371428Y-385593604D02*
X1208371428Y-384293604D01*
D10*
D11*
X1207999999Y-435593604D02*
X1207999999Y-434293604D01*
D10*
D11*
X1208185714Y-484293604D02*
X1208185714Y-485222176D01*
X1208185714Y-485222176D02*
X1208123809Y-485407890D01*
X1208123809Y-485407890D02*
X1208000000Y-485531700D01*
X1208000000Y-485531700D02*
X1207814285Y-485593604D01*
X1207814285Y-485593604D02*
X1207690476Y-485593604D01*
D10*
D11*
X1122455826Y-483786128D02*
X1122455826Y-482286128D01*
X1122455826Y-482286128D02*
X1122812969Y-482286128D01*
X1122812969Y-482286128D02*
X1123027255Y-482357557D01*
X1123027255Y-482357557D02*
X1123170112Y-482500414D01*
X1123170112Y-482500414D02*
X1123241541Y-482643271D01*
X1123241541Y-482643271D02*
X1123312969Y-482928985D01*
X1123312969Y-482928985D02*
X1123312969Y-483143271D01*
X1123312969Y-483143271D02*
X1123241541Y-483428985D01*
X1123241541Y-483428985D02*
X1123170112Y-483571842D01*
X1123170112Y-483571842D02*
X1123027255Y-483714700D01*
X1123027255Y-483714700D02*
X1122812969Y-483786128D01*
X1122812969Y-483786128D02*
X1122455826Y-483786128D01*
X1124598684Y-483786128D02*
X1124598684Y-483000414D01*
X1124598684Y-483000414D02*
X1124527255Y-482857557D01*
X1124527255Y-482857557D02*
X1124384398Y-482786128D01*
X1124384398Y-482786128D02*
X1124098684Y-482786128D01*
X1124098684Y-482786128D02*
X1123955826Y-482857557D01*
X1124598684Y-483714700D02*
X1124455826Y-483786128D01*
X1124455826Y-483786128D02*
X1124098684Y-483786128D01*
X1124098684Y-483786128D02*
X1123955826Y-483714700D01*
X1123955826Y-483714700D02*
X1123884398Y-483571842D01*
X1123884398Y-483571842D02*
X1123884398Y-483428985D01*
X1123884398Y-483428985D02*
X1123955826Y-483286128D01*
X1123955826Y-483286128D02*
X1124098684Y-483214700D01*
X1124098684Y-483214700D02*
X1124455826Y-483214700D01*
X1124455826Y-483214700D02*
X1124598684Y-483143271D01*
X1125098684Y-482786128D02*
X1125670112Y-482786128D01*
X1125312969Y-482286128D02*
X1125312969Y-483571842D01*
X1125312969Y-483571842D02*
X1125384398Y-483714700D01*
X1125384398Y-483714700D02*
X1125527255Y-483786128D01*
X1125527255Y-483786128D02*
X1125670112Y-483786128D01*
X1126741541Y-483714700D02*
X1126598684Y-483786128D01*
X1126598684Y-483786128D02*
X1126312970Y-483786128D01*
X1126312970Y-483786128D02*
X1126170112Y-483714700D01*
X1126170112Y-483714700D02*
X1126098684Y-483571842D01*
X1126098684Y-483571842D02*
X1126098684Y-483000414D01*
X1126098684Y-483000414D02*
X1126170112Y-482857557D01*
X1126170112Y-482857557D02*
X1126312970Y-482786128D01*
X1126312970Y-482786128D02*
X1126598684Y-482786128D01*
X1126598684Y-482786128D02*
X1126741541Y-482857557D01*
X1126741541Y-482857557D02*
X1126812970Y-483000414D01*
X1126812970Y-483000414D02*
X1126812970Y-483143271D01*
X1126812970Y-483143271D02*
X1126098684Y-483286128D01*
X1127455826Y-483643271D02*
X1127527255Y-483714700D01*
X1127527255Y-483714700D02*
X1127455826Y-483786128D01*
X1127455826Y-483786128D02*
X1127384398Y-483714700D01*
X1127384398Y-483714700D02*
X1127455826Y-483643271D01*
X1127455826Y-483643271D02*
X1127455826Y-483786128D01*
X1127455826Y-482857557D02*
X1127527255Y-482928985D01*
X1127527255Y-482928985D02*
X1127455826Y-483000414D01*
X1127455826Y-483000414D02*
X1127384398Y-482928985D01*
X1127384398Y-482928985D02*
X1127455826Y-482857557D01*
X1127455826Y-482857557D02*
X1127455826Y-483000414D01*
D10*
D11*
X1099000000Y-484500000D02*
X1207000000Y-484500000D01*
D10*
D11*
X1100455826Y-486586128D02*
X1100455826Y-485086128D01*
X1101312969Y-486586128D02*
X1100670112Y-485728985D01*
X1101312969Y-485086128D02*
X1100455826Y-485943271D01*
X1101955826Y-486586128D02*
X1101955826Y-485586128D01*
X1101955826Y-485086128D02*
X1101884398Y-485157557D01*
X1101884398Y-485157557D02*
X1101955826Y-485228985D01*
X1101955826Y-485228985D02*
X1102027255Y-485157557D01*
X1102027255Y-485157557D02*
X1101955826Y-485086128D01*
X1101955826Y-485086128D02*
X1101955826Y-485228985D01*
X1103527255Y-486443271D02*
X1103455827Y-486514700D01*
X1103455827Y-486514700D02*
X1103241541Y-486586128D01*
X1103241541Y-486586128D02*
X1103098684Y-486586128D01*
X1103098684Y-486586128D02*
X1102884398Y-486514700D01*
X1102884398Y-486514700D02*
X1102741541Y-486371842D01*
X1102741541Y-486371842D02*
X1102670112Y-486228985D01*
X1102670112Y-486228985D02*
X1102598684Y-485943271D01*
X1102598684Y-485943271D02*
X1102598684Y-485728985D01*
X1102598684Y-485728985D02*
X1102670112Y-485443271D01*
X1102670112Y-485443271D02*
X1102741541Y-485300414D01*
X1102741541Y-485300414D02*
X1102884398Y-485157557D01*
X1102884398Y-485157557D02*
X1103098684Y-485086128D01*
X1103098684Y-485086128D02*
X1103241541Y-485086128D01*
X1103241541Y-485086128D02*
X1103455827Y-485157557D01*
X1103455827Y-485157557D02*
X1103527255Y-485228985D01*
X1104812970Y-486586128D02*
X1104812970Y-485800414D01*
X1104812970Y-485800414D02*
X1104741541Y-485657557D01*
X1104741541Y-485657557D02*
X1104598684Y-485586128D01*
X1104598684Y-485586128D02*
X1104312970Y-485586128D01*
X1104312970Y-485586128D02*
X1104170112Y-485657557D01*
X1104812970Y-486514700D02*
X1104670112Y-486586128D01*
X1104670112Y-486586128D02*
X1104312970Y-486586128D01*
X1104312970Y-486586128D02*
X1104170112Y-486514700D01*
X1104170112Y-486514700D02*
X1104098684Y-486371842D01*
X1104098684Y-486371842D02*
X1104098684Y-486228985D01*
X1104098684Y-486228985D02*
X1104170112Y-486086128D01*
X1104170112Y-486086128D02*
X1104312970Y-486014700D01*
X1104312970Y-486014700D02*
X1104670112Y-486014700D01*
X1104670112Y-486014700D02*
X1104812970Y-485943271D01*
X1106170113Y-486586128D02*
X1106170113Y-485086128D01*
X1106170113Y-486514700D02*
X1106027255Y-486586128D01*
X1106027255Y-486586128D02*
X1105741541Y-486586128D01*
X1105741541Y-486586128D02*
X1105598684Y-486514700D01*
X1105598684Y-486514700D02*
X1105527255Y-486443271D01*
X1105527255Y-486443271D02*
X1105455827Y-486300414D01*
X1105455827Y-486300414D02*
X1105455827Y-485871842D01*
X1105455827Y-485871842D02*
X1105527255Y-485728985D01*
X1105527255Y-485728985D02*
X1105598684Y-485657557D01*
X1105598684Y-485657557D02*
X1105741541Y-485586128D01*
X1105741541Y-485586128D02*
X1106027255Y-485586128D01*
X1106027255Y-485586128D02*
X1106170113Y-485657557D01*
X1108027255Y-485800414D02*
X1108527255Y-485800414D01*
X1108741541Y-486586128D02*
X1108027255Y-486586128D01*
X1108027255Y-486586128D02*
X1108027255Y-485086128D01*
X1108027255Y-485086128D02*
X1108741541Y-485086128D01*
X1109384398Y-486443271D02*
X1109455827Y-486514700D01*
X1109455827Y-486514700D02*
X1109384398Y-486586128D01*
X1109384398Y-486586128D02*
X1109312970Y-486514700D01*
X1109312970Y-486514700D02*
X1109384398Y-486443271D01*
X1109384398Y-486443271D02*
X1109384398Y-486586128D01*
X1110098684Y-486586128D02*
X1110098684Y-485086128D01*
X1110098684Y-485086128D02*
X1110455827Y-485086128D01*
X1110455827Y-485086128D02*
X1110670113Y-485157557D01*
X1110670113Y-485157557D02*
X1110812970Y-485300414D01*
X1110812970Y-485300414D02*
X1110884399Y-485443271D01*
X1110884399Y-485443271D02*
X1110955827Y-485728985D01*
X1110955827Y-485728985D02*
X1110955827Y-485943271D01*
X1110955827Y-485943271D02*
X1110884399Y-486228985D01*
X1110884399Y-486228985D02*
X1110812970Y-486371842D01*
X1110812970Y-486371842D02*
X1110670113Y-486514700D01*
X1110670113Y-486514700D02*
X1110455827Y-486586128D01*
X1110455827Y-486586128D02*
X1110098684Y-486586128D01*
X1111598684Y-486443271D02*
X1111670113Y-486514700D01*
X1111670113Y-486514700D02*
X1111598684Y-486586128D01*
X1111598684Y-486586128D02*
X1111527256Y-486514700D01*
X1111527256Y-486514700D02*
X1111598684Y-486443271D01*
X1111598684Y-486443271D02*
X1111598684Y-486586128D01*
X1112241542Y-486157557D02*
X1112955828Y-486157557D01*
X1112098685Y-486586128D02*
X1112598685Y-485086128D01*
X1112598685Y-485086128D02*
X1113098685Y-486586128D01*
X1113598684Y-486443271D02*
X1113670113Y-486514700D01*
X1113670113Y-486514700D02*
X1113598684Y-486586128D01*
X1113598684Y-486586128D02*
X1113527256Y-486514700D01*
X1113527256Y-486514700D02*
X1113598684Y-486443271D01*
X1113598684Y-486443271D02*
X1113598684Y-486586128D01*
X1115670113Y-485728985D02*
X1115527256Y-485657557D01*
X1115527256Y-485657557D02*
X1115455827Y-485586128D01*
X1115455827Y-485586128D02*
X1115384399Y-485443271D01*
X1115384399Y-485443271D02*
X1115384399Y-485371842D01*
X1115384399Y-485371842D02*
X1115455827Y-485228985D01*
X1115455827Y-485228985D02*
X1115527256Y-485157557D01*
X1115527256Y-485157557D02*
X1115670113Y-485086128D01*
X1115670113Y-485086128D02*
X1115955827Y-485086128D01*
X1115955827Y-485086128D02*
X1116098685Y-485157557D01*
X1116098685Y-485157557D02*
X1116170113Y-485228985D01*
X1116170113Y-485228985D02*
X1116241542Y-485371842D01*
X1116241542Y-485371842D02*
X1116241542Y-485443271D01*
X1116241542Y-485443271D02*
X1116170113Y-485586128D01*
X1116170113Y-485586128D02*
X1116098685Y-485657557D01*
X1116098685Y-485657557D02*
X1115955827Y-485728985D01*
X1115955827Y-485728985D02*
X1115670113Y-485728985D01*
X1115670113Y-485728985D02*
X1115527256Y-485800414D01*
X1115527256Y-485800414D02*
X1115455827Y-485871842D01*
X1115455827Y-485871842D02*
X1115384399Y-486014700D01*
X1115384399Y-486014700D02*
X1115384399Y-486300414D01*
X1115384399Y-486300414D02*
X1115455827Y-486443271D01*
X1115455827Y-486443271D02*
X1115527256Y-486514700D01*
X1115527256Y-486514700D02*
X1115670113Y-486586128D01*
X1115670113Y-486586128D02*
X1115955827Y-486586128D01*
X1115955827Y-486586128D02*
X1116098685Y-486514700D01*
X1116098685Y-486514700D02*
X1116170113Y-486443271D01*
X1116170113Y-486443271D02*
X1116241542Y-486300414D01*
X1116241542Y-486300414D02*
X1116241542Y-486014700D01*
X1116241542Y-486014700D02*
X1116170113Y-485871842D01*
X1116170113Y-485871842D02*
X1116098685Y-485800414D01*
X1116098685Y-485800414D02*
X1115955827Y-485728985D01*
X1116884398Y-486443271D02*
X1116955827Y-486514700D01*
X1116955827Y-486514700D02*
X1116884398Y-486586128D01*
X1116884398Y-486586128D02*
X1116812970Y-486514700D01*
X1116812970Y-486514700D02*
X1116884398Y-486443271D01*
X1116884398Y-486443271D02*
X1116884398Y-486586128D01*
X1117884399Y-485086128D02*
X1118027256Y-485086128D01*
X1118027256Y-485086128D02*
X1118170113Y-485157557D01*
X1118170113Y-485157557D02*
X1118241542Y-485228985D01*
X1118241542Y-485228985D02*
X1118312970Y-485371842D01*
X1118312970Y-485371842D02*
X1118384399Y-485657557D01*
X1118384399Y-485657557D02*
X1118384399Y-486014700D01*
X1118384399Y-486014700D02*
X1118312970Y-486300414D01*
X1118312970Y-486300414D02*
X1118241542Y-486443271D01*
X1118241542Y-486443271D02*
X1118170113Y-486514700D01*
X1118170113Y-486514700D02*
X1118027256Y-486586128D01*
X1118027256Y-486586128D02*
X1117884399Y-486586128D01*
X1117884399Y-486586128D02*
X1117741542Y-486514700D01*
X1117741542Y-486514700D02*
X1117670113Y-486443271D01*
X1117670113Y-486443271D02*
X1117598684Y-486300414D01*
X1117598684Y-486300414D02*
X1117527256Y-486014700D01*
X1117527256Y-486014700D02*
X1117527256Y-485657557D01*
X1117527256Y-485657557D02*
X1117598684Y-485371842D01*
X1117598684Y-485371842D02*
X1117670113Y-485228985D01*
X1117670113Y-485228985D02*
X1117741542Y-485157557D01*
X1117741542Y-485157557D02*
X1117884399Y-485086128D01*
X1119027255Y-486443271D02*
X1119098684Y-486514700D01*
X1119098684Y-486514700D02*
X1119027255Y-486586128D01*
X1119027255Y-486586128D02*
X1118955827Y-486514700D01*
X1118955827Y-486514700D02*
X1119027255Y-486443271D01*
X1119027255Y-486443271D02*
X1119027255Y-486586128D01*
X1119598684Y-485086128D02*
X1120527256Y-485086128D01*
X1120527256Y-485086128D02*
X1120027256Y-485657557D01*
X1120027256Y-485657557D02*
X1120241541Y-485657557D01*
X1120241541Y-485657557D02*
X1120384399Y-485728985D01*
X1120384399Y-485728985D02*
X1120455827Y-485800414D01*
X1120455827Y-485800414D02*
X1120527256Y-485943271D01*
X1120527256Y-485943271D02*
X1120527256Y-486300414D01*
X1120527256Y-486300414D02*
X1120455827Y-486443271D01*
X1120455827Y-486443271D02*
X1120384399Y-486514700D01*
X1120384399Y-486514700D02*
X1120241541Y-486586128D01*
X1120241541Y-486586128D02*
X1119812970Y-486586128D01*
X1119812970Y-486586128D02*
X1119670113Y-486514700D01*
X1119670113Y-486514700D02*
X1119598684Y-486443271D01*
D10*
D11*
X1099000000Y-481500000D02*
X1207000000Y-481500000D01*
D10*
D12*
X1186411653Y-483778328D02*
X1185911653Y-483064042D01*
X1185554510Y-483778328D02*
X1185554510Y-482278328D01*
X1185554510Y-482278328D02*
X1186125939Y-482278328D01*
X1186125939Y-482278328D02*
X1186268796Y-482349757D01*
X1186268796Y-482349757D02*
X1186340225Y-482421185D01*
X1186340225Y-482421185D02*
X1186411653Y-482564042D01*
X1186411653Y-482564042D02*
X1186411653Y-482778328D01*
X1186411653Y-482778328D02*
X1186340225Y-482921185D01*
X1186340225Y-482921185D02*
X1186268796Y-482992614D01*
X1186268796Y-482992614D02*
X1186125939Y-483064042D01*
X1186125939Y-483064042D02*
X1185554510Y-483064042D01*
X1187625939Y-483706900D02*
X1187483082Y-483778328D01*
X1187483082Y-483778328D02*
X1187197368Y-483778328D01*
X1187197368Y-483778328D02*
X1187054510Y-483706900D01*
X1187054510Y-483706900D02*
X1186983082Y-483564042D01*
X1186983082Y-483564042D02*
X1186983082Y-482992614D01*
X1186983082Y-482992614D02*
X1187054510Y-482849757D01*
X1187054510Y-482849757D02*
X1187197368Y-482778328D01*
X1187197368Y-482778328D02*
X1187483082Y-482778328D01*
X1187483082Y-482778328D02*
X1187625939Y-482849757D01*
X1187625939Y-482849757D02*
X1187697368Y-482992614D01*
X1187697368Y-482992614D02*
X1187697368Y-483135471D01*
X1187697368Y-483135471D02*
X1186983082Y-483278328D01*
X1188197367Y-482778328D02*
X1188554510Y-483778328D01*
X1188554510Y-483778328D02*
X1188911653Y-482778328D01*
X1189483081Y-483635471D02*
X1189554510Y-483706900D01*
X1189554510Y-483706900D02*
X1189483081Y-483778328D01*
X1189483081Y-483778328D02*
X1189411653Y-483706900D01*
X1189411653Y-483706900D02*
X1189483081Y-483635471D01*
X1189483081Y-483635471D02*
X1189483081Y-483778328D01*
X1189483081Y-482849757D02*
X1189554510Y-482921185D01*
X1189554510Y-482921185D02*
X1189483081Y-482992614D01*
X1189483081Y-482992614D02*
X1189411653Y-482921185D01*
X1189411653Y-482921185D02*
X1189483081Y-482849757D01*
X1189483081Y-482849757D02*
X1189483081Y-482992614D01*
D10*
D11*
X1100384398Y-483714700D02*
X1100598684Y-483786128D01*
X1100598684Y-483786128D02*
X1100955826Y-483786128D01*
X1100955826Y-483786128D02*
X1101098684Y-483714700D01*
X1101098684Y-483714700D02*
X1101170112Y-483643271D01*
X1101170112Y-483643271D02*
X1101241541Y-483500414D01*
X1101241541Y-483500414D02*
X1101241541Y-483357557D01*
X1101241541Y-483357557D02*
X1101170112Y-483214700D01*
X1101170112Y-483214700D02*
X1101098684Y-483143271D01*
X1101098684Y-483143271D02*
X1100955826Y-483071842D01*
X1100955826Y-483071842D02*
X1100670112Y-483000414D01*
X1100670112Y-483000414D02*
X1100527255Y-482928985D01*
X1100527255Y-482928985D02*
X1100455826Y-482857557D01*
X1100455826Y-482857557D02*
X1100384398Y-482714700D01*
X1100384398Y-482714700D02*
X1100384398Y-482571842D01*
X1100384398Y-482571842D02*
X1100455826Y-482428985D01*
X1100455826Y-482428985D02*
X1100527255Y-482357557D01*
X1100527255Y-482357557D02*
X1100670112Y-482286128D01*
X1100670112Y-482286128D02*
X1101027255Y-482286128D01*
X1101027255Y-482286128D02*
X1101241541Y-482357557D01*
X1101884397Y-483786128D02*
X1101884397Y-482786128D01*
X1101884397Y-482286128D02*
X1101812969Y-482357557D01*
X1101812969Y-482357557D02*
X1101884397Y-482428985D01*
X1101884397Y-482428985D02*
X1101955826Y-482357557D01*
X1101955826Y-482357557D02*
X1101884397Y-482286128D01*
X1101884397Y-482286128D02*
X1101884397Y-482428985D01*
X1102455826Y-482786128D02*
X1103241541Y-482786128D01*
X1103241541Y-482786128D02*
X1102455826Y-483786128D01*
X1102455826Y-483786128D02*
X1103241541Y-483786128D01*
X1104384398Y-483714700D02*
X1104241541Y-483786128D01*
X1104241541Y-483786128D02*
X1103955827Y-483786128D01*
X1103955827Y-483786128D02*
X1103812969Y-483714700D01*
X1103812969Y-483714700D02*
X1103741541Y-483571842D01*
X1103741541Y-483571842D02*
X1103741541Y-483000414D01*
X1103741541Y-483000414D02*
X1103812969Y-482857557D01*
X1103812969Y-482857557D02*
X1103955827Y-482786128D01*
X1103955827Y-482786128D02*
X1104241541Y-482786128D01*
X1104241541Y-482786128D02*
X1104384398Y-482857557D01*
X1104384398Y-482857557D02*
X1104455827Y-483000414D01*
X1104455827Y-483000414D02*
X1104455827Y-483143271D01*
X1104455827Y-483143271D02*
X1103741541Y-483286128D01*
X1105098683Y-483643271D02*
X1105170112Y-483714700D01*
X1105170112Y-483714700D02*
X1105098683Y-483786128D01*
X1105098683Y-483786128D02*
X1105027255Y-483714700D01*
X1105027255Y-483714700D02*
X1105098683Y-483643271D01*
X1105098683Y-483643271D02*
X1105098683Y-483786128D01*
X1105098683Y-482857557D02*
X1105170112Y-482928985D01*
X1105170112Y-482928985D02*
X1105098683Y-483000414D01*
X1105098683Y-483000414D02*
X1105027255Y-482928985D01*
X1105027255Y-482928985D02*
X1105098683Y-482857557D01*
X1105098683Y-482857557D02*
X1105098683Y-483000414D01*
X1106955826Y-482286128D02*
X1106955826Y-483500414D01*
X1106955826Y-483500414D02*
X1107027255Y-483643271D01*
X1107027255Y-483643271D02*
X1107098684Y-483714700D01*
X1107098684Y-483714700D02*
X1107241541Y-483786128D01*
X1107241541Y-483786128D02*
X1107527255Y-483786128D01*
X1107527255Y-483786128D02*
X1107670112Y-483714700D01*
X1107670112Y-483714700D02*
X1107741541Y-483643271D01*
X1107741541Y-483643271D02*
X1107812969Y-483500414D01*
X1107812969Y-483500414D02*
X1107812969Y-482286128D01*
X1108455827Y-483714700D02*
X1108598684Y-483786128D01*
X1108598684Y-483786128D02*
X1108884398Y-483786128D01*
X1108884398Y-483786128D02*
X1109027255Y-483714700D01*
X1109027255Y-483714700D02*
X1109098684Y-483571842D01*
X1109098684Y-483571842D02*
X1109098684Y-483500414D01*
X1109098684Y-483500414D02*
X1109027255Y-483357557D01*
X1109027255Y-483357557D02*
X1108884398Y-483286128D01*
X1108884398Y-483286128D02*
X1108670113Y-483286128D01*
X1108670113Y-483286128D02*
X1108527255Y-483214700D01*
X1108527255Y-483214700D02*
X1108455827Y-483071842D01*
X1108455827Y-483071842D02*
X1108455827Y-483000414D01*
X1108455827Y-483000414D02*
X1108527255Y-482857557D01*
X1108527255Y-482857557D02*
X1108670113Y-482786128D01*
X1108670113Y-482786128D02*
X1108884398Y-482786128D01*
X1108884398Y-482786128D02*
X1109027255Y-482857557D01*
X1110312970Y-483714700D02*
X1110170113Y-483786128D01*
X1110170113Y-483786128D02*
X1109884399Y-483786128D01*
X1109884399Y-483786128D02*
X1109741541Y-483714700D01*
X1109741541Y-483714700D02*
X1109670113Y-483571842D01*
X1109670113Y-483571842D02*
X1109670113Y-483000414D01*
X1109670113Y-483000414D02*
X1109741541Y-482857557D01*
X1109741541Y-482857557D02*
X1109884399Y-482786128D01*
X1109884399Y-482786128D02*
X1110170113Y-482786128D01*
X1110170113Y-482786128D02*
X1110312970Y-482857557D01*
X1110312970Y-482857557D02*
X1110384399Y-483000414D01*
X1110384399Y-483000414D02*
X1110384399Y-483143271D01*
X1110384399Y-483143271D02*
X1109670113Y-483286128D01*
X1111027255Y-483786128D02*
X1111027255Y-482786128D01*
X1111027255Y-483071842D02*
X1111098684Y-482928985D01*
X1111098684Y-482928985D02*
X1111170113Y-482857557D01*
X1111170113Y-482857557D02*
X1111312970Y-482786128D01*
X1111312970Y-482786128D02*
X1111455827Y-482786128D01*
D10*
D11*
X1185455826Y-486586128D02*
X1185455826Y-485086128D01*
X1186812970Y-486586128D02*
X1186812970Y-485086128D01*
X1186812970Y-486514700D02*
X1186670112Y-486586128D01*
X1186670112Y-486586128D02*
X1186384398Y-486586128D01*
X1186384398Y-486586128D02*
X1186241541Y-486514700D01*
X1186241541Y-486514700D02*
X1186170112Y-486443271D01*
X1186170112Y-486443271D02*
X1186098684Y-486300414D01*
X1186098684Y-486300414D02*
X1186098684Y-485871842D01*
X1186098684Y-485871842D02*
X1186170112Y-485728985D01*
X1186170112Y-485728985D02*
X1186241541Y-485657557D01*
X1186241541Y-485657557D02*
X1186384398Y-485586128D01*
X1186384398Y-485586128D02*
X1186670112Y-485586128D01*
X1186670112Y-485586128D02*
X1186812970Y-485657557D01*
X1187527255Y-486443271D02*
X1187598684Y-486514700D01*
X1187598684Y-486514700D02*
X1187527255Y-486586128D01*
X1187527255Y-486586128D02*
X1187455827Y-486514700D01*
X1187455827Y-486514700D02*
X1187527255Y-486443271D01*
X1187527255Y-486443271D02*
X1187527255Y-486586128D01*
X1187527255Y-485657557D02*
X1187598684Y-485728985D01*
X1187598684Y-485728985D02*
X1187527255Y-485800414D01*
X1187527255Y-485800414D02*
X1187455827Y-485728985D01*
X1187455827Y-485728985D02*
X1187527255Y-485657557D01*
X1187527255Y-485657557D02*
X1187527255Y-485800414D01*
X1190170113Y-486586128D02*
X1189312970Y-486586128D01*
X1189741541Y-486586128D02*
X1189741541Y-485086128D01*
X1189741541Y-485086128D02*
X1189598684Y-485300414D01*
X1189598684Y-485300414D02*
X1189455827Y-485443271D01*
X1189455827Y-485443271D02*
X1189312970Y-485514700D01*
X1191884398Y-485014700D02*
X1190598684Y-486943271D01*
X1193170113Y-486586128D02*
X1192312970Y-486586128D01*
X1192741541Y-486586128D02*
X1192741541Y-485086128D01*
X1192741541Y-485086128D02*
X1192598684Y-485300414D01*
X1192598684Y-485300414D02*
X1192455827Y-485443271D01*
X1192455827Y-485443271D02*
X1192312970Y-485514700D01*
D10*
D11*
X1099000000Y-477500000D02*
X1207000000Y-477500000D01*
D10*
D13*
X1100691728Y-478204438D02*
X1101834585Y-478204438D01*
X1101013157Y-480204438D02*
X1101263157Y-478204438D01*
X1102251252Y-480204438D02*
X1102417919Y-478871104D01*
X1102501252Y-478204438D02*
X1102394109Y-478299676D01*
X1102394109Y-478299676D02*
X1102477443Y-478394914D01*
X1102477443Y-478394914D02*
X1102584586Y-478299676D01*
X1102584586Y-478299676D02*
X1102501252Y-478204438D01*
X1102501252Y-478204438D02*
X1102477443Y-478394914D01*
X1103084586Y-478871104D02*
X1103846490Y-478871104D01*
X1103453633Y-478204438D02*
X1103239348Y-479918723D01*
X1103239348Y-479918723D02*
X1103310776Y-480109200D01*
X1103310776Y-480109200D02*
X1103489348Y-480204438D01*
X1103489348Y-480204438D02*
X1103679824Y-480204438D01*
X1104632205Y-480204438D02*
X1104453633Y-480109200D01*
X1104453633Y-480109200D02*
X1104382205Y-479918723D01*
X1104382205Y-479918723D02*
X1104596490Y-478204438D01*
X1106167919Y-480109200D02*
X1105965538Y-480204438D01*
X1105965538Y-480204438D02*
X1105584585Y-480204438D01*
X1105584585Y-480204438D02*
X1105406014Y-480109200D01*
X1105406014Y-480109200D02*
X1105334585Y-479918723D01*
X1105334585Y-479918723D02*
X1105429824Y-479156819D01*
X1105429824Y-479156819D02*
X1105548871Y-478966342D01*
X1105548871Y-478966342D02*
X1105751252Y-478871104D01*
X1105751252Y-478871104D02*
X1106132204Y-478871104D01*
X1106132204Y-478871104D02*
X1106310776Y-478966342D01*
X1106310776Y-478966342D02*
X1106382204Y-479156819D01*
X1106382204Y-479156819D02*
X1106358395Y-479347295D01*
X1106358395Y-479347295D02*
X1105382204Y-479537771D01*
X1107132205Y-480013961D02*
X1107215538Y-480109200D01*
X1107215538Y-480109200D02*
X1107108395Y-480204438D01*
X1107108395Y-480204438D02*
X1107025062Y-480109200D01*
X1107025062Y-480109200D02*
X1107132205Y-480013961D01*
X1107132205Y-480013961D02*
X1107108395Y-480204438D01*
X1107263157Y-478966342D02*
X1107346490Y-479061580D01*
X1107346490Y-479061580D02*
X1107239348Y-479156819D01*
X1107239348Y-479156819D02*
X1107156014Y-479061580D01*
X1107156014Y-479061580D02*
X1107263157Y-478966342D01*
X1107263157Y-478966342D02*
X1107239348Y-479156819D01*
D10*
D11*
X1100955826Y-475600414D02*
X1100455826Y-475600414D01*
X1100455826Y-476386128D02*
X1100455826Y-474886128D01*
X1100455826Y-474886128D02*
X1101170112Y-474886128D01*
X1101741540Y-476386128D02*
X1101741540Y-475386128D01*
X1101741540Y-474886128D02*
X1101670112Y-474957557D01*
X1101670112Y-474957557D02*
X1101741540Y-475028985D01*
X1101741540Y-475028985D02*
X1101812969Y-474957557D01*
X1101812969Y-474957557D02*
X1101741540Y-474886128D01*
X1101741540Y-474886128D02*
X1101741540Y-475028985D01*
X1102670112Y-476386128D02*
X1102527255Y-476314700D01*
X1102527255Y-476314700D02*
X1102455826Y-476171842D01*
X1102455826Y-476171842D02*
X1102455826Y-474886128D01*
X1103812969Y-476314700D02*
X1103670112Y-476386128D01*
X1103670112Y-476386128D02*
X1103384398Y-476386128D01*
X1103384398Y-476386128D02*
X1103241540Y-476314700D01*
X1103241540Y-476314700D02*
X1103170112Y-476171842D01*
X1103170112Y-476171842D02*
X1103170112Y-475600414D01*
X1103170112Y-475600414D02*
X1103241540Y-475457557D01*
X1103241540Y-475457557D02*
X1103384398Y-475386128D01*
X1103384398Y-475386128D02*
X1103670112Y-475386128D01*
X1103670112Y-475386128D02*
X1103812969Y-475457557D01*
X1103812969Y-475457557D02*
X1103884398Y-475600414D01*
X1103884398Y-475600414D02*
X1103884398Y-475743271D01*
X1103884398Y-475743271D02*
X1103170112Y-475886128D01*
X1104527254Y-476243271D02*
X1104598683Y-476314700D01*
X1104598683Y-476314700D02*
X1104527254Y-476386128D01*
X1104527254Y-476386128D02*
X1104455826Y-476314700D01*
X1104455826Y-476314700D02*
X1104527254Y-476243271D01*
X1104527254Y-476243271D02*
X1104527254Y-476386128D01*
X1104527254Y-475457557D02*
X1104598683Y-475528985D01*
X1104598683Y-475528985D02*
X1104527254Y-475600414D01*
X1104527254Y-475600414D02*
X1104455826Y-475528985D01*
X1104455826Y-475528985D02*
X1104527254Y-475457557D01*
X1104527254Y-475457557D02*
X1104527254Y-475600414D01*
X1106384397Y-476386128D02*
X1106384397Y-475386128D01*
X1106384397Y-475528985D02*
X1106455826Y-475457557D01*
X1106455826Y-475457557D02*
X1106598683Y-475386128D01*
X1106598683Y-475386128D02*
X1106812969Y-475386128D01*
X1106812969Y-475386128D02*
X1106955826Y-475457557D01*
X1106955826Y-475457557D02*
X1107027255Y-475600414D01*
X1107027255Y-475600414D02*
X1107027255Y-476386128D01*
X1107027255Y-475600414D02*
X1107098683Y-475457557D01*
X1107098683Y-475457557D02*
X1107241540Y-475386128D01*
X1107241540Y-475386128D02*
X1107455826Y-475386128D01*
X1107455826Y-475386128D02*
X1107598683Y-475457557D01*
X1107598683Y-475457557D02*
X1107670112Y-475600414D01*
X1107670112Y-475600414D02*
X1107670112Y-476386128D01*
X1108384397Y-476386128D02*
X1108384397Y-475386128D01*
X1108384397Y-474886128D02*
X1108312969Y-474957557D01*
X1108312969Y-474957557D02*
X1108384397Y-475028985D01*
X1108384397Y-475028985D02*
X1108455826Y-474957557D01*
X1108455826Y-474957557D02*
X1108384397Y-474886128D01*
X1108384397Y-474886128D02*
X1108384397Y-475028985D01*
X1109098683Y-475386128D02*
X1109098683Y-476386128D01*
X1109098683Y-475528985D02*
X1109170112Y-475457557D01*
X1109170112Y-475457557D02*
X1109312969Y-475386128D01*
X1109312969Y-475386128D02*
X1109527255Y-475386128D01*
X1109527255Y-475386128D02*
X1109670112Y-475457557D01*
X1109670112Y-475457557D02*
X1109741541Y-475600414D01*
X1109741541Y-475600414D02*
X1109741541Y-476386128D01*
X1110098684Y-476528985D02*
X1111241541Y-476528985D01*
X1111455826Y-476386128D02*
X1112241541Y-475386128D01*
X1111455826Y-475386128D02*
X1112241541Y-476386128D01*
X1112812969Y-476243271D02*
X1112884398Y-476314700D01*
X1112884398Y-476314700D02*
X1112812969Y-476386128D01*
X1112812969Y-476386128D02*
X1112741541Y-476314700D01*
X1112741541Y-476314700D02*
X1112812969Y-476243271D01*
X1112812969Y-476243271D02*
X1112812969Y-476386128D01*
X1113527255Y-476386128D02*
X1113527255Y-474886128D01*
X1113670113Y-475814700D02*
X1114098684Y-476386128D01*
X1114098684Y-475386128D02*
X1113527255Y-475957557D01*
X1114741541Y-476386128D02*
X1114741541Y-475386128D01*
X1114741541Y-474886128D02*
X1114670113Y-474957557D01*
X1114670113Y-474957557D02*
X1114741541Y-475028985D01*
X1114741541Y-475028985D02*
X1114812970Y-474957557D01*
X1114812970Y-474957557D02*
X1114741541Y-474886128D01*
X1114741541Y-474886128D02*
X1114741541Y-475028985D01*
X1116098685Y-476314700D02*
X1115955827Y-476386128D01*
X1115955827Y-476386128D02*
X1115670113Y-476386128D01*
X1115670113Y-476386128D02*
X1115527256Y-476314700D01*
X1115527256Y-476314700D02*
X1115455827Y-476243271D01*
X1115455827Y-476243271D02*
X1115384399Y-476100414D01*
X1115384399Y-476100414D02*
X1115384399Y-475671842D01*
X1115384399Y-475671842D02*
X1115455827Y-475528985D01*
X1115455827Y-475528985D02*
X1115527256Y-475457557D01*
X1115527256Y-475457557D02*
X1115670113Y-475386128D01*
X1115670113Y-475386128D02*
X1115955827Y-475386128D01*
X1115955827Y-475386128D02*
X1116098685Y-475457557D01*
X1117384399Y-476386128D02*
X1117384399Y-475600414D01*
X1117384399Y-475600414D02*
X1117312970Y-475457557D01*
X1117312970Y-475457557D02*
X1117170113Y-475386128D01*
X1117170113Y-475386128D02*
X1116884399Y-475386128D01*
X1116884399Y-475386128D02*
X1116741541Y-475457557D01*
X1117384399Y-476314700D02*
X1117241541Y-476386128D01*
X1117241541Y-476386128D02*
X1116884399Y-476386128D01*
X1116884399Y-476386128D02*
X1116741541Y-476314700D01*
X1116741541Y-476314700D02*
X1116670113Y-476171842D01*
X1116670113Y-476171842D02*
X1116670113Y-476028985D01*
X1116670113Y-476028985D02*
X1116741541Y-475886128D01*
X1116741541Y-475886128D02*
X1116884399Y-475814700D01*
X1116884399Y-475814700D02*
X1117241541Y-475814700D01*
X1117241541Y-475814700D02*
X1117384399Y-475743271D01*
X1118741542Y-476386128D02*
X1118741542Y-474886128D01*
X1118741542Y-476314700D02*
X1118598684Y-476386128D01*
X1118598684Y-476386128D02*
X1118312970Y-476386128D01*
X1118312970Y-476386128D02*
X1118170113Y-476314700D01*
X1118170113Y-476314700D02*
X1118098684Y-476243271D01*
X1118098684Y-476243271D02*
X1118027256Y-476100414D01*
X1118027256Y-476100414D02*
X1118027256Y-475671842D01*
X1118027256Y-475671842D02*
X1118098684Y-475528985D01*
X1118098684Y-475528985D02*
X1118170113Y-475457557D01*
X1118170113Y-475457557D02*
X1118312970Y-475386128D01*
X1118312970Y-475386128D02*
X1118598684Y-475386128D01*
X1118598684Y-475386128D02*
X1118741542Y-475457557D01*
X1119098685Y-476528985D02*
X1120241542Y-476528985D01*
X1120598684Y-475386128D02*
X1120598684Y-476886128D01*
X1120598684Y-475457557D02*
X1120741542Y-475386128D01*
X1120741542Y-475386128D02*
X1121027256Y-475386128D01*
X1121027256Y-475386128D02*
X1121170113Y-475457557D01*
X1121170113Y-475457557D02*
X1121241542Y-475528985D01*
X1121241542Y-475528985D02*
X1121312970Y-475671842D01*
X1121312970Y-475671842D02*
X1121312970Y-476100414D01*
X1121312970Y-476100414D02*
X1121241542Y-476243271D01*
X1121241542Y-476243271D02*
X1121170113Y-476314700D01*
X1121170113Y-476314700D02*
X1121027256Y-476386128D01*
X1121027256Y-476386128D02*
X1120741542Y-476386128D01*
X1120741542Y-476386128D02*
X1120598684Y-476314700D01*
X1122598685Y-476314700D02*
X1122455827Y-476386128D01*
X1122455827Y-476386128D02*
X1122170113Y-476386128D01*
X1122170113Y-476386128D02*
X1122027256Y-476314700D01*
X1122027256Y-476314700D02*
X1121955827Y-476243271D01*
X1121955827Y-476243271D02*
X1121884399Y-476100414D01*
X1121884399Y-476100414D02*
X1121884399Y-475671842D01*
X1121884399Y-475671842D02*
X1121955827Y-475528985D01*
X1121955827Y-475528985D02*
X1122027256Y-475457557D01*
X1122027256Y-475457557D02*
X1122170113Y-475386128D01*
X1122170113Y-475386128D02*
X1122455827Y-475386128D01*
X1122455827Y-475386128D02*
X1122598685Y-475457557D01*
X1123241541Y-476386128D02*
X1123241541Y-474886128D01*
X1123241541Y-475457557D02*
X1123384399Y-475386128D01*
X1123384399Y-475386128D02*
X1123670113Y-475386128D01*
X1123670113Y-475386128D02*
X1123812970Y-475457557D01*
X1123812970Y-475457557D02*
X1123884399Y-475528985D01*
X1123884399Y-475528985D02*
X1123955827Y-475671842D01*
X1123955827Y-475671842D02*
X1123955827Y-476100414D01*
X1123955827Y-476100414D02*
X1123884399Y-476243271D01*
X1123884399Y-476243271D02*
X1123812970Y-476314700D01*
X1123812970Y-476314700D02*
X1123670113Y-476386128D01*
X1123670113Y-476386128D02*
X1123384399Y-476386128D01*
X1123384399Y-476386128D02*
X1123241541Y-476314700D01*
D10*
D11*
X1099000000Y-471500000D02*
X1207000000Y-471500000D01*
D10*
D11*
X1100384398Y-473614700D02*
X1100598684Y-473686128D01*
X1100598684Y-473686128D02*
X1100955826Y-473686128D01*
X1100955826Y-473686128D02*
X1101098684Y-473614700D01*
X1101098684Y-473614700D02*
X1101170112Y-473543271D01*
X1101170112Y-473543271D02*
X1101241541Y-473400414D01*
X1101241541Y-473400414D02*
X1101241541Y-473257557D01*
X1101241541Y-473257557D02*
X1101170112Y-473114700D01*
X1101170112Y-473114700D02*
X1101098684Y-473043271D01*
X1101098684Y-473043271D02*
X1100955826Y-472971842D01*
X1100955826Y-472971842D02*
X1100670112Y-472900414D01*
X1100670112Y-472900414D02*
X1100527255Y-472828985D01*
X1100527255Y-472828985D02*
X1100455826Y-472757557D01*
X1100455826Y-472757557D02*
X1100384398Y-472614700D01*
X1100384398Y-472614700D02*
X1100384398Y-472471842D01*
X1100384398Y-472471842D02*
X1100455826Y-472328985D01*
X1100455826Y-472328985D02*
X1100527255Y-472257557D01*
X1100527255Y-472257557D02*
X1100670112Y-472186128D01*
X1100670112Y-472186128D02*
X1101027255Y-472186128D01*
X1101027255Y-472186128D02*
X1101241541Y-472257557D01*
X1101884397Y-473686128D02*
X1101884397Y-472186128D01*
X1102527255Y-473686128D02*
X1102527255Y-472900414D01*
X1102527255Y-472900414D02*
X1102455826Y-472757557D01*
X1102455826Y-472757557D02*
X1102312969Y-472686128D01*
X1102312969Y-472686128D02*
X1102098683Y-472686128D01*
X1102098683Y-472686128D02*
X1101955826Y-472757557D01*
X1101955826Y-472757557D02*
X1101884397Y-472828985D01*
X1103812969Y-473614700D02*
X1103670112Y-473686128D01*
X1103670112Y-473686128D02*
X1103384398Y-473686128D01*
X1103384398Y-473686128D02*
X1103241540Y-473614700D01*
X1103241540Y-473614700D02*
X1103170112Y-473471842D01*
X1103170112Y-473471842D02*
X1103170112Y-472900414D01*
X1103170112Y-472900414D02*
X1103241540Y-472757557D01*
X1103241540Y-472757557D02*
X1103384398Y-472686128D01*
X1103384398Y-472686128D02*
X1103670112Y-472686128D01*
X1103670112Y-472686128D02*
X1103812969Y-472757557D01*
X1103812969Y-472757557D02*
X1103884398Y-472900414D01*
X1103884398Y-472900414D02*
X1103884398Y-473043271D01*
X1103884398Y-473043271D02*
X1103170112Y-473186128D01*
X1105098683Y-473614700D02*
X1104955826Y-473686128D01*
X1104955826Y-473686128D02*
X1104670112Y-473686128D01*
X1104670112Y-473686128D02*
X1104527254Y-473614700D01*
X1104527254Y-473614700D02*
X1104455826Y-473471842D01*
X1104455826Y-473471842D02*
X1104455826Y-472900414D01*
X1104455826Y-472900414D02*
X1104527254Y-472757557D01*
X1104527254Y-472757557D02*
X1104670112Y-472686128D01*
X1104670112Y-472686128D02*
X1104955826Y-472686128D01*
X1104955826Y-472686128D02*
X1105098683Y-472757557D01*
X1105098683Y-472757557D02*
X1105170112Y-472900414D01*
X1105170112Y-472900414D02*
X1105170112Y-473043271D01*
X1105170112Y-473043271D02*
X1104455826Y-473186128D01*
X1105598683Y-472686128D02*
X1106170111Y-472686128D01*
X1105812968Y-472186128D02*
X1105812968Y-473471842D01*
X1105812968Y-473471842D02*
X1105884397Y-473614700D01*
X1105884397Y-473614700D02*
X1106027254Y-473686128D01*
X1106027254Y-473686128D02*
X1106170111Y-473686128D01*
X1106670111Y-473543271D02*
X1106741540Y-473614700D01*
X1106741540Y-473614700D02*
X1106670111Y-473686128D01*
X1106670111Y-473686128D02*
X1106598683Y-473614700D01*
X1106598683Y-473614700D02*
X1106670111Y-473543271D01*
X1106670111Y-473543271D02*
X1106670111Y-473686128D01*
X1106670111Y-472757557D02*
X1106741540Y-472828985D01*
X1106741540Y-472828985D02*
X1106670111Y-472900414D01*
X1106670111Y-472900414D02*
X1106598683Y-472828985D01*
X1106598683Y-472828985D02*
X1106670111Y-472757557D01*
X1106670111Y-472757557D02*
X1106670111Y-472900414D01*
D10*
D11*
X1119000000Y-481500000D02*
X1119000000Y-484500000D01*
D10*
D11*
X1183000000Y-481500000D02*
X1183000000Y-488000000D01*
M02*
